<?xml version="1.0" encoding="utf-8"?>
<!-- Generator: Adobe Illustrator 21.0.0, SVG Export Plug-In . SVG Version: 6.00 Build 0)  -->
<svg version="1.1" id="Layer_1" xmlns="http://www.w3.org/2000/svg" xmlns:xlink="http://www.w3.org/1999/xlink" x="0px" y="0px"
	 viewBox="0 0 34.1 34.1" style="enable-background:new 0 0 34.1 34.1;" xml:space="preserve">
<style type="text/css">
	.st0{fill:#0D2833;}
</style>
<path class="st0" d="M17.1,34.1C7.7,34.1,0,26.5,0,17.1S7.7,0,17.1,0s17.1,7.7,17.1,17.1C34.1,26.5,26.5,34.1,17.1,34.1z M17.1,1
	C8.2,1,1,8.2,1,17.1s7.2,16.1,16.1,16.1S33.2,26,33.2,17.1S25.9,1,17.1,1z"/>
<path class="st0" d="M22.2,21.8h-8.6c-0.3,0-0.6-0.2-0.8-0.6l-2.7-7.7H6.9V12h3.8c0.3,0,0.6,0.2,0.8,0.6l2.7,7.7h7.3l2.3-6.5H20V12
	h4.9c0.2,0,0.5,0.2,0.6,0.3c0.2,0.2,0.2,0.5,0.1,0.7l-2.8,8.2C22.8,21.6,22.5,21.8,22.2,21.8z"/>
<circle class="st0" cx="14.3" cy="25.2" r="1.5"/>
<circle class="st0" cx="21.5" cy="25.2" r="1.5"/>
<g>
	<g>
		<rect x="15.9" y="8.6" class="st0" width="2" height="5.7"/>
		<g>
			<polygon class="st0" points="14.9,13.7 16.9,17.2 18.9,13.7 			"/>
		</g>
	</g>
</g>
</svg>
