<?xml version="1.0" encoding="utf-8"?>
<!-- Generator: Adobe Illustrator 19.2.0, SVG Export Plug-In . SVG Version: 6.00 Build 0)  -->
<svg version="1.1" id="Layer_1" xmlns="http://www.w3.org/2000/svg" xmlns:xlink="http://www.w3.org/1999/xlink" x="0px" y="0px"
	 viewBox="0 0 109.3 148.1" style="enable-background:new 0 0 109.3 148.1;" xml:space="preserve">
<style type="text/css">
	.st0{fill:#F04927;}
	.st1{fill:#FCAF17;}
</style>
<g>
	<path class="st0" d="M87.5,87.1c8.2-6.5,11.4-16.1,15.1-25.4c0.3,0,0.5,0,0.8,0c0.5,1.3,1.1,2.6,1.6,3.9
		c3.8,10.6,5.2,21.6,3.9,32.7c-2.4,21.4-15,40.4-37.2,47c-18.9,5.6-36.8,2.9-52.6-9.5c-9.8-7.8-15.8-18-18.2-30.4
		c-2.5-13,0.3-25.1,5.8-36.8c0.7-1.4,1.4-2.8,2.1-4.2c0.1-0.2,0.4-0.2,0.8-0.5c0,1.5,0.1,2.7,0,4c-0.4,7-0.1,13.9,4.3,19.8
		c1.9,2.6,4.6,4.6,7.1,6.6c-1.5-4.2-3.4-8.2-4.3-12.5c-2.4-10.9-0.2-21.1,6.1-30.4c4.4-6.4,10.2-11.1,17.1-14.6
		c9.8-5,12.5-16.1,10.6-25.2c-0.6-2.9-1.6-5.7-2.5-8.6c-0.2-0.8-0.4-1.5-0.5-2.3C47.7,0.4,47.9,0.2,48,0c1.8,1,3.8,1.8,5.5,3
		c15.7,10.3,28.3,23.4,35.8,40.9c2.7,6.2,4.3,12.7,4.6,19.6c0.3,7.5-1.6,14.5-5.1,21.1C88.4,85.3,87.9,86.2,87.5,87.1z M40.6,117.3
		c-4.3-1.2-4.6-5-6.2-7.9c-3.7,9.5,0.2,17.9,6.3,22.2c5.8,4.1,12.4,5.4,19.5,4.3c12.8-2.1,19.9-13,16.7-25.5
		c-0.2-0.7-0.7-1.3-1.1-2.1c-2.1,2.8-3.1,6.3-7.7,6.5c3.6-6.7,3-12.8-0.8-18.5c-3.5-5.4-7.9-9.7-13.6-12.8c0,2.8,0.3,5.2-0.1,7.5
		c-0.6,3.3-3.4,4.7-6,6.2c-5.7,3.3-11,10.1-7.1,18.3C40.5,115.9,40.5,116.3,40.6,117.3z"/>
	<path class="st1" d="M40.6,117.3c-0.1-1-0.1-1.4-0.3-1.8c-3.9-8.2,1.4-15,7.1-18.3c2.6-1.5,5.4-3,6-6.2c0.4-2.3,0.1-4.7,0.1-7.5
		c5.7,3,10.2,7.4,13.6,12.8c3.7,5.8,4.3,11.9,0.8,18.5c4.6-0.2,5.6-3.7,7.7-6.5c0.4,0.8,0.9,1.4,1.1,2.1
		c3.2,12.5-3.9,23.4-16.7,25.5c-7.1,1.2-13.7-0.1-19.5-4.3c-6.1-4.3-10-12.7-6.3-22.2C36.1,112.3,36.4,116.1,40.6,117.3z"/>
</g>
</svg>
