<?xml version="1.0" encoding="utf-8"?>
<!-- Generator: Adobe Illustrator 19.2.0, SVG Export Plug-In . SVG Version: 6.00 Build 0)  -->
<svg version="1.1" id="Capa_1" xmlns="http://www.w3.org/2000/svg" xmlns:xlink="http://www.w3.org/1999/xlink" x="0px" y="0px"
	 viewBox="0 0 85 84.7" style="enable-background:new 0 0 85 84.7;" xml:space="preserve">
<style type="text/css">
	.st0{fill:#3178BA;}
	.st1{opacity:0.2;fill:#3178BA;enable-background:new    ;}
</style>
<g>
	<path class="st0" d="M14.9,8.5c-3.5,0-6.3,2.9-6.3,6.3c0,3.5,2.9,6.4,6.3,6.4c3.5,0,6.4-2.9,6.4-6.4C21.3,11.4,18.4,8.5,14.9,8.5z
		 M14.9,18.4c-1.9,0-3.5-1.6-3.5-3.6c0-1.9,1.6-3.5,3.5-3.5c2,0,3.6,1.6,3.6,3.5C18.4,16.8,16.8,18.4,14.9,18.4z"/>
	<path class="st0" d="M70.9,11.3c-0.8,0-1.4,0.7-1.4,1.4s0.7,1.4,1.4,1.4s1.4-0.7,1.4-1.4S71.6,11.3,70.9,11.3z"/>
	<path class="st0" d="M65.2,11.3c-0.8,0-1.4,0.7-1.4,1.4s0.7,1.4,1.4,1.4c0.7,0,1.4-0.7,1.4-1.4S66,11.3,65.2,11.3z"/>
	<path class="st0" d="M73.7,15.6c-0.8,0-1.4,0.6-1.4,1.4s0.7,1.4,1.4,1.4s1.4-0.7,1.4-1.4C75.1,16.2,74.5,15.6,73.7,15.6z"/>
	<path class="st0" d="M68,15.6c-0.8,0-1.4,0.6-1.4,1.4s0.7,1.4,1.4,1.4s1.4-0.7,1.4-1.4C69.4,16.2,68.8,15.6,68,15.6z"/>
	<path class="st0" d="M59.5,11.3c-0.8,0-1.4,0.7-1.4,1.4s0.6,1.4,1.4,1.4c0.8,0,1.4-0.7,1.4-1.4C61,12,60.3,11.3,59.5,11.3z"/>
	<path class="st0" d="M62.3,15.6c-0.8,0-1.4,0.6-1.4,1.4s0.6,1.4,1.4,1.4c0.8,0,1.4-0.7,1.4-1.4C63.8,16.2,63.1,15.6,62.3,15.6z"/>
	<path class="st0" d="M53.9,11.3c-0.8,0-1.4,0.7-1.4,1.4s0.7,1.4,1.4,1.4c0.8,0,1.4-0.7,1.4-1.4C55.3,12,54.6,11.3,53.9,11.3z"/>
	<path class="st0" d="M56.7,15.6c-0.8,0-1.4,0.6-1.4,1.4s0.7,1.4,1.4,1.4s1.4-0.7,1.4-1.4C58.1,16.2,57.5,15.6,56.7,15.6z"/>
	<path class="st0" d="M48.2,11.3c-0.8,0-1.4,0.7-1.4,1.4s0.6,1.4,1.4,1.4s1.4-0.7,1.4-1.4C49.6,12,49,11.3,48.2,11.3z"/>
	<path class="st0" d="M51,15.6c-0.8,0-1.4,0.6-1.4,1.4s0.7,1.4,1.4,1.4c0.8,0,1.4-0.7,1.4-1.4C52.4,16.2,51.8,15.6,51,15.6z"/>
	<path class="st0" d="M14.9,35.4c-3.5,0-6.3,2.9-6.3,6.4s2.9,6.3,6.3,6.3c3.5,0,6.4-2.8,6.4-6.3C21.3,38.3,18.4,35.4,14.9,35.4z
		 M14.9,45.3c-1.9,0-3.5-1.6-3.5-3.5c0-2,1.6-3.6,3.5-3.6c2,0,3.6,1.6,3.6,3.6C18.4,43.8,16.8,45.3,14.9,45.3z"/>
	<path class="st0" d="M14.9,62.3c-3.5,0-6.3,2.9-6.3,6.4s2.9,6.4,6.3,6.4c3.5,0,6.4-2.9,6.4-6.4S18.4,62.3,14.9,62.3z M14.9,72.3
		c-1.9,0-3.5-1.6-3.5-3.5c0-2,1.6-3.5,3.5-3.5c2,0,3.6,1.6,3.6,3.5C18.4,70.7,16.8,72.3,14.9,72.3z"/>
	<path class="st0" d="M85,23.2V6.5C85,3,82.1,0,78.5,0h-72C3,0,0,3,0,6.5v16.7c0,2.1,1,4,2.5,5.1C1,29.6,0,31.4,0,33.5v16.7
		c0,2.1,1,3.9,2.5,5.1C1,56.5,0,58.3,0,60.4v16.7c0,3.6,3,6.5,6.5,6.5H46c3.8,0.7,8,1.1,12.1,1.1c12.3,0,25.3-3.1,26.8-9.2
		C85,75.3,85,75,85,74.7V35.4c0-0.2,0-0.4-0.1-0.6c-0.5-2.1-2.3-3.8-5-5.3C82.8,29,85,26.4,85,23.2z M2.8,33.5c0-2,1.7-3.7,3.7-3.7
		h29.6c-2.6,1.3-4.3,3-4.8,5.1c-0.1,0.2-0.1,0.3-0.1,0.6v18.4H6.5c-2,0-3.7-1.7-3.7-3.7V33.5z M6.5,80.8c-2,0-3.7-1.7-3.7-3.7V60.4
		c0-2,1.7-3.7,3.7-3.7h24.7v19.5c0.9,2.4,3.4,3.8,5.6,4.6C36.8,80.8,6.5,80.8,6.5,80.8z M36,67.6c3,1.6,7,2.8,11.5,3.5h0.1
		c1.4,0.2,2.9,0.4,4.4,0.5c0.3,0,0.7,0.1,1,0.1s0.7,0,1,0c0.4,0,0.9,0,1.3,0.1c0.3,0,0.5,0,0.7,0h4.1c0.3,0,0.5,0,0.7,0
		c0.4,0,0.9,0,1.3-0.1c0.3,0,0.6,0,1,0c0.3,0,0.6,0,1-0.1c1.5-0.1,3-0.3,4.5-0.5l0,0c4.9-0.8,9.3-2.1,12.3-4
		c0.2-0.1,0.3-0.2,0.5-0.3c0.2-0.1,0.4-0.3,0.6-0.4c0,0,0.1-0.1,0.2-0.1c0,0,0,8.1,0,8.2c-0.6,3.6-10.4,7.3-24,7.3
		c-4.4,0-8.3-0.4-11.7-1c-7-1.3-11-3.6-12-5.5c0-0.1-0.1-0.2-0.1-0.3c-0.1-0.2-0.1-0.3-0.2-0.5v-8.2L36,67.6z M82.2,61.5
		c0,0.2,0,0.3-0.1,0.5c0,0.1-0.5,1.2-1.2,1.7c-3.1,2.7-11.7,5.4-22.8,5.4s-20-2.6-23-5.5c0,0-0.1-0.1-0.2-0.2
		c-0.1-0.1-0.3-0.3-0.3-0.4c-0.1-0.1-0.2-0.2-0.2-0.3c-0.1-0.1-0.1-0.2-0.2-0.3c0-0.1-0.1-0.3-0.1-0.3c0-0.1,0-0.3,0-0.4v-0.3
		c0-0.1,0-0.3,0-0.3v-7v-0.3c0.1,0,5.7,5.6,24.1,5.6s24-5.5,24.1-5.6C82.2,53.6,82.2,61.3,82.2,61.5z M82.2,48.7
		c0,0.1,0,0.3-0.1,0.4c0,0.1-0.1,0.3-0.1,0.4c0,0.1-0.1,0.2-0.2,0.3c0,0.1-0.1,0.2-0.2,0.3s-0.2,0.3-0.3,0.4c0,0-0.1,0.1-0.2,0.2
		c-3,2.9-11.8,5.5-23,5.5s-20-2.7-23-5.5c0-0.1-0.1-0.1-0.2-0.2c-0.1-0.2-0.8-1.3-0.9-1.5c0-0.1-0.1-0.3-0.1-0.4c0-0.1,0-7.9,0-7.9
		s7,5.6,24.1,5.6s24.1-5.6,24.1-5.6C82.2,40.8,82.2,48.6,82.2,48.7z M82.2,36c0,3.6-10.3,7.6-24.1,7.6S34,39.6,34,36
		c0-0.2,0.1-0.3,0.1-0.5s0.1-0.4,0.2-0.6l0,0c0.5-0.8,1.4-1.7,2.9-2.4c0,0,0.1-0.1,0.2-0.1c0.3-0.1,0.5-0.3,0.8-0.4
		c0.3-0.1,0.7-0.3,1-0.4c0.1,0,0.1-0.1,0.2-0.1c1.7-0.7,3.6-1.3,5.9-1.7c0.7-0.1,1.4-0.3,2.1-0.4c0.2,0,0.4-0.1,0.6-0.1
		c6.3-1,13.8-1,20.1,0c0.2,0,0.4,0,0.6,0.1c0.7,0.1,1.4,0.3,2.1,0.4C77.8,31.1,82.2,33.6,82.2,36z M82.2,23.2c0,2-1.7,3.7-3.7,3.7
		H72c-0.1,0-0.2,0-0.3,0c-1-0.2-1.9-0.3-2.9-0.5c-0.1,0-0.2,0-0.3,0c-3.3-0.5-6.9-0.8-10.4-0.8s-7.1,0.3-10.4,0.8
		c-0.1,0-0.2,0-0.3,0c-1,0.2-1.9,0.3-2.9,0.5c-0.1,0-0.2,0-0.3,0H6.5c-2,0-3.7-1.7-3.7-3.7V6.5c0-2,1.7-3.7,3.7-3.7h72
		c2,0,3.7,1.7,3.7,3.7V23.2z"/>
</g>
<path class="st1" d="M36,67.6c3,1.6,7,2.8,11.5,3.5h0.1c1.4,0.2,2.9,0.4,4.4,0.5c0.3,0,0.7,0.1,1,0.1s0.7,0,1,0c0.4,0,0.9,0,1.3,0.1
	c0.3,0,0.5,0,0.7,0h4.1c0.3,0,0.5,0,0.7,0c0.4,0,0.9,0,1.3-0.1c0.3,0,0.6,0,1,0c0.3,0,0.6,0,1-0.1c1.5-0.1,3-0.3,4.5-0.5l0,0
	c4.9-0.8,9.3-2.1,12.3-4c0.2-0.1,0.3-0.2,0.5-0.3c0.2-0.1,0.4-0.3,0.6-0.4c0,0,0.1-0.1,0.2-0.1v8v0.1c-0.6,3.6-10.4,7.3-24,7.3
	c-4.4,0-8.3-0.4-11.7-1c-7-1.3-11-3.6-12-5.5c0-0.1-0.1-0.2-0.1-0.3c-0.1-0.2-0.1-0.3-0.2-0.5v-8.2L36,67.6z"/>
<path class="st1" d="M18.4,68.7c0,2-1.6,3.5-3.6,3.5c-1.9,0-3.5-1.6-3.5-3.5c0-2,1.6-3.5,3.5-3.5C16.8,65.2,18.4,66.8,18.4,68.7z"/>
<path class="st1" d="M18.4,41.8c0,2-1.6,3.5-3.6,3.5c-1.9,0-3.5-1.6-3.5-3.5c0-2,1.6-3.6,3.5-3.6C16.8,38.3,18.4,39.9,18.4,41.8z"/>
<path class="st1" d="M18.4,14.9c0,2-1.6,3.6-3.6,3.6c-1.9,0-3.5-1.6-3.5-3.6c0-1.9,1.6-3.5,3.5-3.5C16.8,11.3,18.4,13,18.4,14.9z"/>
</svg>
