<?xml version="1.0" encoding="utf-8"?>
<!-- Generator: Adobe Illustrator 19.2.0, SVG Export Plug-In . SVG Version: 6.00 Build 0)  -->
<svg version="1.1"
	 id="Layer_1" xmlns:cc="http://creativecommons.org/ns#" xmlns:dc="http://purl.org/dc/elements/1.1/" xmlns:inkscape="http://www.inkscape.org/namespaces/inkscape" xmlns:rdf="http://www.w3.org/1999/02/22-rdf-syntax-ns#" xmlns:sodipodi="http://sodipodi.sourceforge.net/DTD/sodipodi-0.dtd" xmlns:svg="http://www.w3.org/2000/svg"
	 xmlns="http://www.w3.org/2000/svg" xmlns:xlink="http://www.w3.org/1999/xlink" x="0px" y="0px" viewBox="0 0 53.7 60.4"
	 style="enable-background:new 0 0 53.7 60.4;" xml:space="preserve">
<g>
	<path d="M52.1,8.7H39.5v-2c0-3.7-3-6.6-6.6-6.6h-12c-3.7,0-6.6,3-6.6,6.6v2H1.7C0.7,8.7,0,9.4,0,10.4C0,11.3,0.7,12,1.7,12h3v39.4
		c0,4.9,4,9,9,9h26.4c4.9,0,9-4,9-9V12h3c0.9,0,1.7-0.7,1.7-1.7C53.7,9.4,53,8.7,52.1,8.7L52.1,8.7z M17.6,6.6
		c0-1.8,1.5-3.3,3.3-3.3h12c1.8,0,3.3,1.5,3.3,3.3v2H17.6V6.6z M45.7,51.5c0,3.1-2.5,5.6-5.6,5.6H13.7c-3.1,0-5.6-2.5-5.6-5.6V12
		h37.6L45.7,51.5L45.7,51.5z M45.7,51.5"/>
	<path d="M26.9,51.1c0.9,0,1.7-0.7,1.7-1.7V19.7c0-0.9-0.7-1.7-1.7-1.7c-0.9,0-1.7,0.7-1.7,1.7v29.6C25.2,50.3,25.9,51.1,26.9,51.1
		L26.9,51.1z M26.9,51.1"/>
	<path d="M15.9,49.2c0.9,0,1.7-0.7,1.7-1.7V21.6c0-0.9-0.7-1.7-1.7-1.7s-1.7,0.7-1.7,1.7v25.9C14.2,48.5,15,49.2,15.9,49.2
		L15.9,49.2z M15.9,49.2"/>
	<path d="M37.8,49.2c0.9,0,1.7-0.7,1.7-1.7V21.6c0-0.9-0.7-1.7-1.7-1.7c-0.9,0-1.7,0.7-1.7,1.7v25.9C36.1,48.5,36.9,49.2,37.8,49.2
		L37.8,49.2z M37.8,49.2"/>
</g>
</svg>
