<?xml version="1.0" encoding="utf-8"?>
<!-- Generator: Adobe Illustrator 19.2.0, SVG Export Plug-In . SVG Version: 6.00 Build 0)  -->
<svg version="1.1" id="Capa_1" xmlns="http://www.w3.org/2000/svg" xmlns:xlink="http://www.w3.org/1999/xlink" x="0px" y="0px"
	 viewBox="0 0 85 61" style="enable-background:new 0 0 85 61;" xml:space="preserve">
<style type="text/css">
	.st0{fill:#3178BA;}
	.st1{opacity:0.2;fill:#3178BA;enable-background:new    ;}
</style>
<g>
	<path class="st0" d="M85,33.1c0-0.5-0.2-1.2-0.5-1.6c-3.3-5-6.7-10.1-10-15.1c-1-1.5-2.4-2.2-4.2-2.2c-3,0-6,0-9.1,0
		c-0.4,0-0.7,0-0.6-0.6c0.4-2.7,0.6-5.3,0.9-8c0.1-0.8,0.1-1.7-0.1-2.5C60.9,1,59.3,0,56.9,0H15.7c-1.8,0-3.6,0-5.4,0.1
		C8.4,0.2,7,1.4,6.6,3.3C6.4,4.5,6.3,5.7,6.1,6.9c0,0.9,0.5,1.6,1.3,1.6C8.2,8.6,8.8,8,9,7.1c0.1-0.8,0.2-1.5,0.3-2.3
		c0.1-1.6,0.8-1.9,2.2-1.9h45.9c1,0,1.4,0.6,1.4,1.6c0,0.6-0.1,1.2-0.2,1.7c-0.5,4.7-1,9.5-1.6,14.2c-0.5,4.7-1.1,9.5-1.6,14.2
		c-0.6,4.9-1.1,9.8-1.6,14.7c-0.2,1.6-0.6,1.9-2.2,1.9c-7.9,0-15.9,0-23.9,0c-0.8,0-1.1-0.3-1.2-1c-1.4-5.4-8.3-7.9-12.8-4.7
		c-1.8,1.2-3,2.8-3.5,4.9C10.1,50.6,9.8,51,9.7,51c-1.4,0.1-2.7,0.1-4.1,0c-0.9-0.1-1.3-0.6-1.3-1.5c0-0.6,0.1-1.3,0.2-1.9
		c0.4-3.8,0.8-7.6,1.2-11.4c0.2-2,0.5-4.1,0.7-6.2c0.1-0.8-0.5-1.6-1.3-1.6c-0.7-0.1-1.4,0.4-1.5,1.2c-0.1,0.8-0.2,1.6-0.3,2.5
		C2.9,35.9,2.4,39.7,2,43.5c-0.2,2-0.5,4-0.6,6.1c-0.1,2.2,1.4,3.9,3.5,4.2c1.3,0.2,2.7,0.2,4,0.1c0.8,0,1.2,0.2,1.4,1
		c0.4,1.8,1.5,3.2,2.9,4.2c5,3.7,11.7,1.4,13.4-4.6c0.2-0.5,0.3-0.6,0.8-0.6H59c0.5,0,0.7,0.2,0.8,0.6c0.4,1.9,1.5,3.5,3,4.6
		c5,3.7,11.7,1.4,13.4-4.7c0.1-0.4,0.3-0.6,0.8-0.6c1.2,0,2.3,0,3.5,0c2.8,0,4.5-1.8,4.5-4.6C85,43.9,85,38.5,85,33.1z M18.4,58.1
		c-3.1,0-5.6-2.5-5.6-5.6s2.5-5.7,5.6-5.7c3,0,5.7,2.6,5.7,5.6C24.1,55.5,21.5,58,18.4,58.1z M66,17c0.8,0,1.5,0,2.2,0s1.5,0,2.2,0
		s1.2,0.2,1.6,0.8c3.3,4.9,6.7,9.9,9.9,14.9c0.4,0.5,0.2,1.4,0.2,2.2c0,0-0.5,0.2-0.7,0.2c-1.7-0.2-3.4-0.5-5-0.7
		c-3.3-0.5-6.7-1-10-1.4c-1.2-0.2-1.2-0.1-1.2-1.3c0-4.6,0-9.2,0-13.8C65.2,17.2,65.3,17,66,17z M68,58.1c-3.1,0-5.6-2.5-5.7-5.6
		c0-3.1,2.5-5.7,5.6-5.7c3,0,5.6,2.5,5.7,5.6C73.7,55.5,71.2,58,68,58.1z M82.2,49.1c0,1.4-0.5,2-1.9,2c-1.1,0-2.1,0-3.2,0
		c-0.5,0-0.8-0.2-0.9-0.6c-1.1-3.9-3.9-6.2-7.9-6.5c-3.6-0.2-7.5,2.4-8.4,6c-0.2,0.9-0.6,1.3-1.5,1.2c-0.6-0.1-1.3-0.1-2-0.2
		c0.1-0.6,0.2-1.2,0.2-1.9c0.5-4.2,0.9-8.5,1.4-12.7c0.5-4.7,1.1-9.4,1.6-14.2c0.2-1.5,0.4-3,0.5-4.5c0-0.5,0.2-0.7,0.7-0.6
		c0.2,0,0.4,0,0.6,0c0.6-0.1,0.8,0.2,0.8,0.7c0,2.7,0,5.3,0,8v7.7c0,1.5,0.3,1.9,1.8,2.1c5.8,0.8,11.5,1.6,17.3,2.5
		c0.6,0.1,0.8,0.3,0.8,0.9C82.2,42.3,82.2,45.7,82.2,49.1z"/>
	<path class="st1" d="M82.1,34.9c0,0-0.5,0.2-0.7,0.2c-1.7-0.2-3.4-0.5-5-0.7c-3.3-0.5-6.7-1-10-1.4c-1.2-0.2-1.2-0.1-1.2-1.3
		c0-4.6,0-9.2,0-13.8c0-0.6,0.2-0.9,0.8-0.8c0.8,0,1.5,0,2.2,0s1.5,0,2.2,0s1.2,0.2,1.6,0.8c3.3,4.9,6.7,9.9,9.9,14.9
		C82.3,33.3,82.1,34.2,82.1,34.9z"/>
	<path class="st0" d="M13.4,12.8c-3.8,0-7.6,0-11.4,0c-1.4,0-2.1-0.5-2.1-1.4S0.6,10,2,10c7.6,0,15.3,0,22.9,0c0.3,0,0.7,0,1,0.1
		c0.7,0.2,1,0.7,0.9,1.5c-0.1,0.7-0.5,1.1-1.2,1.2c-0.3,0-0.6,0-0.8,0C21.1,12.8,17.3,12.8,13.4,12.8L13.4,12.8z"/>
	<path class="st0" d="M11.3,24.1c3.2,0,6.4,0,9.6,0c1.1,0,1.6,0.5,1.7,1.3c0,0.7-0.3,1.2-1,1.4c-0.3,0.1-0.7,0.1-1.1,0.1
		c-6.2,0-12.3,0-18.5,0c-0.1,0-0.2,0-0.3,0c-1.1,0-1.8-0.6-1.8-1.5S0.5,24,1.7,24C5,24.1,8.2,24.1,11.3,24.1z"/>
	<path class="st0" d="M7.1,17c1.8,0,3.5,0,5.3,0c1.1,0,1.7,0.5,1.7,1.4s-0.6,1.4-1.7,1.4c-3.6,0-7.1,0-10.7,0
		c-1.1,0-1.8-0.6-1.7-1.4C0,17.6,0.7,17,1.7,17C3.5,17,5.3,17,7.1,17L7.1,17z"/>
</g>
</svg>
