<?xml version="1.0" encoding="utf-8"?>
<!-- Generator: Adobe Illustrator 19.2.0, SVG Export Plug-In . SVG Version: 6.00 Build 0)  -->
<svg version="1.1" id="Layer_1" xmlns="http://www.w3.org/2000/svg" xmlns:xlink="http://www.w3.org/1999/xlink" x="0px" y="0px"
	 viewBox="0 0 136 136" style="enable-background:new 0 0 136 136;" xml:space="preserve">
<style type="text/css">
	.st0{fill:#FFFFFF;}
	.st1{fill:#112C37;}
	.st2{fill:#231F20;}
</style>
<g>
	<circle class="st0" cx="68" cy="68" r="67.5"/>
	<path class="st1" d="M68,136c-37.5,0-68-30.5-68-68C0,30.5,30.5,0,68,0s68,30.5,68,68C136,105.5,105.5,136,68,136z M68,1
		C31.1,1,1,31.1,1,68s30.1,67,67,67s67-30.1,67-67S104.9,1,68,1z"/>
</g>
<path class="st2" d="M90,87.8H53.6c-1.5,0-2.8-1-3.3-2.4L39,52.8H24.5v-7h17c1.5,0,2.8,0.5,3.3,1.9l11.3,32.1h31.4l9.7-27H81.5v-7
	h20.6c1.1,0,2.2,0.5,2.8,1.4c0.7,0.9,0.8,2.1,0.5,3.1l-12.1,35C92.8,86.8,91.4,87.8,90,87.8z"/>
<circle class="st2" cx="57" cy="102.4" r="6.1"/>
<circle class="st2" cx="87.5" cy="102.4" r="6.1"/>
<g>
	
		<rect x="55.8" y="39.5" transform="matrix(6.389646e-03 -1 1 6.389646e-03 23.6854 111.3976)" class="st2" width="24.1" height="8.5"/>
	<g>
		<polygon class="st2" points="59.3,53.3 67.7,68.1 76.3,53.4 		"/>
	</g>
</g>
</svg>
