<?xml version="1.0" encoding="utf-8"?>
<!-- Generator: Adobe Illustrator 19.2.0, SVG Export Plug-In . SVG Version: 6.00 Build 0)  -->
<svg version="1.1" id="Capa_1" xmlns="http://www.w3.org/2000/svg" xmlns:xlink="http://www.w3.org/1999/xlink" x="0px" y="0px"
	 viewBox="0 0 113.4 71" style="enable-background:new 0 0 113.4 71;" xml:space="preserve">
<style type="text/css">
	.st0{opacity:0.2;fill:#3178BA;enable-background:new    ;}
	.st1{fill:#3178BA;}
</style>
<path class="st0" d="M19.5,66h0.1H19.5z"/>
<path class="st0" d="M13.1,39.1c0-0.1,0.1-0.2,0.1-0.3c-0.1,0-0.1,0.1-0.2,0.1L13.1,39.1z"/>
<path class="st0" d="M21.3,25C21.3,25,21.3,25.1,21.3,25l0.3-0.1L21.3,25z"/>
<g>
	<g>
		<path class="st0" d="M65.7,2.5L56.5,7l0.6,0.9c1.4,1.9,3.3,3.3,5.5,4l0.3,0.1l6.5-1.7L65.7,2.5z"/>
		<path class="st0" d="M10.4,39.1l0.2-0.4l-2.2-8.5l-6,2.9L7,42.3l0.9-0.6C8.8,41,9.7,40.1,10.4,39.1z"/>
		<path class="st0" d="M10,41.6c-0.6,0.6-1.2,1-1.8,1.4l-0.7,0.4l5.3,10.8l1.7-0.6l-3.4-13.2L10,41.6z"/>
		<path class="st0" d="M55.8,8.2l-0.4-0.7L35.7,17l0.6,1.7l24.1-6.2l-1.6-1.2C57.6,10.5,56.6,9.5,55.8,8.2z"/>
	</g>
</g>
<path class="st1" d="M45.2,42.8l-0.7-2.7l-1.9-7.4c-0.2-0.8-1-1.2-1.8-1l-0.6,0.1l-1.5,0.4c-0.8,0.2-1.3,1-1.1,1.7
	c0.2,0.8,1,1.2,1.8,1.1l0.7-0.2l2.2,8.7c0.1,0.3,0.3,0.5,0.6,0.7c0.3,0.3,0.8,0.4,1.2,0.3c0.7-0.2,1.1-0.8,1.1-1.4
	C45.2,43,45.2,42.9,45.2,42.8z"/>
<path class="st1" d="M57.9,39.6l-0.6-2.3l-2-7.8c-0.2-0.8-1-1.2-1.8-1l-3.8,1L47,30.2c-0.1,0-0.1,0.1-0.2,0.1
	c-0.7,0.3-1.1,1-0.9,1.7l1.2,4.8l0.7,2.8l0.5,2l0.1,0.4c0.2,0.8,1,1.2,1.8,1l3.8-1l2.7-0.7c0.5-0.1,0.9-0.6,1.1-1.1
	C57.9,40,57.9,39.8,57.9,39.6z M53.1,39.3L51,39.8l-0.4-1.6l-1.5-5.7l1.8-0.5l1.8-0.5l1.8,7l0.1,0.3L53.1,39.3z"/>
<path class="st0" d="M77.5,47.8l0.6-0.2h-0.6C77.5,47.7,77.5,47.7,77.5,47.8z"/>
<path class="st1" d="M108.5,36.3H86.3L79.2,8.5c-0.2-0.9-1.1-1.4-2-1.2l-5.9,1.5l-3.9-8C67,0,66-0.3,65.3,0.1L20.5,21.9L7.9,25.1
	c-0.9,0.2-1.4,1.1-1.2,2L7,28.4l-6.2,3c-0.8,0.4-1.1,1.3-0.7,2.1l17.1,35.3c0.4,0.8,1.3,1.1,2.1,0.7l15.8-7.7L65,54.3v11.8
	c0,2.7,2.2,4.9,4.9,4.9h38.8c2.7,0,4.9-2.2,4.8-4.8v-25C113.4,38.5,111.2,36.3,108.5,36.3z M72.7,11.8l3.7-1l2,7.9
	c-0.8,0.1-1.6,0-2.4-0.1c-1.7-0.3-3.2-0.9-4.5-2c-0.9-0.7-1.6-1.5-2.2-2.4c-0.3-0.4-0.5-0.9-0.7-1.4L72.7,11.8z M65.3,3.8l2.9,5.9
	L62.9,11c-2-0.6-3.8-1.9-5.1-3.7L65.3,3.8z M55,8.7c0.9,1.4,2,2.5,3.3,3.5l-22.2,5.7L55,8.7z M18.2,25.8c0,0.3,0,0.5,0,0.8
	c0,3-1.3,5.8-3.6,7.7c-0.7,0.6-1.5,1.1-2.3,1.4l-0.8-3.2l-0.6-2.4l-0.6-2.3L18.2,25.8z M7.3,40.9l-3.6-7.3l4.1-2l1.8,6.9
	C9,39.5,8.3,40.3,7.3,40.9z M8.7,43.9c0.7-0.5,1.3-1,1.9-1.5l3,11.6L8.7,43.9z M19.5,66L19.5,66L19.5,66L19.5,66z M25.6,61.1
	l-6.4,1.6l-1.1-4.4l-0.8-3.1l-0.1-0.3c1.3-0.1,2.5,0,3.7,0.4c2.7,0.8,5.1,2.8,6.3,5.5L25.6,61.1z M64.2,41.6l-19.4,5l-9.1,2.3
	c-0.2-0.3-0.4-0.6-0.6-0.8c-1.2-1.5-2.9-2.4-4.9-2.4l-2.1-8.1c2-1.1,3.2-3.2,3.2-5.5l8-2.1l9.4-2.4L58.9,25l1-0.3
	c0.7,1.4,2,2.4,3.4,2.9c0.6,0.2,1.3,0.4,2,0.4l2.1,8.1C65.5,37.1,64.2,39.3,64.2,41.6z M66.1,24.9c-1.7,0.4-3.5-0.6-3.9-2.3
	c-0.2-0.8-1-1.2-1.7-1l0,0l-4.6,1.2l-18,4.6l-8.4,2.1c-0.8,0.2-1.3,1-1.1,1.7c0.1,0.2,0,0.4,0,0.7c0.1,1.5-0.9,2.9-2.3,3.2
	c-0.3,0.1-0.6,0.3-0.8,0.6c-0.2,0.3-0.4,0.7-0.3,1.2c0,0,0,0,0,0.1l2.6,10l0.2,0.6c0.2,0.8,1,1.2,1.8,1c1.7-0.4,3.5,0.6,3.9,2.3
	c0.1,0.3,0.3,0.6,0.6,0.8s0.7,0.3,1.2,0.2l27.9-7.2l1.8-0.5v3.2V51l-15.2,3.9l-15.6,4l-3.8,1c-2.2-5.6-7.9-9-13.9-8.2l-3.2-12.6
	v-0.2c0.1,0,0.1-0.1,0.2-0.1c5.5-2.2,8.8-7.9,8.1-13.7c0,0,0,0,0-0.1l0.3-0.1L63,14.3l2.4-0.6c0.1,0.4,0.3,0.7,0.5,1
	c1.6,3.3,4.5,5.6,7.9,6.7c1.2,0.4,2.5,0.6,3.9,0.6c0.5,0,1.1,0,1.6-0.1l1.9,7.3l1.4,5.5c-0.7,0.3-1.3,0.6-1.9,0.9
	c-0.4,0.2-0.7,0.5-1,0.7h-6.4h-2.8L70.2,35l-2.4-9C67.7,25.2,66.9,24.7,66.1,24.9z M110.1,66.2c0,0.9-0.8,1.6-1.6,1.6H69.8
	c-0.9,0-1.6-0.8-1.6-1.6V53.5v-3.3v-2.5h6.1h3.2h0.6h10.7h21.3C110.1,47.7,110.1,66.2,110.1,66.2z M110.1,44.6H88.5h-3.3h-7.4h-3.2
	H71h-2.7v-2.3v-1.1c0-0.9,0.8-1.6,1.6-1.6h0.5h3.3H74h2.6h4.2h0.6H84h3.3h21.3c0.9,0,1.6,0.8,1.6,1.6v3.4H110.1z"/>
<path class="st1" d="M102.9,61c-0.8,0-1.5,0.4-2,1c-0.5-0.6-1.1-1-2-1c-1.4,0-2.5,1.1-2.5,2.5s1.1,2.5,2.5,2.5c0.8,0,1.5-0.4,2-1
	c0.5,0.6,1.1,1,2,1c1.4,0,2.5-1.1,2.5-2.5S104.2,61,102.9,61z"/>
</svg>
