<?xml version="1.0" encoding="utf-8"?>
<!-- Generator: Adobe Illustrator 21.0.0, SVG Export Plug-In . SVG Version: 6.00 Build 0)  -->
<svg version="1.1" id="Capa_1" xmlns="http://www.w3.org/2000/svg" xmlns:xlink="http://www.w3.org/1999/xlink" x="0px" y="0px"
	 viewBox="166.7 368.7 80.7 56.7" style="enable-background:new 166.7 368.7 80.7 56.7;" xml:space="preserve">
<style type="text/css">
	.st0{fill:#3279BA;}
</style>
<g>
	<g>
		<path class="st0" d="M169.5,406.4v-34.3c0-1.9,1.5-3.5,3.5-3.5h34.3c1.9,0,3.5,1.5,3.5,3.5v34.3c0,0.6-0.5,1.2-1.2,1.2h-38.9
			C170,407.6,169.5,407.1,169.5,406.4L169.5,406.4z M197.2,418.2c0,4-3.2,7.2-7.2,7.2c-4,0-7.2-3.2-7.2-7.2s3.2-7.2,7.2-7.2
			C194,411,197.2,414.2,197.2,418.2L197.2,418.2z M193.6,418.2c0-2-1.6-3.6-3.6-3.6c-2,0-3.6,1.6-3.6,3.6s1.6,3.6,3.6,3.6
			C192,421.8,193.6,420.2,193.6,418.2L193.6,418.2z M183.9,411h-16c-0.6,0-1.2,0.5-1.2,1.2v3.5c0,0.6,0.5,1.2,1.2,1.2h12.9
			C181,414.5,182.2,412.5,183.9,411L183.9,411z M234.7,418.2c0,4-3.2,7.2-7.2,7.2c-4,0-7.2-3.2-7.2-7.2s3.2-7.2,7.2-7.2
			C231.5,411,234.7,414.2,234.7,418.2L234.7,418.2z M231.1,418.2c0-2-1.6-3.6-3.6-3.6c-2,0-3.6,1.6-3.6,3.6s1.6,3.6,3.6,3.6
			C229.5,421.8,231.1,420.2,231.1,418.2L231.1,418.2z M247.3,412.2v3.5c0,0.6-0.5,1.2-1.2,1.2h-9.3c-0.7-4.6-4.6-8.1-9.4-8.1
			c-4.8,0-8.7,3.5-9.4,8.1h-18.8c-0.3-2.3-1.5-4.3-3.2-5.8H214v-32.9c0-1.3,1-2.3,2.3-2.3h10.9c3.1,0,5.9,1.5,7.6,4.1l7,10.4
			c1,1.5,1.6,3.3,1.6,5.2V411h2.8C246.8,411,247.3,411.5,247.3,412.2L247.3,412.2z M235.7,390.5l-5.6-8c-0.2-0.3-0.6-0.5-0.9-0.5
			h-8.7c-0.6,0-1.2,0.5-1.2,1.2v8c0,0.6,0.5,1.2,1.2,1.2h14.3C235.6,392.3,236.2,391.3,235.7,390.5L235.7,390.5z M235.7,390.5"/>
	</g>
</g>
</svg>
