<?xml version="1.0" encoding="utf-8"?>
<!-- Generator: Adobe Illustrator 19.2.0, SVG Export Plug-In . SVG Version: 6.00 Build 0)  -->
<svg version="1.1"
	 id="Layer_1" xmlns:cc="http://creativecommons.org/ns#" xmlns:dc="http://purl.org/dc/elements/1.1/" xmlns:inkscape="http://www.inkscape.org/namespaces/inkscape" xmlns:rdf="http://www.w3.org/1999/02/22-rdf-syntax-ns#" xmlns:sodipodi="http://sodipodi.sourceforge.net/DTD/sodipodi-0.dtd" xmlns:svg="http://www.w3.org/2000/svg"
	 xmlns="http://www.w3.org/2000/svg" xmlns:xlink="http://www.w3.org/1999/xlink" x="0px" y="0px" viewBox="0 0 45.7 56.7"
	 style="enable-background:new 0 0 45.7 56.7;" xml:space="preserve">
<style type="text/css">
	.st0{opacity:0.2;fill:#3178BA;enable-background:new    ;}
	.st1{fill:#3178BA;}
</style>
<g>
	<polygon class="st0" points="31.2,0.7 31.2,14.9 45.1,14.9 	"/>
	<path class="st1" d="M23.5,21.6c-0.2-0.2-0.4-0.3-0.6-0.3c0,0,0,0-0.1,0c-0.5,0-0.8,0.4-0.8,0.9v19.2c0,0.5,0.4,0.8,0.9,0.8
		c0.4,0,0.8-0.4,0.8-0.8V22.2C23.7,21.9,23.6,21.7,23.5,21.6z"/>
	<path class="st1" d="M30.8,28.9l-7.3-7.3l0,0c-0.2-0.2-0.4-0.2-0.6-0.2c0,0,0,0-0.1,0c-0.2,0-0.4,0.1-0.6,0.2L14.9,29
		c-0.3,0.3-0.3,0.9,0,1.2c0.3,0.3,0.9,0.3,1.2,0l5.9-5.9l0.9-0.9l6.7,6.7c0.2,0.2,0.4,0.2,0.6,0.2s0.4-0.1,0.6-0.2
		C31.1,29.8,31.1,29.2,30.8,28.9z"/>
	<path class="st1" d="M45.7,14.5c0-0.1-0.1-0.2-0.2-0.2c0,0,0-0.1-0.1-0.1c-0.1-0.1-0.3-0.2-0.5-0.2c-0.5,0-0.9,0.4-0.9,0.9v37.6
		c0,1.4-1.1,2.6-2.5,2.6H4.3c-1.4,0-2.5-1.2-2.5-2.6V4.3c0-1.4,1.2-2.5,2.5-2.5h27c0.4,0,0.8-0.3,0.8-0.7c0-0.1,0-0.1,0-0.2
		s0-0.2-0.1-0.3V0.5l-0.2-0.2c-0.1-0.1-0.2-0.2-0.3-0.2C31.5,0,31.4,0,31.3,0h-27C1.9,0,0,1.9,0,4.3v48.2c0,2.3,1.9,4.3,4.3,4.3
		h37.2c2.3,0,4.3-1.9,4.3-4.3V14.9c0,0,0,0,0-0.1C45.7,14.7,45.7,14.6,45.7,14.5z"/>
	<path class="st1" d="M45.7,14.5c0-0.1-0.1-0.2-0.2-0.2l-0.1-0.1c-0.1-0.1-0.3-0.2-0.5-0.2H32.2V1.2c0-0.1,0-0.1,0-0.2
		c-0.1-0.4-0.4-0.7-0.8-0.7S30.6,0.6,30.6,1v0.1c0,0,0,0,0,0.1v13.6c0,0.4,0.4,0.8,0.8,0.8H45c0.2,0,0.4-0.1,0.6-0.2
		c0.2-0.2,0.2-0.4,0.2-0.6v-0.2C45.7,14.6,45.7,14.5,45.7,14.5z"/>
	<path class="st0" d="M31.4,14.8v-14H4.3c-1.9,0-3.5,1.6-3.5,3.5v48.2c0,1.9,1.6,3.5,3.5,3.5h37.2c2,0,3.5-1.5,3.5-3.5V14.8H31.4z"
		/>
	<path class="st1" d="M45.7,14.5c0-0.1-0.1-0.2-0.2-0.2l-0.1-0.1L32.1,0.5l-0.2-0.2c-0.1-0.1-0.2-0.2-0.3-0.2C31.5,0,31.4,0,31.3,0
		c-0.2,0-0.4,0.1-0.6,0.2c-0.2,0.2-0.3,0.6-0.2,0.8v0.1c0.1,0.1,0.1,0.2,0.2,0.3L31,1.7l1.2,1.2l10.7,11l1.2,1.2l0.2,0.2
		c0.2,0.2,0.4,0.3,0.6,0.3c0.2,0,0.4-0.1,0.6-0.2c0.2-0.2,0.2-0.4,0.2-0.6V14.5C45.7,14.6,45.7,14.5,45.7,14.5z"/>
</g>
</svg>
