<?xml version="1.0" encoding="utf-8"?>
<!-- Generator: Adobe Illustrator 19.2.0, SVG Export Plug-In . SVG Version: 6.00 Build 0)  -->
<svg version="1.1" id="Layer_1" xmlns="http://www.w3.org/2000/svg" xmlns:xlink="http://www.w3.org/1999/xlink" x="0px" y="0px"
	 viewBox="0 0 99 99" style="enable-background:new 0 0 99 99;" xml:space="preserve">
<style type="text/css">
	.st0{fill:#CAA465;}
	.st1{fill-rule:evenodd;clip-rule:evenodd;fill:#CAA465;}
</style>
<g>
	<path class="st0" d="M49,0.5c13.7,0,26,5.5,35,14.5c9,9,14.5,21.3,14.5,35c0,13.7-5.5,26-14.5,35c-9,9-21.3,14.5-35,14.5
		C35.3,99.5,23,94,14,85c-9-9-14.5-21.3-14.5-35c0-13.7,5.5-26,14.5-35C23,6,35.3,0.5,49,0.5L49,0.5z M81.3,17.7
		C73.1,9.5,61.6,4.3,49,4.3c-12.6,0-24,5.1-32.3,13.4C8.5,26,3.4,37.4,3.4,50c0,12.6,5.1,24,13.4,32.3C25,90.5,36.4,95.6,49,95.6
		c12.6,0,24-5.1,32.3-13.4C89.6,74,94.7,62.6,94.7,50C94.7,37.4,89.6,26,81.3,17.7L81.3,17.7z"/>
	<path class="st1" d="M52.9,39.6v-3.8c0-1.9,1.2-2.2,2.2-2.2c0.9,0,5.8,0,5.8,0v-9h-8c-8.7,0-11,6.6-11,10.7v4.3h-5V46v3.6h5
		c0,12,0,26,0,26h11c0,0,0-14,0-26h7l0.3-3.9l0.6-6.1H52.9z"/>
</g>
</svg>
