<?xml version="1.0" encoding="utf-8"?>
<!-- Generator: Adobe Illustrator 19.2.0, SVG Export Plug-In . SVG Version: 6.00 Build 0)  -->
<svg version="1.1" id="Layer_1" xmlns="http://www.w3.org/2000/svg" xmlns:xlink="http://www.w3.org/1999/xlink" x="0px" y="0px"
	 viewBox="0 0 24.2 13.1" style="enable-background:new 0 0 24.2 13.1;" xml:space="preserve">
<style type="text/css">
	.st0{fill:#1D1D1B;}
</style>
<path class="st0" d="M18.4,3.2H1.2C0.5,3.2,0,2.7,0,2.1v0c0-0.6,0.5-1.2,1.2-1.2h17.3c0.6,0,1.2,0.5,1.2,1.2v0
	C19.6,2.7,19.1,3.2,18.4,3.2z"/>
<path class="st0" d="M18.4,7.7H5.2c-0.6,0-1.2-0.5-1.2-1.2v0c0-0.6,0.5-1.2,1.2-1.2h13.2c0.6,0,1.2,0.5,1.2,1.2v0
	C19.6,7.2,19.1,7.7,18.4,7.7z"/>
<path class="st0" d="M18.4,12.2H10c-0.6,0-1.2-0.5-1.2-1.2v0c0-0.6,0.5-1.2,1.2-1.2h8.5c0.6,0,1.2,0.5,1.2,1.2v0
	C19.6,11.6,19.1,12.2,18.4,12.2z"/>
<g>
	<rect x="22.2" y="2.2" class="st0" width="1" height="8.8"/>
	<g>
		<polygon class="st0" points="24.2,10.5 22.7,13.1 21.3,10.5 		"/>
	</g>
	<g>
		<polygon class="st0" points="24.2,2.6 22.7,0 21.3,2.6 		"/>
	</g>
</g>
</svg>
