<?xml version="1.0" encoding="utf-8"?>
<!-- Generator: Adobe Illustrator 19.2.0, SVG Export Plug-In . SVG Version: 6.00 Build 0)  -->
<svg version="1.1" id="Слой_1" xmlns="http://www.w3.org/2000/svg" xmlns:xlink="http://www.w3.org/1999/xlink" x="0px" y="0px"
	 viewBox="0 0 24 18" style="enable-background:new 0 0 24 18;" xml:space="preserve">
<style type="text/css">
	.st0{fill:#1D1D1B;}
</style>
<g>
	<path class="st0" d="M0.8,3.8h6.7C7.8,5.1,8.9,6,10.3,6s2.6-1,2.9-2.3h10C23.7,3.8,24,3.4,24,3s-0.3-0.8-0.8-0.8h-10
		C12.9,1,11.7,0,10.3,0S7.8,1,7.4,2.3H0.8C0.3,2.3,0,2.6,0,3S0.3,3.8,0.8,3.8z M10.3,1.5c0.8,0,1.5,0.7,1.5,1.5s-0.7,1.5-1.5,1.5
		S8.8,3.8,8.8,3S9.5,1.5,10.3,1.5z"/>
	<path class="st0" d="M23.2,8.3h-1.6C21.3,7,20.1,6,18.7,6s-2.6,1-2.9,2.3H0.8C0.3,8.3,0,8.6,0,9s0.3,0.8,0.8,0.8h15.1
		c0.3,1.3,1.5,2.3,2.9,2.3s2.6-1,2.9-2.3h1.6C23.7,9.8,24,9.4,24,9S23.7,8.3,23.2,8.3z M18.7,10.5c-0.8,0-1.5-0.7-1.5-1.5
		s0.7-1.5,1.5-1.5s1.5,0.7,1.5,1.5S19.6,10.5,18.7,10.5z"/>
	<path class="st0" d="M23.2,14.3H8.7C8.4,13,7.2,12,5.8,12c-1.4,0-2.6,1-2.9,2.3H0.8C0.3,14.3,0,14.6,0,15s0.3,0.8,0.8,0.8h2.2
		C3.2,17.1,4.4,18,5.8,18c1.4,0,2.6-1,2.9-2.3h14.5c0.4,0,0.8-0.3,0.8-0.8S23.7,14.3,23.2,14.3z M5.8,16.5c-0.8,0-1.5-0.7-1.5-1.5
		s0.7-1.5,1.5-1.5c0.8,0,1.5,0.7,1.5,1.5S6.6,16.5,5.8,16.5z"/>
</g>
</svg>
