<?xml version="1.0" encoding="utf-8"?>
<!-- Generator: Adobe Illustrator 19.2.0, SVG Export Plug-In . SVG Version: 6.00 Build 0)  -->
<svg version="1.1"
	 id="Layer_1" xmlns:cc="http://creativecommons.org/ns#" xmlns:dc="http://purl.org/dc/elements/1.1/" xmlns:inkscape="http://www.inkscape.org/namespaces/inkscape" xmlns:rdf="http://www.w3.org/1999/02/22-rdf-syntax-ns#" xmlns:sodipodi="http://sodipodi.sourceforge.net/DTD/sodipodi-0.dtd" xmlns:svg="http://www.w3.org/2000/svg"
	 xmlns="http://www.w3.org/2000/svg" xmlns:xlink="http://www.w3.org/1999/xlink" x="0px" y="0px" viewBox="0 0 85 85"
	 style="enable-background:new 0 0 85 85;" xml:space="preserve">
<style type="text/css">
	.st0{opacity:0.2;fill:#3178BA;}
	.st1{fill:#3178BA;}
</style>
<path class="st0" d="M83,4.3c-0.1-0.7-0.5-1.3-1.1-1.8c-0.5-0.3-1-0.5-1.6-0.5H4.9C3.4,2,2.2,3.2,2.2,4.7c0,0.6,0.2,1.1,0.5,1.6
	l29.1,39.8v21.1c0,0.8,0.4,1.6,1,2.1l16.2,13c0.5,0.4,1.1,0.6,1.7,0.6c0.8,0,1.6-0.4,2.1-1c0.4-0.5,0.6-1.1,0.6-1.7v-34L82.5,6.3
	C82.9,5.8,83.1,5,83,4.3z"/>
<path class="st1" d="M50.7,85c-1.1,0-2.2-0.4-3-1L31.5,71c-1.2-0.9-1.8-2.3-1.8-3.8V46.8L1,7.6C0.4,6.7,0.1,5.8,0.1,4.7
	c0-2.7,2.2-4.8,4.8-4.8h75.4c1,0,2,0.3,2.8,0.9c1,0.8,1.7,1.9,1.9,3.1c0.2,1.3-0.1,2.5-0.9,3.6L55.5,46.8v33.3c0,1.1-0.4,2.2-1.1,3
	C53.5,84.3,52.2,85,50.7,85z M80.3,4.1H4.9c-0.3,0-0.6,0.3-0.6,0.6c0,0.1,0,0.3,0.1,0.4l29.5,40.4v21.8c0,0.2,0.1,0.4,0.2,0.5
	l16.2,12.9c0.3,0.2,0.7,0.2,0.9-0.1c0.1-0.1,0.1-0.3,0.1-0.4V45.5L80.8,5.1c0.1-0.1,0.1-0.3,0.1-0.5l0,0c0-0.2-0.1-0.3-0.2-0.4
	C80.6,4.2,80.4,4.1,80.3,4.1z"/>
</svg>
