<?xml version="1.0" encoding="utf-8"?>
<!-- Generator: Adobe Illustrator 19.2.0, SVG Export Plug-In . SVG Version: 6.00 Build 0)  -->
<svg version="1.1" id="Capa_1" xmlns="http://www.w3.org/2000/svg" xmlns:xlink="http://www.w3.org/1999/xlink" x="0px" y="0px"
	 viewBox="0 0 84.9 85.1" style="enable-background:new 0 0 84.9 85.1;" xml:space="preserve">
<style type="text/css">
	.st0{fill:#3178BA;}
	.st1{opacity:0.2;fill:#3178BA;enable-background:new    ;}
</style>
<g>
	<path class="st0" d="M56.7,46.8c-4.7,0-8.5,3.8-8.5,8.5c0,2.5,1.1,4.8,2.9,6.3c0.8,0.7,1.7,1.3,2.8,1.7c0.9,0.3,1.8,0.5,2.8,0.5
		s2-0.2,2.8-0.5c1.1-0.4,2-1,2.8-1.7c1.7-1.6,2.8-3.8,2.8-6.3C65.2,50.5,61.4,46.8,56.7,46.8z M56.7,60.9c-3.1,0-5.7-2.6-5.7-5.7
		s2.5-5.7,5.7-5.7c3.1,0,5.7,2.5,5.7,5.7C62.3,58.4,59.8,60.9,56.7,60.9z"/>
	<path class="st0" d="M62.3,60.9v8.5c0,0.5-0.3,1-0.7,1.3c-0.2,0.1-0.4,0.2-0.7,0.2s-0.6-0.1-0.8-0.3l-3.5-2.3l-3.5,2.3
		c-0.4,0.3-1,0.3-1.4,0.1C51.2,70.4,51,70,51,69.4v-8.5h2.8v5.8l2-1.3c0.5-0.3,1.1-0.3,1.6,0l2,1.3v-5.8L62.3,60.9L62.3,60.9z"/>
	<rect x="32.6" y="14.2" class="st0" width="18.4" height="2.8"/>
	<rect x="19.8" y="22.7" class="st0" width="45.3" height="2.8"/>
	<rect x="19.8" y="31.2" class="st0" width="31.2" height="2.8"/>
	<rect x="56.7" y="31.2" class="st0" width="8.5" height="2.8"/>
	<rect x="19.8" y="39.7" class="st0" width="45.3" height="2.8"/>
	<rect x="19.8" y="48.2" class="st0" width="17" height="2.9"/>
	<rect x="19.8" y="55.2" class="st0" width="7" height="2.9"/>
	<rect x="32.6" y="55.2" class="st0" width="4.3" height="2.9"/>
	<path class="st0" d="M77.9,0c-2.3,0-4.3,1.1-5.7,2.8c-0.1,0.2-0.3,0.3-0.3,0.5c-0.2,0.3-0.3,0.5-0.4,0.8c-0.2,0.3-0.3,0.6-0.4,1
		C71,5.3,71,5.6,70.9,5.8c-0.1,0.4-0.1,0.8-0.1,1.3v2.8c0,0.8,0.6,1.4,1.4,1.4h11.3c0.8,0,1.4-0.7,1.4-1.4V7.1C85,3.2,81.8,0,77.9,0
		z M82.2,8.5h-8.5V7.1c0-2.3,1.9-4.3,4.3-4.3c2.3,0,4.3,1.9,4.3,4.3v1.4H82.2z"/>
	<path class="st0" d="M79.3,1.4c0,0.8-0.6,1.4-1.4,1.4c-2.3,0-4.3,1.9-4.3,4.3V78c0,3.9-3.2,7.1-7.1,7.1H12.7v-2.8h53.8
		c2.3,0,4.3-1.9,4.3-4.3V7.1c0-0.4,0-0.8,0.1-1.3c0-0.3,0.1-0.5,0.2-0.7c0.1-0.3,0.2-0.7,0.4-1c0.1-0.3,0.2-0.5,0.4-0.8
		C72,3.1,72.1,3,72.2,2.8H18.3C16,2.8,14,4.7,14,7.1v68h-2.8v-68c0-3.9,3.2-7.1,7.1-7.1h59.5C78.7,0,79.3,0.6,79.3,1.4z"/>
	<path class="st0" d="M66.6,82.2c-2.3,0-4.3-1.9-4.3-4.3v-2.8c0-0.8-0.6-1.4-1.4-1.4H1.4c-0.8,0-1.4,0.7-1.4,1.4v2.8
		C0,81.8,3.2,85,7.1,85h59.5c0.8,0,1.4-0.7,1.4-1.4S67.4,82.2,66.6,82.2z M7.1,82.2c-2.3,0-4.3-1.9-4.3-4.3v-1.4h56.7v1.4
		c0,1.6,0.5,3,1.4,4.3L7.1,82.2L7.1,82.2z"/>
	<path class="st1" d="M60.9,82.2H7c-2.3,0-4.3-1.9-4.3-4.3v-1.4h56.8v1.4C59.5,79.5,60,81,60.9,82.2z"/>
	<path class="st1" d="M57.5,65.4c-0.5-0.3-1.1-0.3-1.6,0l-2,1.3L57.5,65.4z"/>
	<path class="st1" d="M62.3,55.2c0,3.1-2.5,5.7-5.7,5.7c-3.1,0-5.7-2.6-5.7-5.7s2.5-5.7,5.7-5.7C59.8,49.6,62.3,52.1,62.3,55.2z"/>
</g>
<path class="st1" d="M82.2,7.1v1.4h-8.5V7.1c0-2.3,1.9-4.3,4.3-4.3C80.3,2.8,82.2,4.7,82.2,7.1z"/>
<path class="st1" d="M53.8,66.8v-3.5c0.9,0.3,1.8,0.5,2.8,0.5s2-0.2,2.8-0.5v3.5l-2-1.3L53.8,66.8z"/>
</svg>
