<?xml version="1.0" encoding="utf-8"?>
<!-- Generator: Adobe Illustrator 19.2.0, SVG Export Plug-In . SVG Version: 6.00 Build 0)  -->
<svg version="1.1" id="Layer_1" xmlns="http://www.w3.org/2000/svg" xmlns:xlink="http://www.w3.org/1999/xlink" x="0px" y="0px"
	 viewBox="0 0 56.7 53.4" style="enable-background:new 0 0 56.7 53.4;" xml:space="preserve">
<style type="text/css">
	.st0{fill:#202020;}
</style>
<g id="Layer_4">
</g>
<path class="st0" d="M40.6,2.5c7.5,0,12.8,6.4,13.5,14c0,0,0.4,1.9-0.4,5.3c-1.1,4.6-3.7,8.7-7.1,11.9L28.2,50l-18-16.3
	c-3.5-3.1-6-7.2-7.1-11.9c-0.8-3.4-0.4-5.3-0.4-5.3c0.7-7.6,6-14,13.5-14c5.5,0,10,3.5,12.1,8.4C30.3,6,35,2.5,40.6,2.5 M40.6,0
	c-4.9,0-9.3,2.2-12.4,6c-2.9-3.8-7.3-6-12.1-6C7.7,0,1,6.8,0.1,16.2C0,16.8-0.2,19,0.6,22.4c1.2,5,3.9,9.6,7.9,13.2l18,16.3l1.7,1.5
	l1.7-1.5l18.3-16.3c4-3.6,6.7-8.2,7.9-13.2c0.8-3.4,0.6-5.6,0.5-6.2C55.7,6.8,49,0,40.6,0L40.6,0z"/>
</svg>
