<?xml version="1.0" encoding="utf-8"?>
<!-- Generator: Adobe Illustrator 19.2.0, SVG Export Plug-In . SVG Version: 6.00 Build 0)  -->
<svg version="1.1" id="Layer_1" xmlns="http://www.w3.org/2000/svg" xmlns:xlink="http://www.w3.org/1999/xlink" x="0px" y="0px"
	 viewBox="0 0 56.7 53.4" style="enable-background:new 0 0 56.7 53.4;" xml:space="preserve">
<style type="text/css">
	.st0{fill:#D75A4A;}
</style>
<path class="st0" d="M56.6,16.2C55.7,6.8,49,0,40.6,0c-4.9,0-9.3,2.2-12.4,6c-2.9-3.8-7.3-6-12.1-6C7.7,0,1,6.8,0.1,16.2
	C0,16.8-0.2,19,0.6,22.4c1.2,5,3.9,9.6,7.9,13.2l18,16.3l1.7,1.5l1.7-1.5l18.3-16.3c4-3.6,6.7-8.2,7.9-13.2
	C56.9,19,56.7,16.8,56.6,16.2z"/>
</svg>
