<?xml version="1.0" encoding="utf-8"?>
<!-- Generator: Adobe Illustrator 19.2.0, SVG Export Plug-In . SVG Version: 6.00 Build 0)  -->
<svg version="1.1" id="Layer_3" xmlns="http://www.w3.org/2000/svg" xmlns:xlink="http://www.w3.org/1999/xlink" x="0px" y="0px"
	 viewBox="0 0 56.7 56.7" style="enable-background:new 0 0 56.7 56.7;" xml:space="preserve">
<g>
	<path d="M28.3,0C12.7,0,0,12.7,0,28.3C0,44,12.7,56.7,28.3,56.7C44,56.7,56.7,44,56.7,28.3C56.7,12.7,44,0,28.3,0L28.3,0z
		 M34.2,43.9c-1.5,0.6-2.6,1-3.5,1.3c-0.9,0.3-1.9,0.5-3,0.5c-1.8,0-3.1-0.4-4.1-1.3c-1-0.9-1.5-2-1.5-3.3c0-0.5,0-1,0.1-1.6
		c0.1-0.5,0.2-1.1,0.4-1.8l1.8-6.5c0.2-0.6,0.3-1.2,0.4-1.7C24.9,29,25,28.5,25,28c0-0.8-0.2-1.4-0.5-1.7c-0.3-0.3-1-0.5-1.9-0.5
		c-0.5,0-1,0.1-1.5,0.2c-0.5,0.2-0.9,0.3-1.3,0.4l0.5-2c1.2-0.5,2.3-0.9,3.4-1.3c1.1-0.4,2.1-0.5,3.1-0.5c1.8,0,3.1,0.4,4.1,1.3
		c0.9,0.8,1.4,1.9,1.4,3.3c0,0.3,0,0.8-0.1,1.5c-0.1,0.7-0.2,1.4-0.4,1.9L30,37.1c-0.2,0.5-0.3,1.1-0.4,1.8
		c-0.1,0.7-0.2,1.2-0.2,1.5c0,0.9,0.2,1.4,0.6,1.7c0.4,0.3,1,0.5,2,0.5c0.4,0,0.9-0.1,1.5-0.2c0.6-0.2,1-0.3,1.2-0.4L34.2,43.9z
		 M33.9,17.8c-0.9,0.8-1.9,1.2-3.1,1.2c-1.2,0-2.2-0.4-3.1-1.2c-0.8-0.8-1.3-1.7-1.3-2.9c0-1.1,0.4-2.1,1.3-2.9
		c0.9-0.8,1.9-1.2,3.1-1.2c1.2,0,2.2,0.4,3.1,1.2c0.8,0.8,1.3,1.8,1.3,2.9C35.2,16.1,34.8,17,33.9,17.8L33.9,17.8z M33.9,17.8"/>
</g>
</svg>
