<?xml version="1.0" encoding="utf-8"?>
<!-- Generator: Adobe Illustrator 19.2.0, SVG Export Plug-In . SVG Version: 6.00 Build 0)  -->
<svg version="1.1" id="Layer_1" xmlns="http://www.w3.org/2000/svg" xmlns:xlink="http://www.w3.org/1999/xlink" x="0px" y="0px"
	 viewBox="0 0 99 99" style="enable-background:new 0 0 99 99;" xml:space="preserve">
<style type="text/css">
	.st0{fill:#CAA465;}
	.st1{fill-rule:evenodd;clip-rule:evenodd;fill:#CAA465;}
</style>
<g>
	<path class="st0" d="M49.5,0c13.7,0,26.1,5.5,35,14.5c9,9,14.5,21.3,14.5,35c0,13.7-5.5,26-14.5,35c-8.9,9-21.3,14.5-35,14.5
		c-13.7,0-26-5.5-35-14.5c-9-9-14.5-21.3-14.5-35c0-13.7,5.5-26,14.5-35C23.5,5.5,35.9,0,49.5,0L49.5,0z M81.8,17.2
		C73.5,9,62.1,3.9,49.5,3.9c-12.6,0-24,5.1-32.3,13.4C9,25.5,3.9,36.9,3.9,49.5c0,12.6,5.1,24,13.4,32.3
		c8.3,8.3,19.7,13.4,32.3,13.4c12.6,0,24-5.1,32.3-13.4c8.3-8.3,13.4-19.7,13.4-32.3C95.2,36.9,90.1,25.5,81.8,17.2L81.8,17.2z"/>
	<path class="st1" d="M36.9,49.5c0-7,5.7-12.7,12.7-12.7c7,0,12.7,5.7,12.7,12.7c0,7-5.7,12.7-12.7,12.7
		C42.5,62.2,36.9,56.5,36.9,49.5L36.9,49.5z M62.6,25.6H36.4c-6.4,0-12.6,4.4-12.6,10.9v26.2c0,6.4,6.1,11.9,12.6,11.9h26.2
		c6.5,0,11.3-5.5,11.3-11.9V36.4c0-6.5-4.9-10.9-11.4-10.9H62.6z M36.4,28.6h26.2c4.9,0,8.3,3,8.3,7.9v26.2c0,4.9-3.4,8.9-8.3,8.9
		H36.4c-4.9,0-9.6-4.1-9.6-8.9V36.4c0-4.9,4.6-7.9,9.5-7.9H36.4z M65.2,31.3c-1.4,0-2.6,1.2-2.6,2.6c0,1.4,1.2,2.6,2.6,2.6
		c1.4,0,2.6-1.2,2.6-2.6C67.8,32.5,66.7,31.3,65.2,31.3L65.2,31.3z M65.5,49.5c0-8.8-7.2-16-16-16c-8.8,0-16,7.2-16,16
		c0,8.9,7.2,16,16,16C58.4,65.5,65.5,58.4,65.5,49.5L65.5,49.5z"/>
</g>
</svg>
