<?xml version="1.0" encoding="utf-8"?>
<!-- Generator: Adobe Illustrator 19.2.0, SVG Export Plug-In . SVG Version: 6.00 Build 0)  -->
<svg version="1.1" id="Layer_1" xmlns="http://www.w3.org/2000/svg" xmlns:xlink="http://www.w3.org/1999/xlink" x="0px" y="0px"
	 viewBox="0 0 113 89" style="enable-background:new 0 0 113 89;" xml:space="preserve">
<style type="text/css">
	.st0{fill:#3178BA;}
</style>
<path class="st0" d="M101.8,34.7H11.2C6.1,34.7,2,38.9,2,44s4.1,10.3,9.2,10.3h90.6c5.1,0,9.2-5.2,9.2-10.3S106.9,34.7,101.8,34.7z
	 M11.2,21.6h90.6c5.1,0,9.2-5.2,9.2-10.3S106.9,2,101.8,2H11.2C6.1,2,2,6.2,2,11.3S6.1,21.6,11.2,21.6z M101.8,67.4H11.2
	c-5.1,0-9.2,4.2-9.2,9.3S6.1,87,11.2,87h90.6c5.1,0,9.2-5.2,9.2-10.3S106.9,67.4,101.8,67.4z"/>
</svg>
