<?xml version="1.0" encoding="utf-8"?>
<!-- Generator: Adobe Illustrator 19.2.0, SVG Export Plug-In . SVG Version: 6.00 Build 0)  -->
<svg version="1.1" id="Layer_3" xmlns="http://www.w3.org/2000/svg" xmlns:xlink="http://www.w3.org/1999/xlink" x="0px" y="0px"
	 viewBox="0 0 56.9 56.7" style="enable-background:new 0 0 56.9 56.7;" xml:space="preserve">
<style type="text/css">
	.st0{fill:#FFFFFF;}
</style>
<g>
	<path d="M28.5,56.7c-8.9,0-17.9,0-26.8,0c-0.3,0-0.5,0-0.8-0.1C0.3,56.4,0,56.1,0,55.5c0-0.1,0-0.2,0-0.3c0-10.3,0-20.7,0-31
		c0-0.7,0.3-1.1,0.9-1.4c1.3-0.7,8.5-4.9,9-5.2c0.2-0.1,0.3-0.2,0.3-0.4c0-0.6,0-10.9,0-15.4c0-0.3,0-0.7,0.2-1
		C10.5,0.2,11,0.1,11.5,0c0.1,0,0.2,0,0.3,0C22.9,0,34,0,45.2,0c0.3,0,0.6,0,0.9,0.1c0.4,0.1,0.7,0.5,0.7,1c0,2.4,0.1,13.6,0,15.6
		c0,0.4,0.2,0.6,0.5,0.8c1.1,0.6,2.1,1.2,3.2,1.8c0.8,0.5,1.6,0.9,2.5,1.4c1.2,0.7,2.3,1.3,3.5,2c0.4,0.2,0.6,0.6,0.6,1.1
		c0,10.5,0,20.9,0,31.4c0,1.1-0.6,1.3-1.3,1.4c-0.1,0-0.2,0-0.3,0C46.3,56.7,37.4,56.7,28.5,56.7z M54.4,54.5c0.3,0,0.3,0,0.3-0.3
		c0-0.1,0-0.1,0-0.2c0-9.2,0-18.5,0-27.7c0-0.1,0-0.3,0-0.4c0-0.1-0.1-0.1-0.2-0.1C54,26.1,29.6,40.3,29,40.6
		c-0.4,0.2-0.7,0.2-1.1,0C27.1,40.1,3.1,26.3,2.4,25.9c-0.2-0.1-0.2-0.1-0.2,0.1c0,0.1,0,0.2,0,0.3c0,9,0,27.5,0,27.8
		c0,0.3,0,0.3,0.3,0.3c0.1,0,0.2,0,0.3,0C11.4,54.5,53.3,54.5,54.4,54.5z M13,2.2c-0.6,0-0.6,0-0.6,0.6c0,6.7,0,23.9,0,25.7
		c0,0.4,0.1,0.7,0.5,0.8c0.3,0.1,14.2,8.2,15.2,8.8c0.3,0.2,0.5,0.2,0.7,0c0.8-0.5,14.8-8.5,15.5-9c0.1-0.1,0.2-0.2,0.2-0.3
		c0-0.1,0-0.3,0-0.4c0-8.2,0-25.4,0-25.9c0-0.4,0-0.4-0.4-0.4C44,2.2,18.2,2.2,13,2.2z M46.7,27.5c0,0.2,0.1,0.3,0.3,0.2
		c0.3-0.2,5.8-3.4,6.3-3.7c0.2-0.1,0.2-0.2,0-0.3c-0.8-0.4-6.1-3.5-6.4-3.7c-0.2-0.1-0.2,0-0.2,0.1C46.8,20.7,46.7,26.5,46.7,27.5z
		 M10.1,23.8c0,0,0-2.3,0-3.4c0-0.1,0-0.3,0-0.4c0-0.1-0.1-0.1-0.1-0.1c-0.6,0.3-6,3.4-6.5,3.7c-0.1,0.1-0.1,0.1,0,0.2
		c0.1,0.1,6.1,3.6,6.4,3.7c0.1,0.1,0.2,0,0.2-0.1c0-0.1,0-0.2,0-0.3C10.1,26.1,10.1,24.9,10.1,23.8z"/>
	<path class="st0" d="M28.5,15.4c-3.6,0-7.1,0-10.7,0c-0.2,0-0.3,0-0.5,0c-0.4,0-0.7,0.3-0.9,0.7c-0.2,0.4-0.1,0.8,0.2,1.2
		c0.3,0.3,0.7,0.4,1.1,0.4c7.1,0,14.2,0,21.3,0c0.1,0,0.3,0,0.4,0c0.4-0.1,0.8-0.3,1-0.7c0.2-0.5,0-0.9-0.4-1.3
		c-0.3-0.2-0.6-0.2-0.9-0.2C35.7,15.4,32.1,15.4,28.5,15.4z M28.4,11.8L28.4,11.8c1.9,0,3.9,0,5.8,0c1.7,0,3.4,0,5.2,0
		c0.3,0,0.5,0,0.8-0.2c0.3-0.3,0.5-0.6,0.4-0.9c-0.1-0.4-0.3-0.9-0.8-1c-0.3-0.1-0.6-0.1-0.9-0.1c-6.9,0-13.9,0-20.8,0
		c-0.3,0-0.6,0-0.9,0.1c-0.5,0.1-0.8,0.5-0.8,1c0,0.4,0.1,0.7,0.5,1c0.3,0.2,0.5,0.2,0.8,0.2C21.3,11.8,24.8,11.8,28.4,11.8z
		 M28.4,23.5c3.5,0,7.1,0,10.6,0c0.2,0,0.4,0,0.6,0c0.5,0,1-0.6,0.9-1.1c0-0.5-0.4-0.9-0.9-1c-0.2-0.1-0.4-0.1-0.6-0.1
		c-7.1,0-14.2,0-21.2,0c-0.2,0-0.5,0.1-0.7,0.1c-0.5,0.1-0.7,0.5-0.8,1c-0.1,0.4,0.2,0.7,0.5,1c0.3,0.2,0.5,0.2,0.8,0.2
		C21.3,23.5,24.8,23.5,28.4,23.5z M23,27.1C23,27.1,23,27.1,23,27.1c-0.5,0-1,0-1.4,0c-1.4,0-2.7,0-4.1,0c-0.5,0-0.9,0.4-1.1,0.9
		c-0.1,0.3,0.3,1,0.6,1.1c0.3,0.1,0.5,0.1,0.8,0.1c3.4,0,6.9,0,10.3,0c0.1,0,0.2,0,0.3,0c0.9-0.1,1.4-1.1,0.9-1.8
		c-0.2-0.3-0.5-0.5-0.9-0.5C26.7,27.1,24.8,27.1,23,27.1z"/>
	<path d="M41.5,52.8c-1.5,0-3,0-4.4,0c-0.2,0-0.4,0-0.6-0.1c-0.5-0.2-0.7-0.7-0.6-1.3c0.1-0.4,0.5-0.8,1-0.8c0.1,0,0.2,0,0.3,0
		c3,0,5.9,0,8.9,0c0.4,0,0.7,0.1,1,0.3c0.3,0.3,0.4,0.9,0.2,1.3c-0.2,0.4-0.5,0.6-1,0.6C44.6,52.8,43,52.8,41.5,52.8z"/>
	<path d="M49.3,51.4c0-0.6,0.4-1.1,1.1-1.1c0.6,0,1.1,0.5,1.1,1.1c0,0.5-0.3,1.1-1.1,1.1C49.7,52.6,49.3,52.1,49.3,51.4z"/>
	<path d="M28.5,15.4c3.6,0,7.1,0,10.7,0c0.3,0,0.6,0,0.9,0.2c0.4,0.3,0.6,0.8,0.4,1.3c-0.2,0.4-0.5,0.6-1,0.7c-0.1,0-0.3,0-0.4,0
		c-7.1,0-14.2,0-21.3,0c-0.4,0-0.8-0.1-1.1-0.4c-0.3-0.4-0.3-0.8-0.2-1.2c0.1-0.4,0.5-0.6,0.9-0.7c0.2,0,0.3,0,0.5,0
		C21.4,15.4,25,15.4,28.5,15.4z"/>
	<path d="M28.4,11.8c-3.6,0-7.2,0-10.7,0c-0.3,0-0.6,0-0.8-0.2c-0.4-0.3-0.5-0.6-0.5-1c0.1-0.4,0.3-0.9,0.8-1
		c0.3-0.1,0.6-0.1,0.9-0.1c6.9,0,13.9,0,20.8,0c0.3,0,0.6,0,0.9,0.1c0.5,0.1,0.7,0.5,0.8,1c0,0.3-0.1,0.7-0.4,0.9
		c-0.2,0.2-0.5,0.2-0.8,0.2c-1.7,0-3.4,0-5.2,0C32.3,11.8,30.3,11.8,28.4,11.8L28.4,11.8z"/>
	<path d="M28.4,23.5c-3.6,0-7.2,0-10.7,0c-0.3,0-0.6,0-0.8-0.2c-0.3-0.3-0.5-0.6-0.5-1c0.1-0.4,0.3-0.8,0.8-1c0.2,0,0.5-0.1,0.7-0.1
		c7.1,0,14.2,0,21.2,0c0.2,0,0.4,0,0.6,0.1c0.5,0.1,0.8,0.5,0.9,1c0,0.4-0.5,1.1-0.9,1.1c-0.2,0-0.4,0-0.6,0
		C35.5,23.5,32,23.5,28.4,23.5z"/>
	<path d="M28.5,27.1c0.4,0,0.6,0.2,0.9,0.5c0.5,0.7,0,1.7-0.9,1.8c-0.1,0-0.2,0-0.3,0c-3.4,0-6.9,0-10.3,0c-0.3,0-0.6,0-0.8-0.1
		c-0.4-0.1-0.7-0.8-0.6-1.1c0.1-0.5,0.6-0.9,1.1-0.9c1.4,0,5.1,0,5.6,0C23,27.1,26.7,27.1,28.5,27.1z"/>
</g>
</svg>
