<?xml version="1.0" encoding="utf-8"?>
<!-- Generator: Adobe Illustrator 19.2.0, SVG Export Plug-In . SVG Version: 6.00 Build 0)  -->
<svg version="1.1" id="Layer_3" xmlns="http://www.w3.org/2000/svg" xmlns:xlink="http://www.w3.org/1999/xlink" x="0px" y="0px"
	 viewBox="0 0 56.7 56.1" style="enable-background:new 0 0 56.7 56.1;" xml:space="preserve">
<style type="text/css">
	.st0{fill:#CAA464;}
	.st1{fill:#00602C;}
	.st2{fill:#474749;}
	.st3{fill:none;}
	.st4{fill:#202020;}
</style>
<path class="st0" d="M41.6,37.8H27.4c-0.5,0-1,0.4-1,1c0,0.5,0.5,0.9,1,0.9h14.2c0.5,0,0.9-0.4,0.9-0.9
	C42.5,38.2,42.1,37.8,41.6,37.8z"/>
<path class="st0" d="M46.3,24.6H32.1c-0.5,0-1,0.4-1,0.9c0,0.6,0.5,1,1,1h14.2c0.5,0,0.9-0.4,0.9-1C47.2,25,46.8,24.6,46.3,24.6z"/>
<path class="st0" d="M46.3,31.2h-9.5c-0.6,0-1,0.4-1,0.9c0,0.6,0.4,1,1,1h9.5c0.5,0,0.9-0.4,0.9-1C47.2,31.6,46.8,31.2,46.3,31.2z"
	/>
<path class="st0" d="M29.3,31.2h-1.9c-0.5,0-1,0.4-1,0.9c0,0.6,0.5,1,1,1h1.9c0.5,0,1-0.4,1-1C30.3,31.6,29.8,31.2,29.3,31.2z"/>
<path class="st0" d="M41.6,18H27.4c-0.5,0-1,0.4-1,0.9c0,0.6,0.5,1,1,1h14.2c0.5,0,0.9-0.4,0.9-1C42.5,18.4,42.1,18,41.6,18z"/>
<path class="st1" d="M17.9,24.6c0,0.5,0.4,0.9,1,0.9c0.5,0,0.9-0.4,0.9-0.9c0-2.3-1.6-4.2-3.8-4.6v-1.1c0-0.5-0.5-0.9-1-0.9
	c-0.5,0-0.9,0.4-0.9,0.9v1.1c-1.1,0.2-3.5,1.2-3.5,4s3.5,4,3.5,4v5.1c-1.1-0.4-1.9-1.4-1.9-2.7c0-0.5-0.4-0.9-0.9-0.9
	c-0.5,0-1,0.4-1,0.9c0,2.3,1.6,4.2,3.8,4.6v0.9c0,0.5,0.4,0.9,0.9,0.9c0.5,0,1-0.4,1-0.9V35c1-0.2,3.4-1.3,3.4-4s-3.4-4-3.4-4v-5.2
	C17.1,22.3,17.9,23.3,17.9,24.6z M14.2,25.6c0,0-1.6-0.6-1.6-1.8s1.1-1.7,1.6-1.8V25.6z M17.6,31.2c0,1.4-1.1,1.7-1.5,1.9v-3.7
	C16.1,29.4,17.6,29.8,17.6,31.2z"/>
<path class="st2" d="M37.8,9.4c-0.5,0-0.9,0.5-0.9,1c0,0.5,0.4,1,0.9,1c0.6,0,1-0.5,1-1C38.7,9.9,38.3,9.4,37.8,9.4z"/>
<path class="st2" d="M34,9.4c-0.5,0-1,0.5-1,1c0,0.5,0.5,1,1,1c0.5,0,1-0.5,1-1C35,9.9,34.5,9.4,34,9.4z"/>
<path class="st2" d="M41.6,9.4c-0.6,0-1,0.5-1,1c0,0.5,0.4,1,1,1c0.5,0,0.9-0.5,0.9-1C42.5,9.9,42.1,9.4,41.6,9.4z"/>
<path class="st2" d="M30.3,9.4c-0.6,0-1,0.5-1,1c0,0.5,0.4,1,1,1c0.5,0,0.9-0.5,0.9-1C31.2,9.9,30.8,9.4,30.3,9.4z"/>
<path class="st2" d="M45.4,9.4c-0.5,0-1,0.5-1,1c0,0.5,0.5,1,1,1c0.5,0,1-0.5,1-1C46.3,9.9,45.9,9.4,45.4,9.4z"/>
<path class="st2" d="M18.9,9.4c-0.6,0-1,0.5-1,1c0,0.5,0.4,1,1,1c0.5,0,0.9-0.5,0.9-1C19.8,9.9,19.4,9.4,18.9,9.4z"/>
<path class="st2" d="M22.7,9.4c-0.5,0-1,0.5-1,1c0,0.5,0.5,1,1,1c0.5,0,1-0.5,1-1C23.6,9.9,23.2,9.4,22.7,9.4z"/>
<path class="st2" d="M26.4,9.4c-0.5,0-0.9,0.5-0.9,1c0,0.5,0.4,1,0.9,1c0.6,0,1-0.5,1-1C27.4,9.9,27,9.4,26.4,9.4z"/>
<path class="st2" d="M49.1,9.4c-0.5,0-0.9,0.5-0.9,1c0,0.5,0.4,1,0.9,1c0.6,0,1-0.5,1-1C50.1,9.9,49.7,9.4,49.1,9.4z"/>
<path class="st2" d="M15.1,9.4c-0.5,0-0.9,0.5-0.9,1c0,0.5,0.4,1,0.9,1c0.5,0,1-0.5,1-1C16.1,9.9,15.6,9.4,15.1,9.4z"/>
<path class="st2" d="M11.3,9.4c-0.5,0-1,0.5-1,1c0,0.5,0.5,1,1,1c0.5,0,0.9-0.5,0.9-1C12.3,9.9,11.8,9.4,11.3,9.4z"/>
<path class="st2" d="M7.5,9.4c-0.5,0-0.9,0.5-0.9,1c0,0.5,0.4,1,0.9,1c0.6,0,1-0.5,1-1C8.5,9.9,8.1,9.4,7.5,9.4z"/>
<g>
	<polygon class="st3" points="4.7,48.7 5.7,47.8 11.3,53.5 17,47.8 22.7,53.5 28.3,47.8 34,53.5 39.7,47.8 45.4,53.5 51,47.8 
		52,48.7 52,4.7 4.7,4.7 	"/>
	<path class="st3" d="M52.9,1.9H3.8c-1,0-1.9,0.8-1.9,1.9c0,0.7,0.4,1.3,0.9,1.6V2.8h51v2.6c0.6-0.3,0.9-0.9,0.9-1.6
		C54.8,2.7,54,1.9,52.9,1.9z"/>
	<path class="st4" d="M52.9,0H3.8C1.7,0,0,1.7,0,3.8C0,5.5,1.2,7,2.8,7.4v45.9l2.8-2.8l5.7,5.7l5.7-5.7l5.7,5.7l5.7-5.7l5.7,5.7
		l5.7-5.7l5.7,5.7l5.7-5.7l2.8,2.8V7.4c1.6-0.4,2.8-1.9,2.8-3.6C56.7,1.7,55,0,52.9,0z M52,48.7L51,47.8l-5.7,5.7l-5.7-5.7L34,53.5
		l-5.7-5.7l-5.7,5.7L17,47.8l-5.7,5.7l-5.7-5.7l-0.9,0.9v-44H52V48.7z M53.9,5.4V2.8h-51v2.6C2.3,5.1,1.9,4.5,1.9,3.8
		c0-1,0.8-1.9,1.9-1.9h49.1c1,0,1.9,0.8,1.9,1.9C54.8,4.5,54.4,5.1,53.9,5.4z"/>
</g>
<circle class="st0" cx="46.3" cy="18.9" r="0.9"/>
<circle class="st0" cx="28.3" cy="25.5" r="0.9"/>
<circle class="st0" cx="33.1" cy="32.1" r="0.9"/>
<circle class="st0" cx="46.3" cy="38.7" r="0.9"/>
</svg>
