<?xml version="1.0" encoding="utf-8"?>
<!-- Generator: Adobe Illustrator 21.0.0, SVG Export Plug-In . SVG Version: 6.00 Build 0)  -->
<svg version="1.1" id="Capa_1" xmlns="http://www.w3.org/2000/svg" xmlns:xlink="http://www.w3.org/1999/xlink" x="0px" y="0px"
	 viewBox="178.9 367.3 56.7 59.6" style="enable-background:new 178.9 367.3 56.7 59.6;" xml:space="preserve">
<style type="text/css">
	.st0{fill:#3279BA;}
</style>
<g>
	<path class="st0" d="M235.5,388c0-0.3-0.1-0.7-0.3-1l-7.1-17c-0.7-1.6-2.4-2.8-4.1-2.8h-33.6c-1.7,0-3.5,1.2-4.1,2.8l-7.1,17
		c-0.1,0.3-0.2,0.7-0.3,1c0,0.2-0.1,0.3-0.1,0.5v36.2c0,1.2,1,2.2,2.2,2.2h52.4c1.2,0,2.2-1,2.2-2.2v-36.2
		C235.6,388.3,235.6,388.1,235.5,388L235.5,388z M211.8,406.5V420h-9.2v-13.5h-5l9.6-10.8l9.6,10.8L211.8,406.5L211.8,406.5z
		 M211.2,386.3v-3.4c0-0.8-0.7-1.5-1.5-1.5h-5c-0.8,0-1.5,0.7-1.5,1.5v3.4h-18.4l5.9-14.1h12.5v2.9c0,0.8,0.7,1.5,1.5,1.5h5
		c0.8,0,1.5-0.7,1.5-1.5v-2.9h12.5l5.9,14.1H211.2z M211.2,386.3"/>
</g>
</svg>
