<?xml version="1.0" encoding="utf-8"?>
<!-- Generator: Adobe Illustrator 19.2.0, SVG Export Plug-In . SVG Version: 6.00 Build 0)  -->
<svg version="1.1"
	 id="Layer_1" xmlns:cc="http://creativecommons.org/ns#" xmlns:dc="http://purl.org/dc/elements/1.1/" xmlns:inkscape="http://www.inkscape.org/namespaces/inkscape" xmlns:rdf="http://www.w3.org/1999/02/22-rdf-syntax-ns#" xmlns:sodipodi="http://sodipodi.sourceforge.net/DTD/sodipodi-0.dtd" xmlns:svg="http://www.w3.org/2000/svg"
	 xmlns="http://www.w3.org/2000/svg" xmlns:xlink="http://www.w3.org/1999/xlink" x="0px" y="0px" viewBox="0 0 56.7 56.7"
	 style="enable-background:new 0 0 56.7 56.7;" xml:space="preserve">
<style type="text/css">
	.st0{fill:#3178BA;}
</style>
<path class="st0" d="M28.3,0C12.7,0,0,12.7,0,28.3C0,44,12.7,56.7,28.3,56.7S56.7,44,56.7,28.3C56.7,12.7,44,0,28.3,0z M47.8,30
	L38,39.1c-0.4,0.4-1,0.6-1.5,0.6c-0.6,0-1.2-0.2-1.6-0.7l-1.5-1.6c-0.4-0.4-0.6-1-0.6-1.6s0.3-1.2,0.7-1.6l2.7-2.5H11.6
	c-1.8,0-3.3-1.5-3.3-3.3s1.5-3.3,3.3-3.3h24.5l-2.7-2.5c-0.4-0.4-0.7-1-0.7-1.6s0.2-1.2,0.6-1.6l1.5-1.6c0.4-0.5,1-0.7,1.6-0.7
	c0.5,0,1.1,0.2,1.5,0.6l9.8,9.1c0.5,0.4,0.7,1,0.7,1.6C48.5,29,48.2,29.6,47.8,30z"/>
</svg>
