<?xml version="1.0" encoding="utf-8"?>
<!-- Generator: Adobe Illustrator 19.2.0, SVG Export Plug-In . SVG Version: 6.00 Build 0)  -->
<svg version="1.1"
	 id="Layer_1" xmlns:cc="http://creativecommons.org/ns#" xmlns:dc="http://purl.org/dc/elements/1.1/" xmlns:inkscape="http://www.inkscape.org/namespaces/inkscape" xmlns:rdf="http://www.w3.org/1999/02/22-rdf-syntax-ns#" xmlns:sodipodi="http://sodipodi.sourceforge.net/DTD/sodipodi-0.dtd" xmlns:svg="http://www.w3.org/2000/svg"
	 xmlns="http://www.w3.org/2000/svg" xmlns:xlink="http://www.w3.org/1999/xlink" x="0px" y="0px" viewBox="0 0 56.7 56.7"
	 style="enable-background:new 0 0 56.7 56.7;" xml:space="preserve">
<style type="text/css">
	.st0{fill:#3178BA;}
</style>
<g transform="translate(0,-952.36218)">
	<path class="st0" d="M20.1,952.4c-10.8,0-20.1,9.2-20.1,20s9.3,20.1,20.1,20.1c4.6,0,7.7-1.5,10.8-3.1l18.5,18.5
		c1.5,1.5,4.6,1.5,6.2,0c1.5-1.5,1.5-4.6,0-6.2L37,983.2c1.5-3.1,3.1-7.7,3.1-10.8C40.1,960.1,30.9,952.4,20.1,952.4z M20.1,960.1
		c6.2,0,12.3,6.2,12.3,12.3c0,6.2-6.2,12.3-12.3,12.3s-12.3-6.2-12.3-12.3C7.7,964.7,13.9,960.1,20.1,960.1z"/>
</g>
</svg>
