<?xml version="1.0" encoding="utf-8"?>
<!-- Generator: Adobe Illustrator 19.2.0, SVG Export Plug-In . SVG Version: 6.00 Build 0)  -->
<svg version="1.1"
	 id="Layer_1" xmlns:cc="http://creativecommons.org/ns#" xmlns:dc="http://purl.org/dc/elements/1.1/" xmlns:inkscape="http://www.inkscape.org/namespaces/inkscape" xmlns:rdf="http://www.w3.org/1999/02/22-rdf-syntax-ns#" xmlns:sodipodi="http://sodipodi.sourceforge.net/DTD/sodipodi-0.dtd" xmlns:svg="http://www.w3.org/2000/svg"
	 xmlns="http://www.w3.org/2000/svg" xmlns:xlink="http://www.w3.org/1999/xlink" x="0px" y="0px" viewBox="0 0 63.5 56.7"
	 style="enable-background:new 0 0 63.5 56.7;" xml:space="preserve">
<g>
	<path d="M62.8,18.8L44.7,0.7c-0.5-0.4-1-0.7-1.6-0.7c-0.6,0-1.1,0.2-1.6,0.7c-0.4,0.5-0.7,1-0.7,1.6v9.1h-7.9
		c-16.8,0-27.2,4.8-31,14.3C0.6,28.8,0,32.7,0,37.4c0,3.9,1.5,9.2,4.5,16c0.1,0.2,0.2,0.4,0.4,0.8C5,54.6,5.2,55,5.3,55.3
		c0.1,0.3,0.3,0.6,0.5,0.8c0.3,0.4,0.6,0.6,1,0.6c0.4,0,0.6-0.1,0.8-0.4c0.2-0.2,0.3-0.5,0.3-0.9c0-0.2,0-0.5-0.1-0.9
		c-0.1-0.4-0.1-0.7-0.1-0.8c-0.1-1.6-0.2-3.1-0.2-4.4c0-2.4,0.2-4.5,0.6-6.4c0.4-1.9,1-3.5,1.7-4.9c0.7-1.4,1.7-2.6,2.8-3.6
		c1.2-1,2.4-1.8,3.7-2.5c1.3-0.6,2.9-1.1,4.7-1.5c1.8-0.4,3.6-0.6,5.5-0.8c1.8-0.1,3.9-0.2,6.2-0.2h7.9v9.1c0,0.6,0.2,1.1,0.7,1.6
		c0.4,0.5,1,0.7,1.6,0.7c0.6,0,1.1-0.2,1.6-0.7L62.8,22c0.4-0.4,0.7-1,0.7-1.6C63.5,19.8,63.3,19.3,62.8,18.8L62.8,18.8z M62.8,18.8
		"/>
</g>
</svg>
