<?xml version="1.0" encoding="utf-8"?>
<!-- Generator: Adobe Illustrator 19.2.0, SVG Export Plug-In . SVG Version: 6.00 Build 0)  -->
<svg version="1.1" id="Layer_1" xmlns="http://www.w3.org/2000/svg" xmlns:xlink="http://www.w3.org/1999/xlink" x="0px" y="0px"
	 viewBox="0 0 80 36" style="enable-background:new 0 0 80 36;" xml:space="preserve">
<style type="text/css">
	.st0{fill:#C8C3C2;}
</style>
<g transform="translate(0,-952.36218)">
	<path class="st0" d="M18,988.4c-10,0-18-8-18-18c0-10,8-18,18-18h44c10,0,18,8,18,18s-8,18-18,18H18z M18,982.4c6.6,0,12-5.4,12-12
		c0-6.6-5.4-12-12-12c-6.6,0-12,5.4-12,12S11.4,982.4,18,982.4z M18,978.4c-4.4,0-8-3.6-8-8s3.6-8,8-8c4.4,0,8,3.6,8,8
		C26,974.8,22.4,978.4,18,978.4z"/>
</g>
</svg>
