<?xml version="1.0" encoding="utf-8"?>
<!-- Generator: Adobe Illustrator 19.2.0, SVG Export Plug-In . SVG Version: 6.00 Build 0)  -->
<svg version="1.1" id="Layer_1" xmlns="http://www.w3.org/2000/svg" xmlns:xlink="http://www.w3.org/1999/xlink" x="0px" y="0px"
	 viewBox="0 0 80 36" style="enable-background:new 0 0 80 36;" xml:space="preserve">
<style type="text/css">
	.st0{fill:#006132;}
</style>
<g transform="translate(0,-952.36218)">
	<path class="st0" d="M62,952.4c10,0,18,8,18,18c0,10-8,18-18,18H18c-10,0-18-8-18-18s8-18,18-18H62z M62,958.4c-6.6,0-12,5.4-12,12
		c0,6.6,5.4,12,12,12c6.6,0,12-5.4,12-12S68.6,958.4,62,958.4z M62,962.4c4.4,0,8,3.6,8,8s-3.6,8-8,8c-4.4,0-8-3.6-8-8
		C54,965.9,57.6,962.4,62,962.4z"/>
</g>
</svg>
