<?xml version="1.0" encoding="utf-8"?>
<!-- Generator: Adobe Illustrator 19.2.0, SVG Export Plug-In . SVG Version: 6.00 Build 0)  -->
<svg version="1.1" id="Layer_1" xmlns="http://www.w3.org/2000/svg" xmlns:xlink="http://www.w3.org/1999/xlink" x="0px" y="0px"
	 viewBox="0 0 99 99" style="enable-background:new 0 0 99 99;" xml:space="preserve">
<style type="text/css">
	.st0{fill:#CAA465;}
	.st1{fill-rule:evenodd;clip-rule:evenodd;fill:#CAA465;}
</style>
<g>
	<path class="st0" d="M49.5,0c13.7,0,26,5.5,35,14.5c9,9,14.5,21.4,14.5,35c0,13.7-5.5,26-14.5,35c-9,9-21.3,14.5-35,14.5
		s-26-5.5-35-14.5c-9-9-14.5-21.3-14.5-35c0-13.7,5.5-26,14.5-35C23.5,5.5,35.8,0,49.5,0L49.5,0z M81.8,17.2
		C73.5,9,62.1,3.9,49.5,3.9S25.5,9,17.2,17.2C9,25.5,3.9,36.9,3.9,49.5c0,12.6,5.1,24,13.4,32.3c8.3,8.3,19.7,13.4,32.3,13.4
		s24-5.1,32.3-13.4c8.3-8.3,13.4-19.7,13.4-32.3C95.2,36.9,90.1,25.5,81.8,17.2L81.8,17.2z"/>
	<path class="st1" d="M74.9,35.7c-0.7-0.5-3.4-0.5-6-0.5c-2.7,0.1-5.4,0.1-6,0.3c-0.6,0.2-1.9,3.3-3.5,6.6c-1.9,3.6-4.2,7.1-5.7,7.1
		c-1.9,0-1.5-5.9-1.3-10.4c0-2.9-0.4-3.8-0.9-4.1c-1-0.7-3.8-1.4-3.8-1.4s-8.4-0.6-9.6,3c1.6,0.2,4.4-0.3,3.3,10.9
		c-0.1,0.5-1.3,5.2-5.2-1.1c-1-1.6-4.7-10.9-6-11c-4.3-0.1-8.6-0.3-10.1,0.5c-1.4,0.8,1.9,7.2,7.4,15.8c4.5,7.1,9.2,12.6,17.4,13.9
		c1.6,0.2,5.6,0.3,6.9-0.3c0.8-0.4-0.2-6.5,2.7-7.1c1.3-0.2,6.3,6.4,8.2,7.1c1.2,0.5,3.7,0.7,6.3,0.5c2.8-0.1,6,0.3,6.3-1.6
		c0.7-4.2-8.5-9.7-8.7-12.3c-0.2-1.9,3.3-5.3,5.2-7.9C73.8,40.8,76.3,36.9,74.9,35.7L74.9,35.7z"/>
</g>
</svg>
