<?xml version="1.0" encoding="utf-8"?>
<!-- Generator: Adobe Illustrator 19.2.0, SVG Export Plug-In . SVG Version: 6.00 Build 0)  -->
<svg version="1.1" id="Layer_1" xmlns="http://www.w3.org/2000/svg" xmlns:xlink="http://www.w3.org/1999/xlink" x="0px" y="0px"
	 viewBox="0 0 76.9 76.9" style="enable-background:new 0 0 76.9 76.9;" xml:space="preserve">
<style type="text/css">
	.st0{fill:#C9C3C2;}
	.st1{fill:none;stroke:#DB702A;stroke-width:2;stroke-miterlimit:10;}
	.st2{fill:#DB702A;}
	.st3{fill:none;stroke:#C9C3C2;stroke-width:2;stroke-linecap:round;stroke-linejoin:round;stroke-dasharray:0,3.0163;}
</style>
<circle class="st0" cx="29.9" cy="55.6" r="3.4"/>
<circle class="st0" cx="46.8" cy="55.6" r="3.4"/>
<path class="st0" d="M55.5,30.4c-0.1-0.2-0.4-0.3-0.6-0.3H25.6l-1-4.3c-0.1-0.4-0.4-0.6-0.8-0.6h-6.6c-0.4,0-0.8,0.3-0.8,0.8
	c0,0.4,0.3,0.8,0.8,0.8h5.9l2.1,9.3c0,0,0,0,0,0.1c0,0,0,0,0,0.1l2.2,9.8c0.1,0.4,0.4,0.6,0.8,0.6h21.7c0.3,0,0.6-0.2,0.7-0.5
	l1.5-4.7c0,0,0-0.1,0-0.1l1.6-5l1.6-5C55.7,30.9,55.7,30.6,55.5,30.4z M49.6,45H29l-0.7-3.3h22.3L49.6,45z M51.1,40.2H27.9l-0.8-3.5
	h25.1L51.1,40.2z M52.7,35.1h-26L26,31.7h27.9L52.7,35.1z"/>
<g>
	<g>
		<line class="st1" x1="39.3" y1="14.8" x2="39.3" y2="22.6"/>
		<g>
			<polygon class="st2" points="36,21.6 39.3,27.3 42.6,21.6 			"/>
		</g>
	</g>
</g>
<g>
	<circle class="st3" cx="38.4" cy="38.4" r="37.9"/>
</g>
</svg>
