<?xml version="1.0" encoding="utf-8"?>
<!-- Generator: Adobe Illustrator 19.2.0, SVG Export Plug-In . SVG Version: 6.00 Build 0)  -->
<svg version="1.1" id="Layer_1" xmlns="http://www.w3.org/2000/svg" xmlns:xlink="http://www.w3.org/1999/xlink" x="0px" y="0px"
	 viewBox="0 0 77.9 77.9" style="enable-background:new 0 0 77.9 77.9;" xml:space="preserve">
<style type="text/css">
	.st0{fill:none;stroke:#C9C3C2;stroke-width:2;stroke-linecap:round;stroke-linejoin:round;stroke-dasharray:0,3.0163;}
	.st1{fill:#C9C3C2;}
	.st2{fill:#DB702A;}
	.st3{fill:none;stroke:#DB702A;stroke-miterlimit:10;}
	.st4{fill:none;}
</style>
<g>
	<circle class="st0" cx="38.9" cy="38.9" r="37.9"/>
</g>
<g>
	<path class="st1" d="M67.4,23.5H51.2c-0.7,0-1.3,0.6-1.3,1.3V36c0,0.7,0.6,1.3,1.3,1.3h16.2c0.7,0,1.3-0.6,1.3-1.3V24.9
		C68.8,24.1,68.2,23.5,67.4,23.5L67.4,23.5z M68.1,36c0,0.4-0.3,0.7-0.7,0.7H51.2c-0.4,0-0.7-0.3-0.7-0.7V24.9
		c0-0.4,0.3-0.7,0.7-0.7h16.2c0.4,0,0.7,0.3,0.7,0.7V36z M68.1,36"/>
	<path class="st2" d="M54.9,32.6h-2.8c-0.2,0-0.3,0.1-0.3,0.3c0,0.2,0.1,0.3,0.3,0.3h2.8c0.2,0,0.3-0.1,0.3-0.3
		C55.3,32.8,55.1,32.6,54.9,32.6L54.9,32.6z M54.9,32.6"/>
	<path class="st2" d="M59,32.6h-2.8c-0.2,0-0.3,0.1-0.3,0.3c0,0.2,0.1,0.3,0.3,0.3H59c0.2,0,0.3-0.1,0.3-0.3
		C59.3,32.8,59.2,32.6,59,32.6L59,32.6z M59,32.6"/>
	<path class="st2" d="M52.4,34.2h-0.3c-0.2,0-0.3,0.1-0.3,0.3c0,0.2,0.1,0.3,0.3,0.3h0.3c0.2,0,0.3-0.1,0.3-0.3
		C52.7,34.4,52.6,34.2,52.4,34.2L52.4,34.2z M52.4,34.2"/>
	<path class="st2" d="M54.3,34.2h-0.6c-0.2,0-0.3,0.1-0.3,0.3c0,0.2,0.1,0.3,0.3,0.3h0.6c0.2,0,0.3-0.1,0.3-0.3
		C54.6,34.4,54.5,34.2,54.3,34.2L54.3,34.2z M54.3,34.2"/>
	<path class="st2" d="M55.9,34.2h-0.3c-0.2,0-0.3,0.1-0.3,0.3c0,0.2,0.1,0.3,0.3,0.3h0.3c0.2,0,0.3-0.1,0.3-0.3
		C56.2,34.4,56.1,34.2,55.9,34.2L55.9,34.2z M55.9,34.2"/>
	<path class="st2" d="M57.8,34.2h-0.6c-0.2,0-0.3,0.1-0.3,0.3c0,0.2,0.1,0.3,0.3,0.3h0.6c0.2,0,0.3-0.1,0.3-0.3
		C58.1,34.4,57.9,34.2,57.8,34.2L57.8,34.2z M57.8,34.2"/>
	<path class="st2" d="M58.8,34.3c-0.1,0.1-0.1,0.1-0.1,0.2c0,0.1,0,0.2,0.1,0.2c0.1,0.1,0.1,0.1,0.2,0.1c0.1,0,0.2,0,0.2-0.1
		c0.1-0.1,0.1-0.1,0.1-0.2c0-0.1,0-0.2-0.1-0.2C59.1,34.2,58.9,34.2,58.8,34.3L58.8,34.3z M58.8,34.3"/>
	<path class="st1" d="M65,31.4c-0.4,0-0.8,0.1-1.1,0.3c-0.3-0.2-0.7-0.3-1.1-0.3c-1.2,0-2.2,1-2.2,2.2c0,1.2,1,2.2,2.2,2.2
		c0.4,0,0.8-0.1,1.1-0.3c0.3,0.2,0.7,0.3,1.1,0.3c1.2,0,2.2-1,2.2-2.2C67.2,32.4,66.2,31.4,65,31.4L65,31.4z M64.4,33.6
		c0,0.4-0.2,0.8-0.5,1.1c-0.3-0.3-0.5-0.7-0.5-1.1c0-0.4,0.2-0.8,0.5-1.1C64.2,32.8,64.4,33.1,64.4,33.6L64.4,33.6z M61.2,33.6
		c0-0.9,0.7-1.6,1.6-1.6c0.2,0,0.4,0,0.6,0.1c-0.3,0.4-0.6,0.9-0.6,1.5c0,0.6,0.2,1.1,0.6,1.5c-0.2,0.1-0.4,0.1-0.6,0.1
		C61.9,35.2,61.2,34.5,61.2,33.6L61.2,33.6z M65,35.2c-0.2,0-0.4,0-0.6-0.1c0.3-0.4,0.6-0.9,0.6-1.5c0-0.6-0.2-1.1-0.6-1.5
		c0.2-0.1,0.4-0.1,0.6-0.1c0.9,0,1.6,0.7,1.6,1.6C66.6,34.5,65.9,35.2,65,35.2L65,35.2z M65,35.2"/>
	<path class="st2" d="M52.5,30.4h4.2c0.4,0,0.7-0.3,0.7-0.7v-3c0-0.4-0.3-0.7-0.7-0.7h-4.2c-0.4,0-0.7,0.3-0.7,0.7v3
		C51.8,30.1,52.1,30.4,52.5,30.4L52.5,30.4z M53.7,28.6h-1.3v-0.6h1.3V28.6z M52.4,29.7v-0.5h1.3v0.5c0,0,0,0.1,0,0.1L52.4,29.7
		C52.5,29.8,52.4,29.8,52.4,29.7L52.4,29.7z M56.8,28.6h-1.3V28c0,0,0-0.1,0.1-0.1h1.1c0,0,0.1,0,0.1,0V28.6z M56.7,29.8h-1.2
		c0,0,0-0.1,0-0.1v-0.5h1.3L56.7,29.8C56.8,29.8,56.8,29.8,56.7,29.8L56.7,29.8z M56.7,26.7C56.8,26.7,56.8,26.7,56.7,26.7l0.1,0.5
		c0,0,0,0.1-0.1,0.1h-1.1c-0.4,0-0.7,0.3-0.7,0.7v1.7c0,0,0,0.1-0.1,0.1h-0.5c0,0-0.1,0-0.1-0.1v-3c0,0,0-0.1,0.1-0.1H56.7z
		 M52.5,26.7h1.2c0,0,0,0.1,0,0.1v0.5h-1.3L52.5,26.7C52.4,26.7,52.5,26.7,52.5,26.7L52.5,26.7z M52.5,26.7"/>
</g>
<g>
	<path class="st1" d="M57.7,39.5H41.5c-0.7,0-1.3,0.6-1.3,1.3V52c0,0.7,0.6,1.3,1.3,1.3h16.2c0.7,0,1.3-0.6,1.3-1.3V40.8
		C59,40,58.4,39.5,57.7,39.5L57.7,39.5z M58.4,52c0,0.4-0.3,0.7-0.7,0.7H41.5c-0.4,0-0.7-0.3-0.7-0.7V40.8c0-0.4,0.3-0.7,0.7-0.7
		h16.2c0.4,0,0.7,0.3,0.7,0.7V52z M58.4,52"/>
	<path class="st2" d="M45.2,48.6h-2.8c-0.2,0-0.3,0.1-0.3,0.3c0,0.2,0.1,0.3,0.3,0.3h2.8c0.2,0,0.3-0.1,0.3-0.3
		C45.5,48.7,45.4,48.6,45.2,48.6L45.2,48.6z M45.2,48.6"/>
	<path class="st2" d="M49.3,48.6h-2.8c-0.2,0-0.3,0.1-0.3,0.3c0,0.2,0.1,0.3,0.3,0.3h2.8c0.2,0,0.3-0.1,0.3-0.3
		C49.6,48.7,49.5,48.6,49.3,48.6L49.3,48.6z M49.3,48.6"/>
	<path class="st2" d="M42.7,50.1h-0.3c-0.2,0-0.3,0.1-0.3,0.3c0,0.2,0.1,0.3,0.3,0.3h0.3c0.2,0,0.3-0.1,0.3-0.3
		C43,50.3,42.9,50.1,42.7,50.1L42.7,50.1z M42.7,50.1"/>
	<path class="st2" d="M44.6,50.1h-0.6c-0.2,0-0.3,0.1-0.3,0.3c0,0.2,0.1,0.3,0.3,0.3h0.6c0.2,0,0.3-0.1,0.3-0.3
		C44.9,50.3,44.7,50.1,44.6,50.1L44.6,50.1z M44.6,50.1"/>
	<path class="st2" d="M46.1,50.1h-0.3c-0.2,0-0.3,0.1-0.3,0.3c0,0.2,0.1,0.3,0.3,0.3h0.3c0.2,0,0.3-0.1,0.3-0.3
		C46.5,50.3,46.3,50.1,46.1,50.1L46.1,50.1z M46.1,50.1"/>
	<path class="st2" d="M48,50.1h-0.6c-0.2,0-0.3,0.1-0.3,0.3c0,0.2,0.1,0.3,0.3,0.3H48c0.2,0,0.3-0.1,0.3-0.3
		C48.3,50.3,48.2,50.1,48,50.1L48,50.1z M48,50.1"/>
	<path class="st2" d="M49.1,50.2C49,50.3,49,50.4,49,50.5s0,0.2,0.1,0.2c0.1,0.1,0.1,0.1,0.2,0.1c0.1,0,0.2,0,0.2-0.1
		c0.1-0.1,0.1-0.1,0.1-0.2s0-0.2-0.1-0.2C49.4,50.1,49.2,50.1,49.1,50.2L49.1,50.2z M49.1,50.2"/>
	<path class="st1" d="M55.3,47.3c-0.4,0-0.8,0.1-1.1,0.3c-0.3-0.2-0.7-0.3-1.1-0.3c-1.2,0-2.2,1-2.2,2.2c0,1.2,1,2.2,2.2,2.2
		c0.4,0,0.8-0.1,1.1-0.3c0.3,0.2,0.7,0.3,1.1,0.3c1.2,0,2.2-1,2.2-2.2C57.5,48.3,56.5,47.3,55.3,47.3L55.3,47.3z M54.6,49.5
		c0,0.4-0.2,0.8-0.5,1.1c-0.3-0.3-0.5-0.7-0.5-1.1c0-0.4,0.2-0.8,0.5-1.1C54.4,48.7,54.6,49.1,54.6,49.5L54.6,49.5z M51.5,49.5
		c0-0.9,0.7-1.6,1.6-1.6c0.2,0,0.4,0,0.6,0.1c-0.3,0.4-0.6,0.9-0.6,1.5c0,0.6,0.2,1.1,0.6,1.5c-0.2,0.1-0.4,0.1-0.6,0.1
		C52.2,51.1,51.5,50.4,51.5,49.5L51.5,49.5z M55.3,51.1c-0.2,0-0.4,0-0.6-0.1c0.3-0.4,0.6-0.9,0.6-1.5c0-0.6-0.2-1.1-0.6-1.5
		c0.2-0.1,0.4-0.1,0.6-0.1c0.9,0,1.6,0.7,1.6,1.6C56.8,50.4,56.1,51.1,55.3,51.1L55.3,51.1z M55.3,51.1"/>
	<path class="st2" d="M42.8,46.4H47c0.4,0,0.7-0.3,0.7-0.7v-3c0-0.4-0.3-0.7-0.7-0.7h-4.2c-0.4,0-0.7,0.3-0.7,0.7v3
		C42.1,46.1,42.4,46.4,42.8,46.4L42.8,46.4z M43.9,44.5h-1.3v-0.6h1.3V44.5z M42.7,45.7v-0.5h1.3v0.5c0,0,0,0.1,0,0.1L42.7,45.7
		C42.7,45.7,42.7,45.7,42.7,45.7L42.7,45.7z M47.1,44.5h-1.3v-0.5c0,0,0-0.1,0.1-0.1H47c0,0,0.1,0,0.1,0V44.5z M47,45.7h-1.2
		c0,0,0-0.1,0-0.1v-0.5h1.3L47,45.7C47.1,45.7,47,45.7,47,45.7L47,45.7z M47,42.6C47,42.6,47.1,42.6,47,42.6l0.1,0.5
		c0,0,0,0.1-0.1,0.1h-1.1c-0.4,0-0.7,0.3-0.7,0.7v1.7c0,0,0,0.1-0.1,0.1h-0.5c0,0-0.1,0-0.1-0.1v-3c0,0,0-0.1,0.1-0.1H47z
		 M42.8,42.6H44c0,0,0,0.1,0,0.1v0.5h-1.3L42.8,42.6C42.7,42.6,42.7,42.6,42.8,42.6L42.8,42.6z M42.8,42.6"/>
</g>
<polyline class="st3" points="43,37.4 43,30.9 48.7,30.9 "/>
<polyline class="st3" points="66.2,39.7 66.2,46.2 60.5,46.2 "/>
<g>
	<path class="st4" d="M17.5,39.1l0.5,1.8h0.9l-1.7-6.5c0-0.1,0-0.2,0-0.3c0.1-0.1,0.2-0.2,0.3-0.2c0.6-0.2,1-0.8,0.9-1.5
		c0-0.1,0-0.2,0-0.3c0.1-0.1,0.2-0.2,0.3-0.2l0.3-0.1v-1.7l-3.6,1l2.1,7.8C17.5,39,17.5,39,17.5,39.1z"/>
	<path class="st4" d="M25.3,48.2h-3.4c-0.2,0-0.4-0.2-0.4-0.4s0.2-0.4,0.4-0.4h4.9c0.3,0,0.6-0.3,0.6-0.6c0-0.3-0.3-0.6-0.6-0.6
		h-4.9c-0.2,0-0.4-0.2-0.4-0.4s0.2-0.4,0.4-0.4h5.9c0.3,0,0.6-0.3,0.6-0.6c0-0.3-0.3-0.6-0.6-0.6h-5.9c-0.2,0-0.4-0.2-0.4-0.4
		s0.2-0.4,0.4-0.4h4.5c0.3,0,0.6-0.3,0.6-0.6c0-0.3-0.3-0.6-0.6-0.6l-8.8,0c-0.2,0-0.4-0.1-0.4-0.3l-0.4-1.4l-2,2v6.2l1.1,0.9
		c0.2,0.2,0.6,0.3,0.9,0.3v0h8.5c0.3,0,0.6-0.3,0.6-0.6C26,48.5,25.7,48.2,25.3,48.2z"/>
	<path class="st4" d="M18.1,34.6l0.8,3v-3.8C18.7,34.2,18.4,34.4,18.1,34.6z"/>
	<path class="st4" d="M13.5,41.3h-1.7v5.1c0,0.2-0.2,0.4-0.4,0.4c-0.2,0-0.4-0.2-0.4-0.4v-5.1H9.3c-0.2,0-0.4,0.2-0.4,0.4V49
		c0,0.2,0.2,0.4,0.4,0.4h4.3c0.2,0,0.4-0.2,0.4-0.4v-7.3C14,41.5,13.8,41.3,13.5,41.3z M11.7,48.5c-0.1,0.1-0.2,0.1-0.3,0.1
		c-0.1,0-0.2,0-0.3-0.1C11,48.4,11,48.3,11,48.1s0-0.2,0.1-0.3c0.1-0.1,0.2-0.1,0.3-0.1c0.1,0,0.2,0,0.3,0.1
		c0.1,0.1,0.1,0.2,0.1,0.3S11.8,48.4,11.7,48.5z"/>
	<path class="st4" d="M19.8,40.9h0.9V32c0-0.2,0.2-0.4,0.4-0.4c0.7,0,1.2-0.5,1.2-1.2c0-0.2,0.2-0.4,0.4-0.4h4.2
		c0.2,0,0.4,0.2,0.4,0.4c0,0.7,0.5,1.2,1.2,1.2c0.2,0,0.4,0.2,0.4,0.4v1.8c0,0.2-0.2,0.4-0.4,0.4s-0.4-0.2-0.4-0.4v-1.4
		c-0.8-0.2-1.4-0.8-1.6-1.6h-3.4c-0.2,0.8-0.8,1.4-1.6,1.6v8.5H24c0,0,0,0,0,0h-1.7V36h4.9v4.9h-1.4c0,0,0,0,0,0h0.7
		c0.8,0,1.5,0.7,1.5,1.5c0,0.2,0,0.4-0.1,0.6h0c0.1,0,0.2,0,0.3,0V38c0-0.2,0.2-0.4,0.4-0.4S29,37.7,29,38v5.7
		c0.2,0.3,0.3,0.6,0.3,0.9c0,0.7-0.5,1.3-1.1,1.5c0.1,0.2,0.2,0.4,0.2,0.7c0,0.8-0.7,1.5-1.5,1.5h-0.1c0.1,0.2,0.1,0.4,0.1,0.6
		c0,0.2,0,0.4-0.1,0.6h3.2h0V28.4l-10.1,0V40.9z M28.9,36.3c-0.1,0.1-0.2,0.1-0.3,0.1c-0.1,0-0.2,0-0.3-0.1
		c-0.1-0.1-0.1-0.2-0.1-0.3s0-0.2,0.1-0.3c0.1-0.1,0.2-0.1,0.3-0.1c0.1,0,0.2,0,0.3,0.1C29,35.8,29,35.9,29,36S29,36.2,28.9,36.3z"
		/>
	<path class="st2" d="M11.4,47.7c-0.1,0-0.2,0-0.3,0.1C11,47.9,11,48,11,48.1s0,0.2,0.1,0.3c0.1,0.1,0.2,0.1,0.3,0.1
		c0.1,0,0.2,0,0.3-0.1c0.1-0.1,0.1-0.2,0.1-0.3s0-0.2-0.1-0.3C11.6,47.7,11.5,47.7,11.4,47.7z"/>
	<path class="st1" d="M28.6,35.5c-0.1,0-0.2,0-0.3,0.1c-0.1,0.1-0.1,0.2-0.1,0.3s0,0.2,0.1,0.3c0.1,0.1,0.2,0.1,0.3,0.1
		c0.1,0,0.2,0,0.3-0.1C29,36.2,29,36.1,29,36s0-0.2-0.1-0.3C28.8,35.6,28.7,35.5,28.6,35.5z"/>
	<path class="st1" d="M30.7,27.6c-0.1-0.1-0.2-0.1-0.3-0.1l-11,0c-0.2,0-0.4,0.2-0.4,0.4v1.3l-4.2,1.1c-0.2,0.1-0.4,0.3-0.3,0.5
		l2.2,8.2L14.7,41c-0.2-0.4-0.6-0.6-1.1-0.6H9.3c-0.7,0-1.3,0.6-1.3,1.3V49c0,0.7,0.6,1.3,1.3,1.3h4.3c0.6,0,1.2-0.4,1.3-1l0.5,0.5
		c0.4,0.4,0.9,0.6,1.5,0.6h13.5c0.2,0,0.4-0.2,0.4-0.4v-22C30.8,27.8,30.8,27.7,30.7,27.6z M14,49c0,0.2-0.2,0.4-0.4,0.4H9.3
		c-0.2,0-0.4-0.2-0.4-0.4v-7.3c0-0.2,0.2-0.4,0.4-0.4H11v5.1c0,0.2,0.2,0.4,0.4,0.4c0.2,0,0.4-0.2,0.4-0.4v-5.1h1.7
		c0.2,0,0.4,0.2,0.4,0.4V49z M15.3,31.1l3.6-1v1.7l-0.3,0.1c-0.1,0-0.2,0.1-0.3,0.2c-0.1,0.1-0.1,0.2,0,0.3c0.2,0.6-0.2,1.3-0.9,1.5
		c-0.1,0-0.2,0.1-0.3,0.2c-0.1,0.1-0.1,0.2,0,0.3l1.7,6.5H18l-0.5-1.8c0-0.1,0-0.1-0.1-0.2L15.3,31.1z M18.9,33.8v3.8l-0.8-3
		C18.4,34.4,18.7,34.2,18.9,33.8z M25.3,49.5h-8.5v0c-0.3,0-0.6-0.1-0.9-0.3l-1.1-0.9V42l2-2l0.4,1.4c0.1,0.2,0.2,0.3,0.4,0.3l8.8,0
		c0.3,0,0.6,0.3,0.6,0.6c0,0.3-0.3,0.6-0.6,0.6h-4.5c-0.2,0-0.4,0.2-0.4,0.4s0.2,0.4,0.4,0.4h5.9c0.3,0,0.6,0.3,0.6,0.6
		c0,0.3-0.3,0.6-0.6,0.6h-5.9c-0.2,0-0.4,0.2-0.4,0.4s0.2,0.4,0.4,0.4h4.9c0.3,0,0.6,0.3,0.6,0.6c0,0.3-0.3,0.6-0.6,0.6h-4.9
		c-0.2,0-0.4,0.2-0.4,0.4s0.2,0.4,0.4,0.4h3.4c0.3,0,0.6,0.3,0.6,0.6C26,49.2,25.7,49.5,25.3,49.5z M29.9,49.5L29.9,49.5h-3.2
		c0.1-0.2,0.1-0.4,0.1-0.6c0-0.2,0-0.4-0.1-0.6h0.1c0.8,0,1.5-0.7,1.5-1.5c0-0.2-0.1-0.5-0.2-0.7c0.6-0.2,1.1-0.8,1.1-1.5
		c0-0.3-0.1-0.7-0.3-0.9V38c0-0.2-0.2-0.4-0.4-0.4s-0.4,0.2-0.4,0.4v5.1c-0.1,0-0.2,0-0.3,0h0c0.1-0.2,0.1-0.4,0.1-0.6
		c0-0.8-0.7-1.5-1.5-1.5h-0.7c0,0,0,0,0,0H24c0,0,0,0,0,0h-2.4v-8.5c0.8-0.2,1.4-0.8,1.6-1.6h3.4c0.2,0.8,0.8,1.4,1.6,1.6v1.4
		c0,0.2,0.2,0.4,0.4,0.4S29,34,29,33.8V32c0-0.2-0.2-0.4-0.4-0.4c-0.7,0-1.2-0.5-1.2-1.2c0-0.2-0.2-0.4-0.4-0.4h-4.2
		c-0.2,0-0.4,0.2-0.4,0.4c0,0.7-0.5,1.2-1.2,1.2c-0.2,0-0.4,0.2-0.4,0.4v8.9h-0.9V28.4l10.1,0V49.5z"/>
	<path class="st2" d="M27,38.9c0-1.2-1-2.1-2.1-2.1c-1.2,0-2.1,1-2.1,2.1c0,0.9,0.5,1.6,1.3,2h1.7C26.5,40.6,27,39.8,27,38.9z
		 M24.9,40.2c-0.7,0-1.2-0.6-1.2-1.2s0.6-1.2,1.2-1.2c0.7,0,1.2,0.6,1.2,1.2S25.5,40.2,24.9,40.2z"/>
</g>
</svg>
