<?xml version="1.0" encoding="utf-8"?>
<!-- Generator: Adobe Illustrator 19.2.0, SVG Export Plug-In . SVG Version: 6.00 Build 0)  -->
<svg version="1.1" id="Layer_1" xmlns="http://www.w3.org/2000/svg" xmlns:xlink="http://www.w3.org/1999/xlink" x="0px" y="0px"
	 viewBox="0 0 77.9 77.9" style="enable-background:new 0 0 77.9 77.9;" xml:space="preserve">
<style type="text/css">
	.st0{fill:none;stroke:#C9C3C2;stroke-width:2;stroke-linecap:round;stroke-linejoin:round;stroke-dasharray:0,3.0163;}
	.st1{fill:none;}
	.st2{fill:#DB702A;}
	.st3{fill:#C9C3C2;}
</style>
<g>
	<circle class="st0" cx="38.9" cy="38.9" r="37.9"/>
</g>
<g>
	<path class="st1" d="M41.2,21.2C41.2,21.2,41.2,21.2,41.2,21.2l5.3,0C44.7,21.2,43,21.2,41.2,21.2z"/>
	<path class="st1" d="M39.1,21.2h0.3C39.3,21.2,39.2,21.2,39.1,21.2z"/>
	<path class="st1" d="M27.2,37.5c-1.6,0-3.2,0-4.8,0c-0.3,0-0.3,0-0.3,0.3c0,0.1,0,0.2,0,0.3c0,2,0,4.1,0,6.1c0,2.1,0,4.1,0,6.2
		c0,0.1,0,0.2,0,0.3c0,0.3,0,0.3,0.3,0.3c1.6,0,3.2,0,4.8,0c0.3,0,0.4-0.1,0.4-0.4c0-0.1,0-0.2,0-0.3c0-3.4,0-6.9,0-10.3
		c0-0.8,0-1.5,0-2.3C27.6,37.5,27.6,37.5,27.2,37.5z"/>
	<path class="st1" d="M57.8,43.3c-0.8,0.3-1.7,0.4-2.6,0.7c-1.3,0.3-2.7,0.7-4,1c-1.5,0.4-3,0.8-4.5,1.1c-0.6,0.2-1.2,0.3-1.9,0.5
		c-0.2,0-0.3,0.1-0.4,0.3c-0.1,0.5-0.5,0.9-0.9,1.3c-0.7,0.5-1.4,0.6-2.2,0.4c-0.4-0.1-0.8-0.3-1.1-0.7c-1.2-1.2-2.5-2.5-3.7-3.7
		c-0.1-0.1-0.2-0.2-0.3-0.3c-0.1-0.2-0.1-0.3,0-0.5c0.2-0.4,0.6-0.6,1-0.3c0.1,0.1,0.3,0.2,0.4,0.3c1.1,1.1,2.3,2.3,3.4,3.4
		c0.1,0.1,0.2,0.2,0.3,0.2c0.7,0.6,1.7,0.1,1.8-0.5c0.1-0.5,0-0.9-0.3-1.2c-0.5-0.6-1.1-1.2-1.7-1.7c-0.8-0.8-1.6-1.6-2.5-2.5
		c-0.4-0.4-0.9-0.6-1.5-0.6c-1.3,0-2.5,0-3.8,0c-1.3,0-2.7,0-4,0c-0.4,0-0.3,0-0.3,0.4c0,2.1,0,4.2,0,6.3c0,0.1,0,0.1,0,0.2
		c0,0.1,0.1,0.2,0.2,0.2c0.5,0.1,1.1,0.2,1.6,0.3c0.7,0.1,1.5,0.3,2.2,0.5c0.8,0.3,1.5,0.6,2.3,1c0.9,0.4,1.7,0.9,2.6,1.3
		c0.8,0.4,1.6,0.7,2.3,1.2c0.6,0.4,1.3,0.7,2,0.8c0.9,0.1,1.8,0,2.7-0.5c0.8-0.4,1.6-0.9,2.5-1.3c2.2-1.1,4.4-2.2,6.6-3.3
		c0.9-0.5,1.8-0.9,2.7-1.3c0.6-0.3,1.3-0.6,1.9-1c0.4-0.2,0.7-0.6,0.6-1C59,43.5,58.4,43.1,57.8,43.3z"/>
	<path class="st2" d="M46.8,21.5c0.1,1.8,0.1,3.7,0.1,5.5c0,0.4,0,0.8-0.1,1.2c0,0.1-0.1,0.2-0.1,0.2c-0.1,0.1-0.2,0.2-0.2,0.3
		c-0.1,0.2-0.1,0.1-0.2,0c-0.2-0.2-0.3-0.4-0.5-0.5c-0.5-0.3-0.9-0.3-1.3,0.1c-0.1,0.1-0.3,0.2-0.4,0.4c-0.1,0.2-0.2,0.1-0.3,0
		c-0.2-0.2-0.3-0.3-0.5-0.5c-0.3-0.3-1-0.3-1.3,0c-0.2,0.2-0.3,0.3-0.5,0.5c0,0-0.1,0-0.1,0c-0.3-0.2-0.4-0.5-0.4-0.9
		c0-1.1,0-2.1,0-3.2c0-1.1,0-2.1,0-3.2c0-0.3,0-0.3,0.3-0.3h-1.8c0.2,0,0.1,0.1,0.1,0.4c0,2.1,0,4.2,0,6.3c0,0.4,0.1,0.7,0.3,1
		c0.3,0.4,0.6,0.8,1,1.2c0.3,0.3,1.1,0.3,1.3,0c0.1-0.2,0.3-0.3,0.4-0.5c0,0,0.2-0.1,0.2,0c0.2,0.3,0.5,0.5,0.5,0.9
		c0,2.5,0,5.1,0,7.6c0,0.1,0,0.2,0,0.4c0,0.3,0.2,0.5,0.4,0.6c0.2,0.1,0.5,0,0.7-0.1c0.2-0.2,0.3-0.4,0.3-0.6c0-2.5,0-5,0-7.4
		c0-0.2-0.1-0.5,0-0.7c0.1-0.2,0.3-0.4,0.4-0.6c0,0,0,0,0,0c0.1,0,0.1,0,0.1,0c0.1,0.1,0.1,0.2,0.2,0.3c0.5,0.6,1.3,0.7,1.7,0.1
		c0.2-0.3,0.5-0.5,0.7-0.8c0.1-0.2,0.2-0.4,0.3-0.7c0.1-0.2,0.1-0.4,0.1-0.6c0-2.1,0-4.2,0-6.3c0-0.4,0-0.4,0.4-0.4h-2.1
		C46.8,21.2,46.7,21.2,46.8,21.5z"/>
</g>
<g>
	<path class="st1" d="M44.9,45.1c1.1-0.3,2.2-0.6,3.3-0.8c1.6-0.4,3.2-0.8,4.8-1.2c1.4-0.4,2.8-0.7,4.3-1.1l-12.7,3.1
		C44.7,45.1,44.8,45.1,44.9,45.1z"/>
	<path class="st1" d="M27.2,37.5c-1.6,0-3.2,0-4.8,0c-0.3,0-0.3,0-0.3,0.3c0,0.1,0,0.2,0,0.3c0,2,0,4.1,0,6.1c0,2.1,0,4.1,0,6.2
		c0,0.1,0,0.2,0,0.3c0,0.3,0,0.3,0.3,0.3c1.6,0,3.2,0,4.8,0c0.3,0,0.4-0.1,0.4-0.4c0-0.1,0-0.2,0-0.3c0-3.4,0-6.9,0-10.3
		c0-0.8,0-1.5,0-2.3C27.6,37.5,27.6,37.5,27.2,37.5z"/>
	<path class="st1" d="M40,38.9h-9.7c0,0,0,0-0.1,0c0.1,0.1,0.2,0.1,0.5,0.1c2.2,0,4.3,0,6.5,0c0.7,0,1.3,0.1,1.9,0.5
		c0.3,0.2,0.5,0.4,0.7,0.6c1.1,1.1,2.2,2.2,3.2,3.2c0,0,0.1,0.1,0.1,0.1c0,0,0,0,0,0l0,0L40,38.9z"/>
	<path class="st1" d="M57.8,43.3c-0.8,0.3-1.7,0.4-2.6,0.7c-1.3,0.3-2.7,0.7-4,1c-1.5,0.4-3,0.8-4.5,1.1c-0.6,0.2-1.2,0.3-1.9,0.5
		c-0.2,0-0.3,0.1-0.4,0.3c-0.1,0.5-0.5,0.9-0.9,1.3c-0.7,0.5-1.4,0.6-2.2,0.4c-0.4-0.1-0.8-0.3-1.1-0.7c-1.2-1.2-2.5-2.5-3.7-3.7
		c-0.1-0.1-0.2-0.2-0.3-0.3c-0.1-0.2-0.1-0.3,0-0.5c0.2-0.4,0.6-0.6,1-0.3c0.1,0.1,0.3,0.2,0.4,0.3c1.1,1.1,2.3,2.3,3.4,3.4
		c0.1,0.1,0.2,0.2,0.3,0.2c0.7,0.6,1.7,0.1,1.8-0.5c0.1-0.5,0-0.9-0.3-1.2c-0.5-0.6-1.1-1.2-1.7-1.7c-0.8-0.8-1.6-1.6-2.5-2.5
		c-0.4-0.4-0.9-0.6-1.5-0.6c-1.3,0-2.5,0-3.8,0c-1.3,0-2.7,0-4,0c-0.4,0-0.3,0-0.3,0.4c0,2.1,0,4.2,0,6.3c0,0.1,0,0.1,0,0.2
		c0,0.1,0.1,0.2,0.2,0.2c0.5,0.1,1.1,0.2,1.6,0.3c0.7,0.1,1.5,0.3,2.2,0.5c0.8,0.3,1.5,0.6,2.3,1c0.9,0.4,1.7,0.9,2.6,1.3
		c0.8,0.4,1.6,0.7,2.3,1.2c0.6,0.4,1.3,0.7,2,0.8c0.9,0.1,1.8,0,2.7-0.5c0.8-0.4,1.6-0.9,2.5-1.3c2.2-1.1,4.4-2.2,6.6-3.3
		c0.9-0.5,1.8-0.9,2.7-1.3c0.6-0.3,1.3-0.6,1.9-1c0.4-0.2,0.7-0.6,0.6-1C59,43.5,58.4,43.1,57.8,43.3z"/>
	<path class="st1" d="M44.6,45.1C44.6,45.1,44.6,45.1,44.6,45.1C44.6,45.1,44.6,45.1,44.6,45.1z"/>
	<path class="st3" d="M59.1,42C59.1,42,59.1,42,59.1,42l-1.8-0.1c-1.4,0.4-2.9,0.7-4.3,1.1c-1.6,0.4-3.2,0.8-4.8,1.2
		c-1.1,0.3-2.2,0.6-3.3,0.8c-0.2,0-0.2,0.1-0.3,0l0,0c0,0,0,0,0,0c0,0,0,0,0,0c-0.9-0.8-1.4-1.5-1.4-1.5c0,0,0,0,0,0
		c0,0-0.1-0.1-0.1-0.1c-1.1-1.1-2.2-2.2-3.2-3.2c-0.2-0.2-0.5-0.4-0.7-0.6c-0.6-0.4-1.2-0.5-1.9-0.5c-2.2,0-4.3,0-6.5,0
		c-0.3,0-0.4,0-0.5-0.1c-0.6-0.2-1.2-1.4-1.5-2.1c0,0,0,0,0,0c0,0-0.1,0-0.1-0.1c-0.4-0.5-0.9-0.7-1.5-0.7c-1.6,0-3.2,0-4.9,0
		c-0.1,0-0.3,0-0.4,0.1c-0.8,0.2-1.2,0.7-1.3,1.5c0,0.2-0.1,0.2-0.2,0.2c-0.1,0-0.2,0-0.3,0c-1.3,0-2.6,0-3.9,0
		c-0.7,0-1.3,0.5-1.4,1.2c-0.1,0.6,0,1.2,0,1.8c0,0.4,0.5,0.7,0.9,0.5c0.3-0.1,0.5-0.3,0.5-0.6c0-0.4,0-0.8,0-1.2
		c0-0.3,0-0.3,0.3-0.3c0.1,0,0.1,0,0.2,0c1,0,2,0.1,3,0.1c0.1,0,0.3,0,0.4,0c0.4-0.1,0.4-0.1,0.4,0.4c0,3.1,0,6.2,0,9.3
		c0,0.1,0,0.1,0,0.2c0,0.2,0,0.2-0.2,0.2c-0.1,0-0.3,0-0.4,0c-1.2,0-2.4,0-3.6,0c-0.2,0-0.2,0-0.2-0.2c0-0.1,0-0.2,0-0.3
		c0-1.7,0-3.4,0-5.2c0-0.1,0-0.2,0-0.4c0-0.2-0.1-0.4-0.3-0.5c-0.5-0.3-1.1,0-1.1,0.6c0,0.4,0,0.8,0,1.2c0,1.6,0,3.1,0,4.7
		c0,0.5,0.2,0.8,0.6,1.1c0.3,0.3,0.7,0.3,1,0.3c1.2,0,2.4,0,3.6,0c0.2,0,0.4,0,0.5,0c0.1,0.1,0.1,0.3,0.1,0.5c0.2,0.6,0.6,1,1.2,1.2
		c0.3,0.1,0.6,0.1,0.9,0.1c1.1,0,2.2,0,3.3,0c0.4,0,0.9,0,1.3-0.1c0.7-0.1,1.1-0.5,1.4-1.1c0.1-0.3,0.1-0.6,0.1-0.9
		c0-0.5,0-0.9,0-1.4c0-0.1,0-0.1,0.1-0.1c0.6,0.1,1.1,0.2,1.7,0.3c1.1,0.2,2.2,0.6,3.2,1c1.1,0.5,2.2,1.1,3.4,1.6
		c0.8,0.4,1.6,0.8,2.4,1.3c0.7,0.4,1.5,0.7,2.3,0.7c0.6,0.2,1.1,0,1.7,0c0.6-0.1,1.2-0.3,1.8-0.6c0.5-0.3,1.1-0.6,1.6-0.9
		c1.9-1,3.7-1.9,5.6-2.9c2.1-1.1,4.2-2.1,6.3-3.2c0.3-0.1,0.5-0.3,0.7-0.5c0.6-0.6,0.8-1.8,0.4-2.7C60,42.7,59.6,42.3,59.1,42z
		 M27.6,50.5c0,0.1,0,0.2,0,0.3c0,0.3-0.1,0.4-0.4,0.4c-1.6,0-3.2,0-4.8,0c-0.3,0-0.3,0-0.3-0.3c0-0.1,0-0.2,0-0.3
		c0-2.1,0-4.1,0-6.2c0-2,0-4.1,0-6.1c0-0.1,0-0.2,0-0.3c0-0.3,0.1-0.3,0.3-0.3c1.6,0,3.2,0,4.8,0c0.3,0,0.4,0,0.4,0.4
		c0,0.8,0,1.5,0,2.3C27.6,43.6,27.6,47,27.6,50.5z M58.5,45.2c-0.6,0.3-1.3,0.6-1.9,1c-0.9,0.4-1.8,0.9-2.7,1.3
		c-2.2,1.1-4.4,2.2-6.6,3.3c-0.8,0.4-1.6,0.8-2.5,1.3c-0.9,0.5-1.8,0.5-2.7,0.5c-0.7-0.1-1.4-0.4-2-0.8c-0.7-0.5-1.5-0.8-2.3-1.2
		c-0.9-0.4-1.7-0.8-2.6-1.3c-0.7-0.4-1.5-0.7-2.3-1c-0.7-0.2-1.4-0.4-2.2-0.5c-0.5-0.1-1.1-0.2-1.6-0.3c-0.1,0-0.2-0.1-0.2-0.2
		c0-0.1,0-0.1,0-0.2c0-2.1,0-4.2,0-6.3c0-0.4-0.1-0.4,0.3-0.4c1.3,0,2.7,0,4,0c1.3,0,2.5,0,3.8,0c0.6,0,1.1,0.2,1.5,0.6
		c0.8,0.8,1.6,1.6,2.5,2.5c0.6,0.6,1.1,1.2,1.7,1.7c0.3,0.3,0.4,0.7,0.3,1.2c-0.2,0.7-1.1,1.1-1.8,0.5c-0.1-0.1-0.2-0.2-0.3-0.2
		c-1.1-1.1-2.3-2.3-3.4-3.4c-0.1-0.1-0.2-0.2-0.4-0.3c-0.4-0.3-0.9-0.1-1,0.3c-0.1,0.2-0.1,0.3,0,0.5c0.1,0.1,0.2,0.2,0.3,0.3
		c1.2,1.2,2.5,2.5,3.7,3.7c0.3,0.3,0.7,0.6,1.1,0.7c0.8,0.2,1.5,0.1,2.2-0.4c0.5-0.3,0.8-0.7,0.9-1.3c0.1-0.2,0.2-0.3,0.4-0.3
		c0.6-0.2,1.2-0.3,1.9-0.5c1.5-0.4,3-0.8,4.5-1.1c1.3-0.3,2.7-0.7,4-1c0.9-0.2,1.7-0.4,2.6-0.7c0.7-0.2,1.3,0.2,1.3,0.9
		C59.1,44.6,58.9,45,58.5,45.2z"/>
	<path class="st3" d="M44.6,45.1L44.6,45.1C44.6,45.1,44.6,45.1,44.6,45.1C44.6,45.1,44.6,45.1,44.6,45.1z"/>
	<path class="st2" d="M44.5,41.1c0-0.3-0.1-0.5-0.4-0.6c-0.3-0.1-0.5-0.1-0.8,0.2c-0.1,0.2-0.2,0.3-0.2,0.5c0,0.7,0,1.5,0,2.2
		c0,0.1,0,0.1,0,0.2c0,0,0.6,0.8,1.4,1.5c0,0,0-0.1,0-0.3C44.5,43.5,44.5,42.3,44.5,41.1z"/>
	<path class="st2" d="M30.2,38.9c0-0.1,0-0.2,0-0.4c0-5.4,0-10.8,0-16.2c0-0.1,0-0.2,0-0.3c0-0.4,0.2-0.6,0.5-0.8
		c0.1-0.1,0.3-0.1,0.5-0.1c2.6,0,5.3,0,7.9,0c0.1,0,0.2,0,0.3,0h1.8c0,0,0,0,0,0c1.8,0,3.5,0,5.3,0h2.1c0,0,0,0,0,0
		c1.2,0,2.4,0,3.6,0c0.1,0,0.2,0,0.3,0c0.3,0,0.6-0.3,0.7-0.6c0.1-0.3-0.2-0.7-0.5-0.8c-0.2,0-0.3-0.1-0.5-0.1c-3.5,0-7,0-10.5,0
		c0,0,0,0,0,0c-3.5,0-7,0-10.5,0c-0.3,0-0.5,0-0.8,0.1c-0.8,0.2-1.4,0.8-1.6,1.6c-0.1,0.3-0.1,0.6-0.1,1c0,4.7,0,9.3,0,14
		c0,0.1,0,0.2,0,0.3c0,0,0,0,0,0C29.1,37.5,29.7,38.7,30.2,38.9z"/>
	<path class="st2" d="M59,41.7c0-0.1,0-0.2,0-0.3c0-6.4,0-12.8,0-19.2c0-0.4,0-0.7-0.2-1c-0.2-0.4-0.4-0.7-0.7-0.9
		c-0.3-0.2-0.7-0.4-1.1-0.4c-0.6,0-1.2,0-1.8,0c-0.1,0-0.1,0-0.2,0.1c-0.4,0.1-0.6,0.6-0.4,1c0.2,0.3,0.4,0.4,0.7,0.4
		c0.5,0,0.9,0,1.4,0c0.4,0,0.7,0.3,0.7,0.7c0,0.1,0,0.3,0,0.4c0,6.4,0,12.7,0,19.1c0,0.1,0,0.2,0,0.3c0,0.1-0.1,0.2-0.2,0.2l1.7,0
		C59,41.9,59,41.8,59,41.7z"/>
</g>
</svg>
