<?xml version="1.0" encoding="utf-8"?>
<!-- Generator: Adobe Illustrator 19.2.0, SVG Export Plug-In . SVG Version: 6.00 Build 0)  -->
<svg version="1.1" id="Layer_1" xmlns="http://www.w3.org/2000/svg" xmlns:xlink="http://www.w3.org/1999/xlink" x="0px" y="0px"
	 viewBox="0 0 263.8 133.8" style="enable-background:new 0 0 263.8 133.8;" xml:space="preserve">
<style type="text/css">
	.st0{fill:#FFFFFF;}
	.st1{fill:#C8A465;}
</style>
<g>
	<g>
		<path class="st0" d="M51.5,40.8c1.6,0,3.1,0,4.7,0c0.1,0,0.3,0,0.4,0c0.1,0,0.2,0.1,0.2,0.1c0,0.1,0,0.2-0.1,0.2
			c-0.6,0.4-1.2,0.8-1.9,1.2c-0.4,0.2-0.8,0.5-1.1,0.7c-0.2,0.1-0.2,0.2-0.1,0.4c0.5,1,1,2.1,1.4,3.1c0.6,1.4,1.3,2.8,1.9,4.2
			c0.7,1.5,1.3,2.9,2,4.4c0.6,1.4,1.3,2.8,1.9,4.1c0.6,1.4,1.3,2.8,1.9,4.1c0.6,1.3,1.2,2.6,1.8,3.8c0,0.1,0.1,0.1,0.1,0.2
			c0,0.1,0.1,0.1,0.1,0.1c0,0,0.1-0.1,0.1-0.1c0.3-0.6,0.6-1.1,0.8-1.7c0.2-0.5,0.4-1,0.6-1.4c0.6-1.3,1.2-2.7,1.8-4
			c0.6-1.4,1.2-2.8,1.9-4.2c0.7-1.5,1.4-3,2-4.5c0.5-1.1,1-2.2,1.5-3.4c0.6-1.4,1.3-2.9,1.9-4.3c0.1-0.2,0.2-0.5,0.3-0.7
			c-0.2-0.1-0.4-0.3-0.6-0.4c-0.8-0.5-1.6-1-2.4-1.6c-0.1,0-0.1-0.1-0.2-0.1c-0.1-0.1,0-0.3,0.1-0.3c0.1,0,0.2,0,0.3,0
			c2.4,0,4.9,0,7.3,0c0.1,0,0.2,0,0.3,0c0.1,0,0.2,0.1,0.1,0.2c-0.1,0.1-0.2,0.2-0.3,0.3c-0.9,0.6-1.8,1.1-2.7,1.7
			c-0.2,0.1-0.4,0.3-0.5,0.6c-0.4,1-0.9,2-1.3,3c-0.3,0.7-0.6,1.4-1,2.2c-0.6,1.4-1.3,2.8-1.9,4.2c-0.6,1.3-1.2,2.6-1.7,4
			c-0.4,0.9-0.8,1.8-1.2,2.7c-0.6,1.4-1.2,2.8-1.8,4.2c-0.4,0.9-0.8,1.8-1.2,2.7c-0.6,1.4-1.2,2.8-1.8,4.2c-0.4,0.9-0.8,1.8-1.3,2.7
			c0,0.1-0.1,0.1-0.2,0.2c-0.1,0-0.2-0.1-0.2-0.2c-0.3-0.6-0.6-1.3-0.9-1.9c-0.3-0.6-0.5-1.1-0.7-1.7c-0.4-0.8-0.8-1.6-1.1-2.4
			c-0.7-1.6-1.4-3.1-2.1-4.7c-0.2-0.5-0.5-1.1-0.8-1.6c-0.3-0.7-0.7-1.5-1-2.2c-0.7-1.6-1.4-3.1-2.1-4.7c-0.2-0.5-0.5-1.1-0.8-1.6
			c-0.3-0.7-0.7-1.5-1-2.2c-0.7-1.5-1.4-3.1-2.1-4.6c-0.3-0.7-0.6-1.4-0.9-2.1c-0.1-0.3-0.4-0.5-0.7-0.7c-0.9-0.5-1.8-1.1-2.6-1.7
			c0,0-0.1,0-0.1-0.1c0-0.1,0-0.1,0-0.2c0,0,0.1-0.1,0.1-0.1c0.1,0,0.3,0,0.4,0C48.3,40.8,49.9,40.8,51.5,40.8z"/>
		<path class="st0" d="M151,63.6c0,2.2,0,4.4,0,6.6c0,0.3,0.1,0.5,0.4,0.7c0.9,0.5,1.7,1.1,2.5,1.7c0.1,0,0.1,0.1,0.2,0.1
			c0.1,0.1,0.1,0.2,0.2,0.3c-0.1,0-0.2,0.1-0.3,0.1c-3.1,0-6.3,0-9.4,0c0,0-0.1,0-0.1,0c-0.1,0-0.2,0-0.2-0.1c0-0.1,0-0.2,0.1-0.2
			c0.4-0.3,0.9-0.6,1.3-0.9c0.6-0.4,1.1-0.8,1.7-1.2c0.1-0.1,0.2-0.1,0.2-0.3c0-0.1,0-0.3,0-0.4c0-4.6,0-9.3,0-13.9
			c0-0.1,0-0.2,0-0.2c0-0.3-0.1-0.5-0.3-0.6c-0.8-0.4-1.6-0.9-2.5-1.3c-0.1-0.1-0.2-0.1-0.3-0.2c-0.1-0.1-0.1-0.2-0.1-0.3
			c0,0,0.1-0.1,0.2-0.1c1.2-0.3,2.3-0.6,3.5-0.8c0.9-0.2,1.8-0.4,2.6-0.6c0.3-0.1,0.4,0,0.3,0.3c0,0.9,0,1.9,0,2.8c0,0,0,0.1,0,0.1
			c0,0,0.1,0,0.1-0.1c0.1-0.1,0.2-0.2,0.3-0.3c1.2-1.2,2.6-2,4.2-2.6c0.5-0.2,1-0.3,1.5-0.3c0.6-0.1,1.3-0.1,1.9-0.1
			c1.7,0,3.3,0.5,4.7,1.6c1,0.8,1.7,1.8,2,3.1c0.2,0.7,0.4,1.4,0.4,2.2c0,3.7,0,7.5,0,11.2c0,0.1,0,0.2,0,0.4c0,0.2,0.1,0.4,0.3,0.5
			c0.9,0.6,1.8,1.2,2.7,1.8c0.1,0.1,0.2,0.2,0.3,0.2c0,0,0.1,0.1,0,0.2c0,0-0.1,0.1-0.1,0.1c-0.1,0-0.2,0-0.4,0c-3,0-6,0-9,0
			c-0.1,0-0.2,0-0.2,0c-0.1,0-0.3,0.1-0.3-0.1c0-0.1,0.1-0.2,0.2-0.3c0.5-0.4,1-0.7,1.5-1c0.4-0.3,0.9-0.6,1.3-0.9
			c0.2-0.1,0.2-0.2,0.2-0.5c0-2.3,0-4.6,0-7c0-1.3,0-2.7,0-4c0-0.9-0.1-1.8-0.5-2.7c-0.4-1.1-1.1-2-2.1-2.6
			c-0.5-0.3-1.1-0.5-1.7-0.5c-0.3,0-0.7-0.1-1-0.1c-0.9,0.1-1.8,0.2-2.7,0.6c-0.8,0.3-1.6,0.7-2.3,1.3c-0.4,0.3-0.8,0.6-1.1,0.9
			c-0.3,0.2-0.4,0.5-0.4,0.9C151.1,59.3,151,61.5,151,63.6z"/>
		<path class="st0" d="M191.9,63.7c0,2.2,0,4.4,0,6.6c0,0.3,0.1,0.5,0.4,0.7c0.9,0.5,1.7,1.1,2.6,1.7c0.1,0.1,0.2,0.2,0.3,0.2
			c0,0,0.1,0.1,0,0.2c0,0-0.1,0.1-0.1,0.1c-0.1,0-0.2,0-0.4,0c-3,0-6,0-9,0c-0.1,0-0.1,0-0.2,0c-0.1,0-0.3,0.1-0.3-0.1
			c0-0.1,0.1-0.2,0.2-0.3c0.5-0.4,1-0.7,1.5-1c0.5-0.3,0.9-0.6,1.4-0.9c0.1-0.1,0.2-0.2,0.2-0.3c0-0.1,0-0.2,0-0.4
			c0-4.7,0-9.4,0-14.1c0-0.1,0-0.2,0-0.3c0-0.2-0.1-0.3-0.3-0.4c-0.2-0.1-0.4-0.2-0.7-0.3c-0.7-0.4-1.3-0.7-2-1.1
			c-0.1,0-0.2-0.1-0.2-0.2c-0.1-0.1,0-0.3,0.1-0.3c0.9-0.2,1.8-0.4,2.8-0.6c0.7-0.2,1.5-0.3,2.2-0.5c0.4-0.1,0.8-0.2,1.2-0.3
			c0.3-0.1,0.3,0,0.3,0.3c0,0.9,0,1.9,0,2.8c0,0.1,0,0.1,0,0.2c0.1,0,0.1-0.1,0.2-0.1c0.6-0.7,1.3-1.2,2.1-1.7c1-0.6,2-1,3.1-1.3
			c1.1-0.3,2.2-0.3,3.3-0.2c1.6,0.1,3,0.6,4.3,1.6c1,0.8,1.6,1.8,2,3c0.2,0.7,0.4,1.5,0.4,2.2c0,3.7,0,7.5,0,11.2c0,0.1,0,0.2,0,0.3
			c-0.1,0.3,0.1,0.5,0.3,0.6c0.9,0.6,1.7,1.1,2.6,1.7c0,0,0,0,0.1,0c0.1,0.1,0.3,0.3,0.3,0.4c0,0.2-0.3,0.1-0.4,0.1c-3,0-6,0-9,0
			c-0.2,0-0.3,0-0.5-0.1c0-0.2,0.2-0.3,0.3-0.4c0.9-0.6,1.7-1.2,2.6-1.7c0.2-0.1,0.3-0.3,0.3-0.6c0-2.7,0-5.4,0-8.1c0-1,0-1.9,0-2.9
			c0-0.9-0.2-1.8-0.5-2.7c-0.4-1.1-1.1-2-2.1-2.5c-0.5-0.3-1.1-0.5-1.7-0.5c-0.3,0-0.7-0.1-1-0.1c-0.9,0.1-1.9,0.2-2.8,0.6
			c-0.8,0.3-1.5,0.7-2.2,1.2c-0.4,0.3-0.8,0.6-1.1,0.9c-0.3,0.2-0.4,0.5-0.4,0.9C191.9,59.3,191.9,61.5,191.9,63.7z"/>
		<path class="st0" d="M98.5,62.9c0,0.5-0.1,1.3-0.2,2c-0.1,0.6-0.3,1.2-0.5,1.8c-0.4,1.1-0.9,2.1-1.6,2.9c-0.9,1-1.8,1.9-3,2.5
			c-0.8,0.4-1.7,0.8-2.6,1c-0.4,0.1-0.8,0.1-1.1,0.2c-0.6,0.2-1.2,0.1-1.9,0.1c-1.3,0-2.5-0.3-3.7-0.8c-1.1-0.4-2-1-2.9-1.7
			c-1-0.8-1.8-1.9-2.4-3c-0.5-1.1-0.9-2.2-1.1-3.4c-0.2-0.8-0.2-1.7-0.1-2.6c0.1-1.9,0.7-3.8,1.8-5.4c0.7-1.1,1.6-2.1,2.8-2.8
			c1.1-0.7,2.3-1.2,3.6-1.5c1.2-0.3,2.4-0.3,3.6-0.2c1.8,0.2,3.5,0.8,5,1.9c1.2,0.8,2.1,1.8,2.9,3.1c0.4,0.8,0.8,1.5,1.1,2.4
			c0.2,0.5,0.2,1.1,0.4,1.6C98.5,61.5,98.5,62.1,98.5,62.9z M94.6,62.7c-0.1-0.4,0-0.8-0.1-1.2c-0.1-0.4-0.1-0.8-0.1-1.1
			c-0.1-0.8-0.3-1.5-0.5-2.2C93.3,56.5,92.4,55,91,54c-0.8-0.5-1.6-0.8-2.5-0.9c-0.5,0-1.1,0-1.6,0.1c-0.9,0.2-1.7,0.6-2.4,1.2
			c-1.1,0.9-1.8,2.1-2.3,3.5c-0.5,1.4-0.8,2.8-0.8,4.3c0,0.3,0,0.7,0,1c0,1,0.1,1.9,0.3,2.9c0.3,1.5,0.9,2.8,1.8,4
			c0.6,0.7,1.3,1.3,2.1,1.7c1.1,0.5,2.2,0.6,3.3,0.4c0.9-0.2,1.7-0.6,2.4-1.1c1.1-1,1.9-2.2,2.4-3.6C94.3,65.8,94.5,64.3,94.6,62.7z
			"/>
		<path class="st0" d="M141.6,62.9c0,0.5-0.1,1.3-0.2,2c-0.1,0.6-0.3,1.2-0.5,1.8c-0.4,1.1-0.9,2.1-1.6,2.9c-0.9,1-1.8,1.9-3,2.5
			c-0.8,0.4-1.7,0.8-2.6,1c-0.4,0.1-0.8,0.1-1.1,0.2c-0.6,0.2-1.2,0.1-1.9,0.1c-1.3,0-2.5-0.3-3.7-0.8c-1.1-0.4-2-1-2.9-1.7
			c-1-0.8-1.8-1.9-2.4-3c-0.5-1.1-0.9-2.2-1.1-3.4c-0.2-0.8-0.2-1.7-0.1-2.6c0.1-1.9,0.7-3.8,1.8-5.4c0.7-1.1,1.6-2.1,2.8-2.8
			c1.1-0.7,2.3-1.2,3.6-1.5c1.2-0.3,2.4-0.3,3.6-0.2c1.8,0.2,3.5,0.8,5,1.9c1.2,0.8,2.1,1.8,2.9,3.1c0.4,0.8,0.8,1.5,1.1,2.4
			c0.2,0.5,0.2,1.1,0.4,1.6C141.6,61.5,141.6,62.1,141.6,62.9z M137.7,62.5c0-0.4-0.1-0.8-0.1-1.3c0-0.7-0.1-1.3-0.3-1.9
			c-0.3-1.4-0.8-2.7-1.7-3.9c-0.6-0.7-1.2-1.4-2.1-1.8c-0.9-0.4-1.8-0.6-2.8-0.6c-0.8,0-1.6,0.2-2.3,0.6c-1.1,0.6-1.9,1.5-2.5,2.6
			c-0.8,1.5-1.3,3.1-1.4,4.8c-0.1,1.4-0.1,2.9,0.2,4.3c0.2,1.1,0.5,2.2,1,3.2c0.7,1.3,1.6,2.4,2.9,3.1c0.6,0.3,1.3,0.5,2,0.6
			c0.5,0,1,0,1.6-0.1c0.9-0.2,1.7-0.6,2.4-1.1c1.1-1,1.9-2.2,2.4-3.6C137.4,65.8,137.6,64.3,137.7,62.5z"/>
		<path class="st0" d="M107.8,63.8c0,2.1,0,4.3,0,6.4c0,0.3,0.1,0.5,0.4,0.7c0.9,0.6,1.8,1.2,2.7,1.7c0.1,0.1,0.2,0.1,0.2,0.2
			c0.1,0.1,0,0.2-0.1,0.2c-0.1,0-0.1,0-0.2,0c-3.1,0-6.3,0-9.4,0c-0.1,0-0.2-0.1-0.3-0.1c0.1-0.1,0.1-0.3,0.2-0.3
			c0.6-0.4,1.3-0.8,1.9-1.3c0.3-0.2,0.5-0.3,0.8-0.5c0.3-0.2,0.4-0.4,0.4-0.8c0-1.8,0-3.5,0-5.3c0-3,0-6,0-9c0-0.3-0.1-0.4-0.4-0.6
			c-0.8-0.4-1.6-0.8-2.4-1.3c-0.2-0.1-0.5-0.2-0.5-0.4c0-0.3,0.4-0.3,0.6-0.3c0.8-0.2,1.6-0.3,2.4-0.5c1-0.2,2.1-0.5,3.1-0.7
			c0.2,0,0.4-0.1,0.6-0.1c0,0.2,0.1,0.4,0.1,0.6c0,0.7,0,1.5,0,2.2c0,0.1,0,0.1,0,0.2c0.1,0,0.1-0.1,0.2-0.1
			c0.1-0.2,0.3-0.3,0.4-0.5c0.8-0.8,1.6-1.5,2.6-2c0.7-0.3,1.4-0.5,2.2-0.5c0.9,0,1.7,0.1,2.5,0.5c1.2,0.5,1.9,1.4,2.1,2.6
			c0.1,1-0.3,2-1.3,2.5c-1,0.5-1.9,0.4-2.8-0.2c-0.4-0.3-0.6-0.7-0.7-1.2c-0.2-0.8-0.1-1.4,0.3-2c0.2-0.3,0.4-0.5,0.6-0.7
			c0-0.1,0.1-0.1,0.1-0.2c0,0-0.1-0.1-0.2-0.1c-0.9-0.1-1.8,0-2.6,0.4c-0.4,0.2-0.8,0.4-1.1,0.7c-0.9,0.7-1.6,1.6-2.2,2.5
			c-0.1,0.2-0.2,0.4-0.2,0.6C107.8,59.5,107.8,61.7,107.8,63.8z"/>
		<path class="st0" d="M178.9,61.3c0,2.9,0,5.8,0,8.7c0,0.4,0.1,0.6,0.5,0.9c0.9,0.5,1.7,1.1,2.6,1.7c0.1,0,0.1,0.1,0.2,0.2
			c0,0.1,0.1,0.1,0.1,0.2c0,0-0.1,0.1-0.1,0.1c-0.1,0-0.2,0-0.4,0c-3,0-6,0-9,0c-0.1,0-0.1,0-0.2,0c-0.1,0-0.3,0.1-0.3-0.1
			c0-0.1,0.1-0.2,0.2-0.3c0.7-0.5,1.5-1,2.2-1.5c0.6-0.3,1-0.8,0.8-1.5c0-4.5,0-9,0-13.5c0-0.1,0-0.2,0-0.2c0.1-0.3-0.1-0.5-0.4-0.6
			c-0.8-0.4-1.6-0.8-2.4-1.2c-0.2-0.1-0.3-0.2-0.4-0.3c-0.2-0.1-0.1-0.3,0-0.3c0.2-0.1,0.3-0.1,0.5-0.1c0.8-0.2,1.6-0.4,2.4-0.5
			c1-0.2,2-0.4,3-0.7c0.2,0,0.4-0.1,0.6-0.1c0,0.2,0.1,0.5,0.1,0.7C178.9,55.6,178.9,58.5,178.9,61.3z"/>
		<path class="st0" d="M176.9,47.7c-1.5,0.1-2.8-1.3-2.7-2.7c0-1.3,1.1-2.6,2.7-2.6c1.3,0,2.7,1.2,2.7,2.7
			C179.6,46.5,178.2,47.8,176.9,47.7z"/>
	</g>
	<g>
		<path class="st1" d="M59.1,93.4h-2.9c-0.2-0.6-0.4-1.1-0.6-1.5c-0.2-0.5-0.4-0.9-0.6-1.4c-0.3-0.7-0.7-1.2-1-1.5
			c-0.3-0.3-0.8-0.4-1.3-0.4h-0.5v3.3c0,0.2,0,0.3,0.1,0.4s0.2,0.2,0.3,0.3c0.1,0,0.2,0.1,0.4,0.1c0.2,0,0.4,0.1,0.5,0.1v0.5h-4.3
			v-0.5c0.1,0,0.3,0,0.5,0c0.2,0,0.4,0,0.5-0.1c0.1-0.1,0.3-0.2,0.3-0.3c0.1-0.1,0.1-0.3,0.1-0.4v-7.5c0-0.2,0-0.3-0.1-0.4
			c-0.1-0.1-0.2-0.2-0.3-0.3c-0.1-0.1-0.3-0.1-0.5-0.2c-0.2,0-0.3-0.1-0.5-0.1V83h4.3v0.5c-0.1,0-0.3,0-0.5,0.1
			c-0.2,0-0.4,0.1-0.5,0.1c-0.2,0.1-0.3,0.2-0.3,0.3c-0.1,0.1-0.1,0.3-0.1,0.4V88h0.7c0.2,0,0.4,0,0.5-0.1c0.2-0.1,0.3-0.2,0.5-0.3
			c0.2-0.2,0.4-0.5,0.5-0.8c0.1-0.3,0.3-0.7,0.4-1.1c0.1-0.4,0.3-0.8,0.4-1.1c0.1-0.3,0.4-0.7,0.6-1c0.2-0.2,0.4-0.3,0.7-0.5
			c0.3-0.1,0.5-0.2,0.8-0.2c0.2,0,0.4,0,0.5,0.1c0.2,0.1,0.3,0.1,0.4,0.2c0.1,0.1,0.2,0.2,0.2,0.3c0,0.1,0.1,0.2,0.1,0.4
			c0,0.1,0,0.2,0,0.3c0,0.1-0.1,0.2-0.1,0.3c-0.1,0.1-0.1,0.1-0.2,0.2c-0.1,0-0.2,0.1-0.4,0.1c-0.2,0-0.3,0-0.4-0.1
			c-0.1-0.1-0.2-0.1-0.3-0.2c-0.1-0.1-0.2-0.2-0.2-0.3c-0.1-0.1-0.1-0.2-0.2-0.4c-0.1,0.1-0.3,0.2-0.3,0.3c-0.1,0.1-0.2,0.3-0.3,0.4
			c-0.1,0.2-0.1,0.3-0.2,0.5c-0.1,0.2-0.1,0.4-0.2,0.6c-0.1,0.2-0.1,0.4-0.2,0.6s-0.2,0.4-0.3,0.6c-0.1,0.2-0.2,0.4-0.4,0.6
			c-0.1,0.2-0.3,0.4-0.5,0.6v0.1c0.5,0.2,1,0.4,1.3,0.7c0.4,0.3,0.7,0.8,0.9,1.3c0.1,0.3,0.3,0.6,0.4,1c0.2,0.3,0.3,0.6,0.4,0.9
			c0.2,0.3,0.3,0.5,0.4,0.7c0.1,0.1,0.3,0.2,0.4,0.2c0.1,0,0.3,0,0.4,0.1c0.1,0,0.3,0,0.4,0V93.4z"/>
		<path class="st1" d="M63,83.6c-0.3,0-0.4-0.1-0.5-0.1V83h8.2v0.5c-0.1,0-0.3,0-0.5,0.1c-0.2,0-0.3,0.1-0.4,0.1
			c-0.2,0.1-0.3,0.2-0.3,0.3c-0.1,0.1-0.1,0.3-0.1,0.4v7.5c0,0.2,0,0.3,0.1,0.4c0.1,0.1,0.2,0.2,0.3,0.3c0.1,0,0.2,0.1,0.4,0.1
			c0.2,0,0.4,0.1,0.5,0.1v0.5h-4.3v-0.5c0.1,0,0.3,0,0.5,0c0.2,0,0.4,0,0.5-0.1c0.1-0.1,0.3-0.1,0.3-0.3c0.1-0.1,0.1-0.3,0.1-0.5
			v-8.4H65c0,1.7-0.1,3.2-0.3,4.5c-0.2,1.3-0.5,2.3-0.9,3.1c-0.4,0.8-0.8,1.4-1.2,1.8c-0.4,0.4-0.9,0.6-1.3,0.6
			c-0.4,0-0.7-0.1-1-0.3C60.1,93,60,92.8,60,92.5c0-0.2,0.1-0.4,0.2-0.6c0.1-0.2,0.3-0.3,0.6-0.3c0.2,0,0.4,0,0.5,0.1
			c0.1,0.1,0.2,0.2,0.3,0.3c0.1,0.1,0.2,0.2,0.2,0.3c0.1,0.1,0.1,0.2,0.2,0.3c0.2-0.2,0.4-0.4,0.6-0.8c0.2-0.4,0.5-0.9,0.7-1.6
			c0.2-0.6,0.4-1.3,0.5-2.1c0.2-0.8,0.2-1.7,0.2-2.7c0-0.5,0-0.8-0.1-1c-0.1-0.2-0.2-0.4-0.4-0.5C63.4,83.7,63.2,83.6,63,83.6z"/>
		<path class="st1" d="M74,84.5c-0.1-0.1-0.2-0.2-0.3-0.4s-0.3-0.3-0.4-0.3c-0.1-0.1-0.3-0.1-0.5-0.2c-0.2,0-0.3-0.1-0.5-0.1V83h4.4
			v0.5c-0.3,0-0.6,0-0.9,0.1c-0.3,0.1-0.4,0.1-0.4,0.3c0,0.1,0,0.1,0.1,0.2c0,0.1,0.1,0.1,0.1,0.2c0.2,0.4,0.5,1,0.9,1.8
			s1,1.9,1.7,3.3c0.3-0.6,0.6-1.3,0.9-2c0.3-0.8,0.6-1.4,0.8-1.8c0.2-0.5,0.3-0.9,0.4-1c0-0.2,0.1-0.3,0.1-0.4c0-0.1,0-0.2-0.1-0.3
			c-0.1-0.1-0.2-0.1-0.4-0.2c-0.1,0-0.3-0.1-0.5-0.1c-0.2,0-0.3,0-0.5-0.1V83h3.9v0.5c-0.1,0-0.3,0-0.5,0.1
			c-0.2,0.1-0.4,0.1-0.5,0.2c-0.2,0.1-0.3,0.2-0.4,0.4c-0.1,0.1-0.2,0.3-0.3,0.6c-0.4,0.8-0.8,1.8-1.4,3c-0.6,1.2-1,2.2-1.3,2.8
			c-0.3,0.6-0.6,1.1-0.9,1.5c-0.3,0.4-0.6,0.7-0.8,0.9c-0.3,0.2-0.6,0.4-0.8,0.5c-0.2,0.1-0.5,0.1-0.8,0.1c-0.4,0-0.7-0.1-1-0.3
			c-0.3-0.2-0.4-0.5-0.4-0.8c0-0.2,0.1-0.5,0.2-0.6c0.1-0.2,0.3-0.3,0.6-0.3c0.2,0,0.3,0,0.4,0.1c0.1,0.1,0.2,0.2,0.3,0.3
			c0.1,0.1,0.2,0.2,0.2,0.4c0.1,0.1,0.2,0.3,0.2,0.3c0.4-0.1,0.7-0.3,0.9-0.6c0.2-0.3,0.5-0.6,0.7-1.1c-0.6-1.2-1.3-2.5-2-3.8
			C74.7,85.8,74.2,84.9,74,84.5z"/>
		<path class="st1" d="M92.8,90.3c0,0.5-0.1,1-0.3,1.4c-0.2,0.4-0.5,0.7-0.8,1c-0.3,0.2-0.7,0.4-1.1,0.5c-0.4,0.1-0.8,0.2-1.3,0.2
			h-4.9v-0.5c0.1,0,0.3,0,0.5-0.1c0.2,0,0.4-0.1,0.5-0.1c0.2-0.1,0.3-0.2,0.3-0.3c0.1-0.1,0.1-0.3,0.1-0.4v-7.5c0-0.2,0-0.3-0.1-0.4
			c-0.1-0.1-0.2-0.2-0.3-0.3c-0.1-0.1-0.3-0.1-0.5-0.2c-0.2,0-0.3-0.1-0.5-0.1V83h7.8v2.5h-0.5c-0.1-0.4-0.3-0.8-0.6-1.2
			c-0.3-0.4-0.6-0.7-0.9-0.7c-0.2,0-0.3,0-0.5,0c-0.2,0-0.4,0-0.7,0h-1.5v3.8c0.2,0,0.5,0,0.7,0c0.2,0,0.5,0,0.7,0
			c0.6,0,1.1,0,1.6,0.1c0.5,0.1,0.9,0.3,1.3,0.5c0.4,0.2,0.7,0.5,0.9,0.9C92.7,89.3,92.8,89.8,92.8,90.3z M91,90.2
			c0-0.7-0.2-1.2-0.7-1.6c-0.4-0.4-1-0.6-1.8-0.6c-0.3,0-0.6,0-0.8,0c-0.2,0-0.3,0-0.4,0v3.8c0,0.3,0.1,0.6,0.3,0.7
			c0.2,0.2,0.6,0.2,1.1,0.2c0.7,0,1.3-0.2,1.7-0.7S91,91,91,90.2z"/>
		<path class="st1" d="M110.9,93.4h-4.3v-0.5c0.1,0,0.3,0,0.5,0c0.2,0,0.4,0,0.5-0.1c0.1-0.1,0.3-0.1,0.3-0.3
			c0.1-0.1,0.1-0.3,0.1-0.5v-3.7h-4.9v3.6c0,0.2,0,0.3,0.1,0.4c0.1,0.1,0.2,0.2,0.3,0.3c0.1,0,0.2,0.1,0.4,0.1
			c0.2,0,0.4,0.1,0.5,0.1v0.5h-4.3v-0.5c0.1,0,0.3,0,0.5,0c0.2,0,0.4,0,0.5-0.1c0.1-0.1,0.3-0.1,0.3-0.3c0.1-0.1,0.1-0.3,0.1-0.5
			v-7.5c0-0.2,0-0.3-0.1-0.4c-0.1-0.1-0.2-0.2-0.3-0.3c-0.1-0.1-0.3-0.1-0.5-0.2c-0.2,0-0.3-0.1-0.5-0.1V83h4.3v0.5
			c-0.1,0-0.3,0-0.5,0.1c-0.2,0-0.3,0.1-0.4,0.1c-0.2,0.1-0.3,0.2-0.3,0.3c-0.1,0.1-0.1,0.3-0.1,0.4v3.2h4.9v-3.1
			c0-0.2,0-0.3-0.1-0.4c-0.1-0.1-0.2-0.2-0.3-0.3c-0.1-0.1-0.3-0.1-0.5-0.2c-0.2,0-0.3-0.1-0.5-0.1V83h4.3v0.5c-0.1,0-0.3,0-0.5,0.1
			c-0.2,0-0.3,0.1-0.4,0.1c-0.2,0.1-0.3,0.2-0.3,0.3c-0.1,0.1-0.1,0.3-0.1,0.4v7.5c0,0.2,0,0.3,0.1,0.4c0.1,0.1,0.2,0.2,0.3,0.3
			c0.1,0,0.2,0.1,0.4,0.1c0.2,0,0.4,0.1,0.5,0.1V93.4z"/>
		<path class="st1" d="M114.2,84.5c-0.1-0.1-0.2-0.2-0.3-0.4s-0.3-0.3-0.4-0.3c-0.1-0.1-0.3-0.1-0.5-0.2c-0.2,0-0.3-0.1-0.5-0.1V83
			h4.4v0.5c-0.3,0-0.6,0-0.9,0.1c-0.3,0.1-0.4,0.1-0.4,0.3c0,0.1,0,0.1,0.1,0.2c0,0.1,0.1,0.1,0.1,0.2c0.2,0.4,0.5,1,0.9,1.8
			c0.4,0.8,1,1.9,1.7,3.3c0.3-0.6,0.6-1.3,0.9-2c0.3-0.8,0.6-1.4,0.8-1.8c0.2-0.5,0.3-0.9,0.4-1c0-0.2,0.1-0.3,0.1-0.4
			c0-0.1,0-0.2-0.1-0.3c-0.1-0.1-0.2-0.1-0.4-0.2c-0.1,0-0.3-0.1-0.5-0.1c-0.2,0-0.3,0-0.5-0.1V83h3.9v0.5c-0.1,0-0.3,0-0.5,0.1
			c-0.2,0.1-0.4,0.1-0.5,0.2c-0.2,0.1-0.3,0.2-0.4,0.4c-0.1,0.1-0.2,0.3-0.3,0.6c-0.4,0.8-0.8,1.8-1.4,3c-0.6,1.2-1,2.2-1.3,2.8
			c-0.3,0.6-0.6,1.1-0.9,1.5c-0.3,0.4-0.6,0.7-0.8,0.9c-0.3,0.2-0.6,0.4-0.8,0.5c-0.2,0.1-0.5,0.1-0.8,0.1c-0.4,0-0.7-0.1-1-0.3
			c-0.3-0.2-0.4-0.5-0.4-0.8c0-0.2,0.1-0.5,0.2-0.6c0.1-0.2,0.3-0.3,0.6-0.3c0.2,0,0.3,0,0.4,0.1c0.1,0.1,0.2,0.2,0.3,0.3
			c0.1,0.1,0.2,0.2,0.2,0.4c0.1,0.1,0.2,0.3,0.2,0.3c0.4-0.1,0.7-0.3,0.9-0.6c0.2-0.3,0.5-0.6,0.7-1.1c-0.6-1.2-1.3-2.5-2-3.8
			C114.9,85.8,114.4,84.9,114.2,84.5z"/>
		<path class="st1" d="M137,93.4h-4.6v-0.5c0.2,0,0.4,0,0.6-0.1c0.3,0,0.4-0.1,0.5-0.1c0.2-0.1,0.3-0.2,0.3-0.3
			c0.1-0.1,0.1-0.3,0.1-0.4v-7.5H134l-3.5,8.8h-0.4l-3.4-9h-0.1v6.2c0,0.6,0,1.1,0.1,1.4c0.1,0.3,0.2,0.5,0.3,0.7
			c0.1,0.1,0.3,0.2,0.7,0.3c0.3,0.1,0.6,0.1,0.7,0.1v0.5h-4.2v-0.5c0.2,0,0.4-0.1,0.7-0.1c0.2-0.1,0.4-0.1,0.6-0.2
			c0.2-0.1,0.3-0.3,0.4-0.6c0.1-0.3,0.1-0.8,0.1-1.4v-5.3c0-0.3,0-0.6-0.1-0.8c-0.1-0.2-0.2-0.4-0.3-0.5c-0.2-0.1-0.3-0.2-0.6-0.3
			c-0.2-0.1-0.4-0.1-0.7-0.1V83h3.5l3,7.8l2.5-6.5c0.1-0.2,0.2-0.5,0.2-0.7c0.1-0.3,0.1-0.4,0.1-0.5h3.4v0.5c-0.1,0-0.3,0-0.5,0.1
			c-0.2,0-0.4,0.1-0.5,0.1c-0.2,0.1-0.3,0.2-0.3,0.3c-0.1,0.1-0.1,0.3-0.1,0.4v7.5c0,0.2,0,0.3,0.1,0.4c0.1,0.1,0.2,0.2,0.3,0.3
			c0.1,0,0.2,0.1,0.5,0.1c0.2,0,0.4,0.1,0.5,0.1V93.4z"/>
		<path class="st1" d="M150.4,93.4h-4.3v-0.5c0.1,0,0.3,0,0.5,0c0.2,0,0.4,0,0.5-0.1c0.1-0.1,0.3-0.1,0.3-0.3
			c0.1-0.1,0.1-0.3,0.1-0.5v-6.5l-5,6.3v0.2c0,0.2,0,0.3,0.1,0.4c0.1,0.1,0.2,0.2,0.3,0.3c0.1,0,0.2,0.1,0.5,0.1
			c0.2,0,0.4,0.1,0.5,0.1v0.5h-4.3v-0.5c0.1,0,0.3,0,0.5,0c0.2,0,0.4,0,0.5-0.1c0.1-0.1,0.3-0.1,0.3-0.3c0.1-0.1,0.1-0.3,0.1-0.5
			v-7.5c0-0.2,0-0.3-0.1-0.4c-0.1-0.1-0.2-0.2-0.3-0.3c-0.1-0.1-0.3-0.1-0.5-0.2c-0.2,0-0.3-0.1-0.5-0.1V83h4.3v0.5
			c-0.1,0-0.3,0-0.5,0.1c-0.2,0-0.4,0.1-0.4,0.1c-0.2,0.1-0.3,0.2-0.3,0.3c-0.1,0.1-0.1,0.3-0.1,0.4v6.3l5-6.2c0-0.2,0-0.3-0.1-0.4
			c-0.1-0.1-0.2-0.2-0.3-0.3c-0.1-0.1-0.3-0.1-0.5-0.2c-0.2-0.1-0.4-0.1-0.5-0.1V83h4.3v0.5c-0.1,0-0.3,0-0.5,0.1
			c-0.2,0-0.3,0.1-0.4,0.1c-0.2,0.1-0.3,0.2-0.3,0.3c-0.1,0.1-0.1,0.3-0.1,0.4v7.5c0,0.2,0,0.3,0.1,0.4c0.1,0.1,0.2,0.2,0.3,0.3
			c0.1,0,0.2,0.1,0.4,0.1c0.2,0,0.4,0.1,0.5,0.1V93.4z"/>
		<path class="st1" d="M159.8,88.4c0.3,0.2,0.5,0.5,0.7,0.8c0.2,0.3,0.3,0.7,0.3,1.2c0,1-0.4,1.7-1.2,2.4c-0.8,0.6-1.9,0.9-3.2,0.9
			c-0.6,0-1.1-0.1-1.6-0.2c-0.5-0.1-0.8-0.3-1.1-0.6c-0.3-0.2-0.5-0.5-0.7-0.8c-0.2-0.3-0.2-0.6-0.2-0.9c0-0.3,0.1-0.5,0.2-0.7
			c0.1-0.2,0.4-0.3,0.6-0.3c0.3,0,0.6,0.1,0.7,0.2c0.2,0.2,0.2,0.3,0.2,0.6c0,0.2,0,0.4-0.1,0.7c-0.1,0.3-0.1,0.5-0.1,0.6
			c0,0.1,0.1,0.1,0.2,0.2c0.1,0.1,0.3,0.2,0.4,0.3c0.2,0.1,0.4,0.2,0.6,0.3c0.3,0.1,0.5,0.1,0.8,0.1c0.4,0,0.7-0.1,1-0.2
			c0.3-0.1,0.6-0.3,0.9-0.5c0.2-0.2,0.4-0.5,0.6-0.8c0.1-0.3,0.2-0.7,0.2-1.2c0-0.2,0-0.5-0.1-0.8c-0.1-0.3-0.2-0.5-0.3-0.7
			c-0.2-0.2-0.4-0.4-0.7-0.5c-0.3-0.1-0.7-0.2-1.1-0.2h-1.1v-0.8h0.8c0.8,0,1.3-0.2,1.6-0.6c0.3-0.4,0.5-1,0.5-1.7
			c0-0.3,0-0.5-0.1-0.7c-0.1-0.2-0.2-0.4-0.3-0.6c-0.1-0.2-0.3-0.3-0.6-0.4c-0.2-0.1-0.5-0.1-0.8-0.1c-0.5,0-0.9,0.1-1.2,0.3
			c-0.3,0.2-0.6,0.4-0.8,0.8c-0.2,0.3-0.4,0.7-0.5,1.1c-0.1,0.4-0.3,0.8-0.3,1.2h-0.6l0.1-3.7h0.6l0.3,0.5c0.3-0.2,0.7-0.4,1.2-0.5
			c0.5-0.1,1-0.2,1.5-0.2c0.6,0,1.1,0.1,1.6,0.2c0.5,0.1,0.9,0.4,1.2,0.7c0.2,0.3,0.4,0.5,0.5,0.8c0.1,0.3,0.1,0.5,0.1,0.7
			c0,0.2,0,0.5-0.1,0.7c-0.1,0.3-0.2,0.5-0.4,0.7c-0.2,0.2-0.5,0.4-0.8,0.6c-0.3,0.2-0.7,0.3-1.2,0.5v0.1c0.3,0,0.6,0.1,1,0.2
			C159.2,88.1,159.5,88.2,159.8,88.4z"/>
		<path class="st1" d="M175.9,93.4h-4.6v-0.5c0.2,0,0.4,0,0.6-0.1c0.3,0,0.4-0.1,0.5-0.1c0.2-0.1,0.3-0.2,0.3-0.3
			c0.1-0.1,0.1-0.3,0.1-0.4v-7.5h-0.1l-3.5,8.8h-0.4l-3.4-9h-0.1v6.2c0,0.6,0,1.1,0.1,1.4c0.1,0.3,0.2,0.5,0.3,0.7
			c0.1,0.1,0.3,0.2,0.7,0.3c0.3,0.1,0.6,0.1,0.7,0.1v0.5H163v-0.5c0.2,0,0.4-0.1,0.7-0.1c0.2-0.1,0.4-0.1,0.6-0.2
			c0.2-0.1,0.3-0.3,0.4-0.6c0.1-0.3,0.1-0.8,0.1-1.4v-5.3c0-0.3,0-0.6-0.1-0.8c-0.1-0.2-0.2-0.4-0.3-0.5c-0.2-0.1-0.3-0.2-0.6-0.3
			s-0.4-0.1-0.7-0.1V83h3.5l3,7.8l2.5-6.5c0.1-0.2,0.2-0.5,0.2-0.7c0.1-0.3,0.1-0.4,0.1-0.5h3.4v0.5c-0.1,0-0.3,0-0.5,0.1
			c-0.2,0-0.4,0.1-0.5,0.1c-0.2,0.1-0.3,0.2-0.3,0.3c-0.1,0.1-0.1,0.3-0.1,0.4v7.5c0,0.2,0,0.3,0.1,0.4c0.1,0.1,0.2,0.2,0.3,0.3
			c0.1,0,0.2,0.1,0.5,0.1c0.2,0,0.4,0.1,0.5,0.1V93.4z"/>
		<path class="st1" d="M188.2,93.4h-4.3v-0.5c0.4,0,0.7-0.1,0.9-0.1c0.3-0.1,0.4-0.2,0.4-0.3c0,0,0-0.1,0-0.2c0-0.1,0-0.1,0-0.2
			l-0.9-2.3h-3.6c-0.1,0.3-0.2,0.6-0.3,0.9c-0.1,0.3-0.2,0.5-0.2,0.7c-0.1,0.2-0.1,0.4-0.1,0.5c0,0.1,0,0.2,0,0.3
			c0,0.2,0.2,0.3,0.5,0.5c0.3,0.1,0.7,0.2,1,0.2v0.5h-3.9v-0.5c0.1,0,0.3,0,0.5-0.1c0.2,0,0.3-0.1,0.5-0.2c0.2-0.1,0.3-0.3,0.5-0.4
			c0.1-0.1,0.2-0.3,0.3-0.6c0.5-1.3,1.1-2.8,1.7-4.4c0.6-1.6,1.2-3.1,1.7-4.3h0.6l3.5,8.9c0.1,0.2,0.2,0.3,0.2,0.5
			c0.1,0.1,0.2,0.2,0.4,0.3c0.1,0.1,0.3,0.1,0.4,0.2c0.2,0,0.3,0.1,0.5,0.1V93.4z M184,89.1l-1.6-4l-1.5,4H184z"/>
		<path class="st1" d="M198.2,85.8h-0.5c0-0.2-0.1-0.4-0.2-0.6c-0.1-0.2-0.2-0.5-0.4-0.7c-0.1-0.2-0.3-0.4-0.5-0.6
			c-0.2-0.2-0.3-0.3-0.5-0.3c-0.2,0-0.3,0-0.6,0c-0.2,0-0.4,0-0.6,0h-0.4v8.3c0,0.2,0,0.3,0.1,0.4c0.1,0.1,0.2,0.2,0.4,0.3
			c0.1,0,0.3,0.1,0.6,0.1c0.3,0.1,0.5,0.1,0.7,0.1v0.5h-4.9v-0.5c0.1,0,0.3,0,0.6-0.1c0.3,0,0.5-0.1,0.6-0.1
			c0.2-0.1,0.3-0.2,0.4-0.3s0.1-0.3,0.1-0.5v-8.4h-0.4c-0.2,0-0.3,0-0.6,0s-0.4,0-0.6,0c-0.2,0-0.3,0.1-0.5,0.3
			c-0.2,0.2-0.3,0.4-0.5,0.6c-0.1,0.2-0.3,0.5-0.4,0.7c-0.1,0.2-0.2,0.4-0.2,0.6h-0.5V83h9V85.8z"/>
		<path class="st1" d="M208.6,84.2c0.5,0.5,0.8,1.1,1.1,1.7c0.3,0.7,0.4,1.4,0.4,2.2c0,0.8-0.1,1.6-0.4,2.2
			c-0.3,0.7-0.6,1.2-1.1,1.7c-0.5,0.5-1,0.8-1.6,1.1c-0.6,0.3-1.2,0.4-1.9,0.4c-0.7,0-1.4-0.1-2-0.4c-0.6-0.3-1.1-0.6-1.6-1.1
			c-0.4-0.5-0.8-1-1-1.7c-0.3-0.7-0.4-1.4-0.4-2.2c0-0.8,0.1-1.6,0.4-2.3c0.3-0.7,0.6-1.2,1.1-1.7c0.5-0.5,1-0.8,1.6-1.1
			c0.6-0.3,1.2-0.4,1.9-0.4c0.7,0,1.3,0.1,1.9,0.4C207.6,83.4,208.1,83.8,208.6,84.2z M207.5,91.6c0.3-0.4,0.5-0.9,0.6-1.5
			c0.1-0.6,0.2-1.2,0.2-1.9c0-0.7-0.1-1.4-0.2-2c-0.1-0.6-0.3-1.1-0.6-1.5c-0.3-0.4-0.6-0.7-1-1c-0.4-0.2-0.9-0.3-1.4-0.3
			c-0.6,0-1.1,0.1-1.5,0.4c-0.4,0.3-0.7,0.6-1,1.1c-0.2,0.4-0.4,0.9-0.5,1.5c-0.1,0.6-0.2,1.2-0.2,1.8c0,0.7,0.1,1.3,0.2,1.9
			c0.1,0.6,0.3,1.1,0.6,1.5c0.3,0.4,0.6,0.8,1,1c0.4,0.2,0.9,0.4,1.4,0.4c0.5,0,1-0.1,1.4-0.4C206.9,92.4,207.2,92,207.5,91.6z"/>
		<path class="st1" d="M219.9,88.5c0.3,0.2,0.6,0.5,0.8,0.8c0.2,0.3,0.3,0.7,0.3,1.2c0,0.5-0.1,0.9-0.3,1.3s-0.5,0.6-0.8,0.9
			c-0.3,0.2-0.7,0.4-1.1,0.5c-0.4,0.1-0.8,0.2-1.3,0.2h-4.9v-0.5c0.1,0,0.3,0,0.5-0.1c0.2,0,0.4-0.1,0.5-0.1
			c0.2-0.1,0.3-0.2,0.3-0.3c0.1-0.1,0.1-0.3,0.1-0.4v-7.5c0-0.2,0-0.3-0.1-0.4c-0.1-0.1-0.2-0.2-0.3-0.3c-0.1-0.1-0.3-0.1-0.5-0.2
			c-0.2,0-0.3-0.1-0.5-0.1V83h4.8c0.4,0,0.7,0,1.1,0.1c0.3,0.1,0.7,0.2,1,0.4c0.3,0.2,0.5,0.4,0.7,0.7c0.2,0.3,0.3,0.6,0.3,1.1
			c0,0.4-0.1,0.7-0.2,1c-0.1,0.3-0.3,0.5-0.6,0.7c-0.2,0.2-0.5,0.4-0.8,0.5c-0.3,0.1-0.6,0.2-0.9,0.3v0.1c0.3,0,0.6,0.1,1,0.2
			C219.3,88.2,219.6,88.3,219.9,88.5z M218.1,87c0.2-0.2,0.3-0.4,0.4-0.7c0.1-0.2,0.1-0.5,0.1-0.9c0-0.6-0.2-1-0.5-1.3
			c-0.3-0.3-0.8-0.5-1.5-0.5c-0.2,0-0.4,0-0.6,0c-0.2,0-0.4,0-0.6,0v4h0.9c0.4,0,0.7-0.1,1-0.2C217.7,87.3,217.9,87.2,218.1,87z
			 M219.1,90.3c0-0.6-0.2-1.1-0.6-1.5c-0.4-0.4-1-0.6-1.8-0.6c-0.3,0-0.6,0-0.8,0c-0.2,0-0.4,0-0.5,0v3.7c0,0.3,0.1,0.5,0.4,0.7
			c0.2,0.2,0.6,0.2,1,0.2c0.7,0,1.3-0.2,1.7-0.6C218.9,91.7,219.1,91.1,219.1,90.3z"/>
	</g>
	<circle class="st1" cx="217.9" cy="69.9" r="3.1"/>
</g>
</svg>
