<?xml version="1.0" encoding="utf-8"?>
<!-- Generator: Adobe Illustrator 19.2.0, SVG Export Plug-In . SVG Version: 6.00 Build 0)  -->
<svg version="1.1" id="Layer_1" xmlns="http://www.w3.org/2000/svg" xmlns:xlink="http://www.w3.org/1999/xlink" x="0px" y="0px"
	 viewBox="0 0 85 85.1" style="enable-background:new 0 0 85 85.1;" xml:space="preserve">
<style type="text/css">
	.st0{fill:#C8C3C2;}
	.st1{fill:#FFFFFF;}
	.st2{fill:#DB702A;}
</style>
<g>
	<path class="st0" d="M26.9,27.9c-2.8-0.1-4.3-0.5-6.3-1.3c-0.9-0.3-1.7-0.7-2.5-1.3c-0.4-0.3-0.8-0.7-1-1.1c-0.4-0.6-0.3-1.2,0-1.8
		c0.5-0.7,1.1-1.2,1.9-1.6c1.1-0.6,2.1-0.9,3.6-1.3c2.8-0.7,4.7-0.8,6.8-0.8c0.4,0,3,0.1,3.9,0.2c0.7,0.1,1.4,0.1,2.1,0.2
		c1.4,0.2,2.8,0.5,4.1,1.1c0.8,0.3,1.5,0.7,2.1,1.1c0.4,0.3,0.8,0.7,1.1,1.1c0.4,0.6,0.3,1.2,0,1.8c-0.5,0.7-1.2,1.2-1.9,1.6
		c-1.1,0.6-2,0.8-3.6,1.3C34.6,27.9,32.4,28.1,26.9,27.9z"/>
	<path class="st0" d="M30,33.6c-1.1,0-2-0.1-2.9-0.1c-2-0.2-3.9-0.5-5.8-1c-1.1-0.3-2.2-0.8-3.2-1.5c-0.6-0.4-1-0.9-1.2-1.6
		c0-0.1-0.1-0.2-0.1-0.3c0-0.7,0-1.5,0-2.2c0-0.1,0-0.1,0-0.2c0,0.1,0,0.1,0.1,0.2c0.2,0.5,0.6,0.9,1,1.2c1.3,1,2.9,1.5,4.5,1.9
		c1.2,0.3,2.3,0.5,3.5,0.6c2,0.3,3.9,0.3,5.9,0.2c1,0,1.9-0.2,2.9-0.3c1.2-0.2,2.3-0.4,3.5-0.7c1.1-0.3,2.1-0.7,3.1-1.3
		c0.6-0.4,1.2-0.9,1.5-1.6c0,0,0-0.1,0.1-0.1c0,0,0,0.1,0,0.1c0,0.8,0,1.6,0,2.3c0,0.5-0.3,0.9-0.7,1.3c-0.4,0.5-1,0.8-1.5,1.1
		c-1.1,0.6-2.4,1-3.6,1.3c-0.9,0.2-1.8,0.4-2.7,0.5c-0.9,0.1-1.8,0.2-2.6,0.2C31.1,33.5,30.5,33.6,30,33.6z"/>
	<path class="st0" d="M30,39.2c-1.2-0.1-2.2-0.1-3.2-0.2c-1-0.1-2-0.3-3-0.4c-1.1-0.2-2.2-0.5-3.3-0.8c-0.9-0.3-1.7-0.7-2.5-1.3
		c-0.5-0.4-1-0.9-1.2-1.6c0-0.1-0.1-0.2-0.1-0.3c0-0.7,0-1.4,0-2.2c0-0.1,0-0.1,0-0.2c0,0,0,0.1,0.1,0.1c0.3,0.7,0.9,1.2,1.5,1.6
		c1.2,0.8,2.6,1.2,4,1.6c0.9,0.2,1.9,0.4,2.9,0.6c0.6,0.1,1.2,0.1,1.8,0.2c1.4,0.2,2.9,0.1,4.3,0.1c0.8,0,1.5-0.2,2.3-0.2
		c0.6,0,1.3-0.1,1.9-0.3c1.3-0.2,2.6-0.5,3.9-1c0.8-0.3,1.6-0.7,2.3-1.3c0.4-0.3,0.8-0.8,1-1.2c0,0,0-0.1,0.1-0.1c0,0.1,0,0.1,0,0.2
		c0,0.7,0,1.4,0,2.2c0,0.5-0.3,1-0.7,1.4c-0.4,0.5-1,0.8-1.5,1.1c-1,0.5-2,0.9-3.1,1.2c-0.9,0.2-1.9,0.4-2.8,0.6
		c-1,0.1-1.9,0.3-2.9,0.3C31.2,39.1,30.5,39.2,30,39.2z"/>
	<path class="st0" d="M30,44.8c-1.1-0.1-2.1-0.1-3.1-0.1c-1.8-0.2-3.6-0.4-5.4-0.9c-1.2-0.4-2.4-0.8-3.5-1.6c-0.5-0.4-1-0.9-1.2-1.6
		c0-0.1-0.1-0.3-0.1-0.4c0-0.7,0-1.4,0-2.1c0-0.1,0-0.1,0-0.2c0,0.1,0,0.1,0.1,0.2c0.3,0.7,0.8,1.2,1.5,1.6c1.2,0.8,2.6,1.2,4,1.6
		c1.2,0.3,2.3,0.5,3.5,0.6c2,0.3,4,0.2,6,0.2c0.9,0,1.8-0.2,2.7-0.3c1.1-0.1,2.1-0.3,3.1-0.6c1.3-0.3,2.5-0.8,3.6-1.5
		c0.6-0.4,1.1-0.9,1.4-1.6c0,0,0-0.1,0-0.1c0,0,0,0.1,0,0.1c0,0.8,0,1.5,0,2.3c0,0.5-0.3,0.9-0.7,1.3c-0.4,0.5-1,0.8-1.5,1.1
		c-1.1,0.6-2.3,1-3.6,1.3c-0.9,0.2-1.8,0.4-2.8,0.5c-0.9,0.1-1.8,0.2-2.6,0.2C31.1,44.7,30.5,44.8,30,44.8z"/>
	<path class="st0" d="M16.8,44.7c0-0.4,0-0.7,0-1.1c0,0,0-0.1,0-0.1c0,0,0,0.1,0.1,0.1c0.3,0.7,0.9,1.2,1.5,1.6
		c1.2,0.8,2.6,1.2,3.9,1.6c1.1,0.3,2.2,0.5,3.4,0.6c1.7,0.2,10.9,0.2,12.6,0.2c0.1,0,0.2,0,0.3,0c0.1,0,0.1,0,0.2,0
		c0,0-0.1,0.1-0.1,0.1c-0.4,0.4-0.7,0.8-1,1.3c-0.1,0.3-0.2,0.6-0.3,0.9c-0.1,0.4-0.1,0.4-0.5,0.4c-1,0-9.6-0.1-10.6-0.2
		c-0.4-0.1-0.8-0.1-1.1-0.1c-0.9-0.1-1.8-0.3-2.7-0.5c-1.2-0.3-2.4-0.6-3.5-1.2c-0.5-0.3-1.1-0.6-1.5-1.1c-0.5-0.5-0.9-1.1-0.8-1.9
		C16.8,45.1,16.8,44.9,16.8,44.7C16.8,44.7,16.8,44.7,16.8,44.7z"/>
	<path class="st0" d="M37.4,60.1c0,0.2,0,0.3,0,0.5c0,0.3,0,0.6-0.1,0.9c-0.3,0-0.6,0-0.9,0c-0.8-0.1-9.1-0.2-10-0.2
		c-0.9,0-1.9-0.2-2.8-0.4c-2-0.4-3.9-0.9-5.6-2.1c-0.6-0.4-1-0.9-1.2-1.6c0-0.1-0.1-0.2-0.1-0.3c0-0.7,0-1.5,0-2.2
		c0-0.1,0-0.1,0-0.2c0,0,0,0.1,0,0.1c0.3,0.8,0.9,1.2,1.5,1.7c1.2,0.8,2.5,1.2,3.9,1.6c1.1,0.3,2.3,0.5,3.4,0.6
		c1.2,0.2,10,0.2,11.3,0.2c0.3,0,0.3,0,0.3,0.3C37.4,59.4,37.4,59.8,37.4,60.1z"/>
	<path class="st0" d="M37.4,54.6c0,0.4,0,0.8,0,1.2c0,0.1-0.1,0.2-0.2,0.2c-0.4,0-0.8-0.1-1.3-0.1c-0.2,0-7.9,0-8.1,0
		c-1.5-0.1-3-0.3-4.4-0.6c-1.1-0.2-2.3-0.5-3.4-1c-0.9-0.4-1.7-0.8-2.4-1.5c-0.5-0.5-0.8-1.1-0.8-1.9c0-0.6,0-1.2,0-1.8
		c0-0.1,0-0.1,0-0.2c0,0,0,0.1,0.1,0.1c0.3,0.7,0.9,1.2,1.5,1.6c1.2,0.8,2.5,1.2,3.9,1.6c1.2,0.3,2.4,0.5,3.6,0.6
		c1.2,0.1,10,0.2,11.2,0.2c0.3,0,0.3,0,0.3,0.4C37.4,53.9,37.4,54.2,37.4,54.6z"/>
</g>
<path class="st0" d="M42.1,83.4c0-1,0.7-1.8,1.7-1.8l0,0c1,0,1.8,0.7,1.8,1.7l0,0c0,1-0.7,1.8-1.7,1.8l0,0c0,0,0,0,0,0l0,0
	c0,0,0,0-0.1,0l0,0C42.9,85.1,42.1,84.3,42.1,83.4z M39.1,84.9L39.1,84.9L39.1,84.9c-1-0.1-1.7-0.9-1.6-1.9l0,0
	c0.1-1,0.9-1.7,1.9-1.6l0,0c1,0.1,1.7,0.9,1.6,1.9l0,0c-0.1,0.9-0.8,1.6-1.8,1.6l0,0C39.1,84.9,39.1,84.9,39.1,84.9z M46.8,83.1
	c-0.1-1,0.5-1.8,1.5-2l0,0c1-0.1,1.8,0.5,2,1.5l0,0c0.1,1-0.5,1.8-1.5,2l0,0c-0.1,0-0.2,0-0.3,0l0,0C47.6,84.6,46.9,84,46.8,83.1z
	 M34.2,84.3L34.2,84.3L34.2,84.3c-1-0.2-1.6-1.1-1.4-2.1l0,0c0.2-0.9,1.1-1.6,2.1-1.4l0,0c1,0.2,1.6,1.1,1.4,2.1l0,0
	c-0.2,0.8-0.9,1.4-1.7,1.4l0,0C34.5,84.3,34.4,84.3,34.2,84.3z M51.4,82.4c-0.3-0.9,0.3-1.9,1.2-2.1l0,0c0.9-0.3,1.9,0.3,2.1,1.2
	l0,0c0.2,0.9-0.3,1.9-1.2,2.1l0,0c-0.2,0-0.3,0-0.5,0l0,0C52.3,83.7,51.6,83.2,51.4,82.4z M29.5,83c-0.9-0.3-1.4-1.3-1.1-2.2l0,0
	c0.3-0.9,1.3-1.4,2.2-1.1v0c0.9,0.3,1.4,1.3,1.1,2.2l0,0c-0.2,0.7-0.9,1.2-1.7,1.2l0,0C29.9,83.1,29.7,83.1,29.5,83z M55.8,81.1
	c-0.3-0.9,0.1-1.9,1-2.3l0,0c0.9-0.4,1.9,0.1,2.3,1l0,0c0.4,0.9-0.1,1.9-1,2.3l0,0l0,0l0,0c-0.2,0.1-0.4,0.1-0.6,0.1l0,0
	C56.8,82.3,56.1,81.8,55.8,81.1z M25,81.3C25,81.3,25,81.3,25,81.3L25,81.3c-0.9-0.4-1.3-1.4-0.9-2.3l0,0c0.4-0.9,1.4-1.3,2.3-0.9
	l0,0c0.9,0.4,1.3,1.4,0.9,2.3l0,0c-0.3,0.7-0.9,1-1.6,1l0,0C25.5,81.4,25.2,81.4,25,81.3z M60.2,79.4c-0.5-0.9-0.1-1.9,0.7-2.4l0,0
	c0.8-0.4,1.9-0.1,2.4,0.7l0,0c0.5,0.9,0.1,1.9-0.7,2.4l0,0c-0.3,0.1-0.5,0.2-0.8,0.2l0,0C61.1,80.3,60.5,80,60.2,79.4z M20.7,79
	c-0.8-0.5-1.1-1.6-0.6-2.4l0,0c0.5-0.8,1.6-1.1,2.4-0.6l0,0c0.8,0.5,1.1,1.6,0.6,2.4l0,0c-0.3,0.5-0.9,0.9-1.5,0.9l0,0
	C21.3,79.3,21,79.2,20.7,79z M64.2,77.1c-0.6-0.8-0.4-1.9,0.4-2.4l0,0c0.8-0.6,1.9-0.4,2.4,0.4l0,0c0.6,0.8,0.4,1.9-0.4,2.5l0,0
	c-0.3,0.2-0.7,0.3-1,0.3l0,0C65.1,77.9,64.6,77.6,64.2,77.1z M16.7,76.3c-0.8-0.6-0.9-1.7-0.3-2.5l0,0c0.6-0.8,1.7-0.9,2.5-0.3l0,0
	c0.8,0.6,0.9,1.7,0.3,2.5l0,0c-0.3,0.4-0.9,0.7-1.4,0.7l0,0C17.4,76.7,17,76.5,16.7,76.3z M68,74.4c-0.6-0.7-0.6-1.8,0.2-2.5l0,0
	c0.7-0.6,1.8-0.6,2.5,0.2l0,0c0.6,0.7,0.6,1.8-0.2,2.5l0,0c-0.3,0.3-0.7,0.4-1.1,0.4l0,0C68.9,75,68.4,74.8,68,74.4z M13,73.1
	c-0.7-0.7-0.7-1.8,0-2.5l0,0c0.7-0.7,1.8-0.7,2.5,0l0,0c0.7,0.7,0.7,1.8,0,2.5l0,0c-0.3,0.4-0.8,0.5-1.3,0.5l0,0
	C13.8,73.6,13.4,73.5,13,73.1z M71.5,71.3c-0.7-0.7-0.8-1.8-0.1-2.5l0,0c0.7-0.7,1.8-0.8,2.5-0.1l0,0c0.7,0.7,0.8,1.8,0.1,2.5l0,0
	c-0.4,0.4-0.8,0.6-1.3,0.6l0,0C72.2,71.8,71.8,71.6,71.5,71.3z M9.7,69.6C9.7,69.6,9.7,69.6,9.7,69.6L9.7,69.6
	c-0.6-0.8-0.5-1.9,0.2-2.5l0,0c0.7-0.6,1.8-0.5,2.5,0.2l0,0c0.6,0.7,0.5,1.8-0.2,2.5l0,0c-0.3,0.3-0.7,0.4-1.1,0.4l0,0
	C10.6,70.2,10.1,70,9.7,69.6z M74.6,67.8c-0.8-0.6-1-1.7-0.4-2.4l0,0c0.6-0.8,1.7-1,2.4-0.4l0,0c0.8,0.6,1,1.7,0.4,2.5l0,0
	c-0.3,0.5-0.9,0.7-1.4,0.7l0,0C75.3,68.2,74.9,68.1,74.6,67.8z M6.8,65.7c-0.5-0.8-0.3-1.9,0.5-2.4l0,0c0.8-0.5,1.9-0.3,2.4,0.5l0,0
	c0.5,0.8,0.3,1.9-0.5,2.4l0,0c-0.3,0.2-0.6,0.3-1,0.3l0,0C7.7,66.5,7.2,66.2,6.8,65.7z M77.3,64c-0.8-0.5-1.1-1.5-0.7-2.4l0,0
	c0.5-0.8,1.5-1.1,2.4-0.7l0,0c0.8,0.5,1.1,1.5,0.7,2.4l0,0c0,0,0,0,0,0l0,0c-0.3,0.6-0.9,0.9-1.5,0.9l0,0
	C77.8,64.3,77.5,64.2,77.3,64z M4.4,61.4c-0.4-0.9-0.1-1.9,0.8-2.3l0,0c0.9-0.4,1.9-0.1,2.3,0.8l0,0c0.4,0.9,0.1,1.9-0.8,2.4l0,0
	c-0.3,0.1-0.5,0.2-0.8,0.2l0,0C5.4,62.4,4.7,62,4.4,61.4z M79.5,59.9c-0.9-0.4-1.3-1.4-0.9-2.3l0,0c0.4-0.9,1.4-1.3,2.3-0.9l0,0
	c0.9,0.4,1.3,1.4,0.9,2.3l0,0c0,0,0,0,0,0l0,0c-0.3,0.7-0.9,1.1-1.6,1.1l0,0C79.9,60.1,79.7,60,79.5,59.9z M2.5,57
	c-0.3-0.9,0.1-1.9,1.1-2.2l0,0c0.9-0.3,1.9,0.1,2.2,1.1l0,0c0.3,0.9-0.1,1.9-1,2.2l0,0c-0.2,0.1-0.4,0.1-0.6,0.1l0,0
	C3.5,58.1,2.8,57.7,2.5,57z M81.2,55.6c-0.9-0.3-1.4-1.2-1.2-2.2l0,0c0.3-0.9,1.2-1.4,2.2-1.2l0,0c0.9,0.3,1.5,1.2,1.2,2.2l0,0
	c0,0,0,0,0,0l0,0c-0.2,0.8-0.9,1.3-1.7,1.3l0,0C81.6,55.7,81.4,55.6,81.2,55.6z M1.1,52.3c-0.2-0.9,0.4-1.9,1.3-2.1l0,0
	c0.9-0.2,1.9,0.4,2.1,1.3l0,0c0.2,0.9-0.4,1.9-1.3,2.1l0,0c-0.1,0-0.3,0-0.4,0l0,0C2.1,53.7,1.3,53.1,1.1,52.3z M82.5,51.1
	c-1-0.2-1.6-1.1-1.4-2l0,0c0.2-1,1.1-1.6,2-1.4l0,0c1,0.2,1.6,1.1,1.4,2l0,0c0,0,0,0,0,0l0,0c-0.1,0.9-0.9,1.5-1.7,1.5l0,0
	C82.7,51.1,82.6,51.1,82.5,51.1z M0.3,47.6L0.3,47.6L0.3,47.6c-0.1-1,0.6-1.8,1.5-2l0,0c1-0.1,1.8,0.6,1.9,1.5l0,0
	c0.1,1-0.6,1.8-1.5,1.9l0,0c-0.1,0-0.1,0-0.2,0l0,0C1.2,49.1,0.4,48.4,0.3,47.6z M83.2,46.5c-1-0.1-1.7-0.9-1.7-1.8l0,0
	c0-1,0.9-1.7,1.8-1.7l0,0c1,0,1.7,0.9,1.7,1.8l0,0l0,0l0,0C85,45.8,84.2,46.5,83.2,46.5L83.2,46.5C83.3,46.5,83.2,46.5,83.2,46.5z
	 M0,42.7C0,42.7,0,42.6,0,42.7L0,42.7c0-0.1,0-0.1,0-0.2l0,0c0-1,0.8-1.8,1.8-1.8l0,0c1,0,1.8,0.8,1.8,1.8l0,0c0,0,0,0,0,0.1l0,0
	c0,0,0,0,0,0.1l0,0c0,1-0.8,1.8-1.7,1.8l0,0h0l0,0C0.8,44.4,0,43.7,0,42.7z M81.5,40.2L81.5,40.2c0-1,0.7-1.8,1.6-1.8l0,0
	c1-0.1,1.8,0.7,1.9,1.6l0,0c0,1-0.7,1.8-1.7,1.8l0,0c0,0-0.1,0-0.1,0l0,0C82.4,41.9,81.6,41.2,81.5,40.2z M1.8,39.6
	c-1-0.1-1.7-1-1.5-1.9l0,0c0.1-1,1-1.7,1.9-1.5l0,0c1,0.1,1.7,1,1.5,1.9l0,0C3.7,39,2.9,39.6,2,39.6l0,0C2,39.6,1.9,39.6,1.8,39.6z
	 M81,35.8c-0.2-1,0.5-1.9,1.4-2l0,0c1-0.2,1.9,0.5,2,1.4l0,0c0.2,1-0.5,1.9-1.4,2l0,0c-0.1,0-0.2,0-0.3,0l0,0
	C81.9,37.2,81.2,36.6,81,35.8z M2.4,35c-0.9-0.2-1.5-1.2-1.3-2.1l0,0l0,0l0,0c0.2-0.9,1.2-1.5,2.1-1.3l0,0c1,0.2,1.5,1.2,1.3,2.1
	l0,0C4.3,34.5,3.6,35,2.8,35l0,0C2.7,35,2.5,35,2.4,35z M80,31.4L80,31.4c-0.3-0.9,0.3-1.9,1.2-2.2l0,0c0.9-0.3,1.9,0.3,2.2,1.2l0,0
	l0,0l0,0c0.3,0.9-0.3,1.9-1.2,2.2l0,0c-0.2,0-0.3,0.1-0.5,0.1l0,0C80.9,32.7,80.2,32.2,80,31.4z M3.5,30.5c-0.9-0.3-1.4-1.3-1.1-2.2
	l0,0c0.3-0.9,1.3-1.4,2.2-1.1l0,0c0.9,0.3,1.4,1.3,1,2.2l0,0c-0.3,0.7-0.9,1.2-1.7,1.2l0,0C3.9,30.6,3.7,30.5,3.5,30.5z M78.5,27.3
	c-0.4-0.9,0-1.9,0.9-2.3l0,0c0.9-0.4,1.9,0,2.3,0.9l0,0c0.4,0.9,0,1.9-0.9,2.3l0,0c-0.2,0.1-0.4,0.1-0.7,0.1l0,0
	C79.4,28.3,78.8,27.9,78.5,27.3z M5.2,26.1c-0.9-0.4-1.2-1.5-0.8-2.3l0,0c0.4-0.9,1.5-1.2,2.3-0.8l0,0c0.9,0.4,1.2,1.5,0.8,2.4l0,0
	c-0.3,0.6-0.9,1-1.6,1l0,0C5.7,26.3,5.4,26.2,5.2,26.1z M76.5,23.3c-0.5-0.8-0.2-1.9,0.7-2.4l0,0c0.8-0.5,1.9-0.2,2.4,0.7l0,0
	c0.5,0.8,0.2,1.9-0.7,2.4l0,0c-0.3,0.2-0.6,0.2-0.9,0.2l0,0C77.5,24.2,76.8,23.8,76.5,23.3z M7.3,21.9c-0.8-0.5-1-1.6-0.5-2.4l0,0
	c0.5-0.8,1.6-1,2.4-0.5l0,0c0.8,0.5,1.1,1.6,0.5,2.4l0,0c-0.3,0.5-0.9,0.8-1.5,0.8l0,0C7.9,22.2,7.6,22.1,7.3,21.9z M74.1,19.5
	L74.1,19.5c-0.6-0.8-0.4-1.9,0.4-2.5l0,0c0.8-0.6,1.9-0.4,2.5,0.4l0,0l0,0l0,0c0.6,0.8,0.4,1.9-0.4,2.5l0,0c-0.3,0.2-0.7,0.3-1,0.3
	l0,0C75,20.2,74.5,20,74.1,19.5z M9.8,18.1c-0.7-0.6-0.9-1.7-0.2-2.5l0,0c0.6-0.7,1.7-0.8,2.5-0.2l0,0c0.7,0.6,0.9,1.7,0.3,2.5l0,0
	c-0.3,0.4-0.9,0.7-1.4,0.7l0,0C10.6,18.5,10.2,18.3,9.8,18.1z M71.3,16.1c-0.7-0.7-0.6-1.8,0.1-2.5l0,0c0.7-0.7,1.8-0.6,2.5,0.1l0,0
	l0,0l0,0c0.7,0.7,0.6,1.8-0.1,2.5l0,0c-0.4,0.3-0.8,0.5-1.2,0.5l0,0C72.1,16.6,71.6,16.5,71.3,16.1z M12.9,14.5
	c-0.7-0.7-0.7-1.8,0-2.5l0,0c0.7-0.7,1.8-0.7,2.5,0l0,0c0.7,0.7,0.7,1.8,0,2.5l0,0C15,14.9,14.5,15,14.1,15l0,0
	C13.7,15,13.2,14.8,12.9,14.5z M68.1,13L68.1,13c-0.7-0.6-0.8-1.7-0.2-2.5l0,0c0.6-0.7,1.7-0.8,2.5-0.2l0,0c0.7,0.6,0.8,1.7,0.2,2.5
	l0,0c-0.3,0.4-0.8,0.6-1.3,0.6l0,0C68.8,13.4,68.4,13.3,68.1,13z M16.2,11.3c-0.6-0.8-0.5-1.9,0.3-2.5l0,0c0.8-0.6,1.9-0.4,2.5,0.3
	l0,0c0.6,0.8,0.4,1.9-0.3,2.5l0,0C18.4,11.9,18,12,17.6,12l0,0C17.1,12,16.6,11.7,16.2,11.3z M64.5,10.2c-0.8-0.5-1-1.6-0.4-2.4l0,0
	c0.5-0.8,1.6-1,2.4-0.4l0,0c0.8,0.5,1,1.6,0.5,2.4l0,0c-0.4,0.5-0.9,0.8-1.4,0.8l0,0C65.2,10.6,64.8,10.5,64.5,10.2z M20,8.5
	c-0.5-0.8-0.3-1.9,0.6-2.4l0,0c0.8-0.5,1.9-0.2,2.4,0.6l0,0c0.5,0.8,0.2,1.9-0.6,2.4l0,0c-0.3,0.2-0.6,0.3-0.9,0.3l0,0
	C20.9,9.3,20.3,9,20,8.5z M60.7,8c-0.9-0.4-1.2-1.5-0.7-2.4l0,0c0.4-0.9,1.5-1.2,2.4-0.7l0,0c0.8,0.4,1.2,1.5,0.7,2.4l0,0
	c-0.3,0.6-0.9,1-1.5,1l0,0C61.3,8.2,61,8.1,60.7,8z M24,6.1c-0.4-0.9,0-1.9,0.8-2.3l0,0c0.9-0.4,1.9,0,2.3,0.9l0,0
	c0.4,0.9,0,1.9-0.9,2.3l0,0c-0.2,0.1-0.5,0.2-0.7,0.2l0,0C24.9,7.2,24.3,6.8,24,6.1z M56.7,6.1c-0.9-0.3-1.4-1.4-1-2.3l0,0
	c0.3-0.9,1.4-1.4,2.3-1l0,0c0.9,0.3,1.4,1.4,1,2.3l0,0c-0.3,0.7-0.9,1.1-1.6,1.1l0,0C57.1,6.2,56.9,6.2,56.7,6.1z M28.2,4.3
	c-0.3-0.9,0.2-1.9,1.1-2.2l0,0c0.9-0.3,1.9,0.2,2.2,1.1l0,0c0.3,0.9-0.2,1.9-1.1,2.2l0,0c-0.2,0-0.4,0.1-0.5,0.1l0,0
	C29.2,5.5,28.5,5,28.2,4.3z M52.4,4.7c-0.9-0.3-1.5-1.2-1.2-2.1l0,0c0.2-0.9,1.2-1.5,2.1-1.2l0,0c0.9,0.2,1.5,1.2,1.3,2.1l0,0
	c-0.2,0.8-0.9,1.3-1.7,1.3l0,0C52.7,4.8,52.6,4.8,52.4,4.7z M32.7,2.9c-0.2-1,0.4-1.9,1.4-2.1l0,0c0.9-0.2,1.9,0.4,2.1,1.4l0,0
	c0.2,1-0.4,1.9-1.4,2.1l0,0c-0.1,0-0.2,0-0.3,0l0,0C33.6,4.3,32.9,3.7,32.7,2.9z M48.1,3.9c-1-0.1-1.6-1-1.5-2l0,0
	c0.1-1,1-1.6,2-1.5l0,0c1,0.1,1.6,1,1.5,2l0,0c-0.1,0.9-0.9,1.5-1.7,1.5l0,0C48.2,3.9,48.2,3.9,48.1,3.9z M37.3,2
	c-0.1-1,0.6-1.8,1.6-1.9l0,0c1-0.1,1.8,0.6,1.9,1.6l0,0c0.1,1-0.6,1.8-1.6,1.9l0,0c0,0-0.1,0-0.1,0l0,0C38.1,3.6,37.3,2.9,37.3,2z
	 M43.6,3.5c-1,0-1.7-0.8-1.7-1.8l0,0c0-1,0.8-1.7,1.8-1.7l0,0c1,0,1.7,0.8,1.7,1.8l0,0C45.4,2.7,44.6,3.5,43.6,3.5L43.6,3.5
	C43.7,3.5,43.6,3.5,43.6,3.5z"/>
<g>
	<g>
		<path class="st1" d="M64.8,48c0,11.2-7.4,20.3-16.5,20.3c-0.6,0-1.1,0-1.6-0.1l-0.3,0c0,0-0.1,0-0.1,0c-0.2,0-0.5-0.1-0.7-0.1
			c0,0,0,0-0.1,0c-0.2-0.1-0.5-0.1-0.7-0.2c0,0-0.1,0-0.1,0c-0.2-0.1-0.4-0.1-0.6-0.2c-0.1,0-0.1,0-0.2-0.1
			c-0.2-0.1-0.3-0.1-0.5-0.2c-0.1-0.1-0.3-0.1-0.4-0.2c-0.1,0-0.2-0.1-0.3-0.1c-3.8-1.7-6.9-5.1-8.8-9.4c0-0.1,0-0.1,0-0.1
			c-0.1-0.2-0.2-0.5-0.3-0.7c0-0.1-0.1-0.2-0.1-0.3c-0.1-0.2-0.1-0.4-0.2-0.6c0-0.1-0.1-0.2-0.1-0.4c0-0.2-0.1-0.3-0.2-0.5
			c0-0.1-0.1-0.3-0.1-0.4c0-0.2-0.1-0.3-0.1-0.5c0-0.2-0.1-0.3-0.1-0.4c0-0.2-0.1-0.3-0.1-0.5c0-0.2-0.1-0.3-0.1-0.5
			c0-0.2-0.1-0.3-0.1-0.5c0-0.2-0.1-0.3-0.1-0.5c0-0.2,0-0.3-0.1-0.5c0-0.2,0-0.3-0.1-0.5c0-0.2,0-0.4,0-0.5c0-0.2,0-0.3,0-0.4
			c0-0.2,0-0.4,0-0.6c0-0.1,0-0.2,0-0.4c0-0.3,0-0.7,0-1c0-0.3,0-0.7,0-1c0-0.1,0-0.2,0-0.4c0-0.2,0-0.4,0-0.6c0-0.1,0-0.3,0-0.4
			c0-0.2,0-0.4,0-0.6c0-0.2,0-0.3,0.1-0.5c0-0.2,0-0.3,0.1-0.5c0-0.2,0-0.3,0.1-0.5c0-0.2,0.1-0.3,0.1-0.5c0-0.2,0.1-0.3,0.1-0.5
			c0-0.2,0.1-0.3,0.1-0.5c0-0.2,0.1-0.3,0.1-0.4c0-0.2,0.1-0.3,0.1-0.5c0-0.1,0.1-0.3,0.1-0.4c0-0.2,0.1-0.3,0.2-0.5
			c0-0.1,0.1-0.3,0.1-0.4c0.1-0.2,0.1-0.4,0.2-0.6c0-0.1,0.1-0.2,0.1-0.3c0.1-0.2,0.2-0.5,0.3-0.7c0,0,0-0.1,0-0.1
			c1.9-4.3,5-7.7,8.8-9.4c0.1-0.1,0.2-0.1,0.3-0.1c0.1-0.1,0.3-0.1,0.4-0.2c0.2-0.1,0.4-0.1,0.5-0.2c0.1,0,0.1,0,0.2-0.1
			c0.2-0.1,0.4-0.1,0.6-0.2c0,0,0.1,0,0.1,0c0.2-0.1,0.5-0.1,0.7-0.2h0.1c0.2-0.1,0.5-0.1,0.7-0.1c0,0,0.1,0,0.1,0l0.3-0.1
			c0.5-0.1,1.1-0.1,1.6-0.1C57.4,27.7,64.8,36.8,64.8,48z"/>
		<path class="st0" d="M55,27.5c-0.7,0-1.4,0-2.1,0.1c-0.7-0.1-1.4-0.1-2.1-0.1c-5.2,0-9.9,2.5-13.2,6.5c0,0-0.1,0.1-0.1,0.1
			c-1,1.3-2,2.8-2.7,4.3l0,0.1c-0.5,1.1-0.9,2.3-1.2,3.5c0,0.1,0,0.1,0,0.2C33,44.1,32.8,46,32.8,48c0,3.1,0.6,6.1,1.7,8.7
			c0,0,0,0.1,0,0.1c0.6,1.6,1.5,3,2.4,4.3c0,0,0,0.1,0.1,0.1c1,1.3,2.1,2.5,3.4,3.5c0,0,0.1,0,0.1,0.1c2.9,2.3,6.5,3.7,10.3,3.7
			c0.7,0,1.4,0,2.1-0.2c0.7,0.1,1.4,0.2,2.1,0.2c9.9,0,18-9.2,18-20.5S65,27.5,55,27.5z M47.8,29.2c-0.1,0-0.2,0.1-0.2,0.1
			c-0.2,0.1-0.5,0.2-0.7,0.4c-0.1,0.1-0.2,0.1-0.4,0.2c-0.2,0.1-0.4,0.2-0.6,0.4h-1.4C45.6,29.9,46.7,29.5,47.8,29.2z M42.2,31.8h2
			c-0.2,0.2-0.4,0.3-0.6,0.5c-0.1,0.1-0.3,0.3-0.4,0.4c-0.1,0.1-0.3,0.3-0.4,0.4c-0.1,0.1-0.3,0.3-0.4,0.4c-0.1,0.1-0.2,0.2-0.3,0.4
			h-2.3C40.5,33.1,41.3,32.4,42.2,31.8z M38.5,35.3h2.5c-0.1,0.1-0.2,0.2-0.2,0.4c-0.2,0.3-0.4,0.6-0.6,1c-0.1,0.1-0.1,0.2-0.2,0.3
			c-0.2,0.3-0.3,0.6-0.5,0.8c-0.1,0.1-0.1,0.2-0.2,0.3c0,0,0,0,0,0h-2.6C37.2,37.1,37.8,36.2,38.5,35.3z M36,39.5h2.7
			c-0.1,0.3-0.2,0.6-0.4,0.9c0,0.1,0,0.2-0.1,0.3c-0.1,0.3-0.2,0.6-0.3,0.9h-2.8C35.4,40.9,35.7,40.2,36,39.5z M34.2,48
			c0-0.5,0-0.9,0-1.4h2.8c0,0,0,0,0,0c0,0.4,0,0.9,0,1.4c0,0.2,0,0.5,0,0.7h-2.8C34.2,48.5,34.2,48.3,34.2,48z M34.3,50.1h2.8
			c0,0.3,0.1,0.6,0.1,0.9v0c0,0.4,0.1,0.8,0.2,1.2h-2.8C34.5,51.6,34.4,50.9,34.3,50.1z M35,53.7h2.8c0,0.1,0,0.2,0.1,0.2V54
			c0.1,0.4,0.3,0.9,0.4,1.3c0,0.1,0.1,0.2,0.1,0.3c0,0.1,0.1,0.2,0.1,0.2h-2.7C35.4,55.1,35.2,54.4,35,53.7z M37.9,60
			c-0.6-0.9-1.2-1.8-1.6-2.8H39c0.1,0.2,0.2,0.5,0.3,0.7c0,0.1,0.1,0.2,0.2,0.3c0.2,0.3,0.3,0.6,0.5,0.8c0,0.1,0.1,0.2,0.2,0.3
			c0.1,0.2,0.2,0.4,0.4,0.6H37.9z M39,61.4h2.4c0.1,0.1,0.2,0.2,0.2,0.3c0.2,0.3,0.4,0.5,0.7,0.8c0.1,0.2,0.2,0.3,0.4,0.4
			c0.1,0.2,0.3,0.3,0.4,0.4c0.1,0,0.1,0.1,0.2,0.2h-2.1C40.4,62.9,39.7,62.2,39,61.4z M43.2,65H45c0.1,0.1,0.2,0.1,0.3,0.2
			c0.1,0.1,0.3,0.2,0.4,0.3c0.3,0.2,0.6,0.4,0.8,0.6c0.1,0.1,0.2,0.2,0.4,0.2c0.2,0.1,0.5,0.3,0.7,0.4c0.1,0,0.2,0.1,0.2,0.1
			C46.2,66.4,44.6,65.8,43.2,65z M55,67.1c-0.6,0-1.1,0-1.7-0.1l-0.3,0c0,0-0.1,0-0.1,0c-0.2,0-0.5-0.1-0.7-0.1c0,0,0,0-0.1,0
			c-0.2-0.1-0.5-0.1-0.7-0.2c0,0-0.1,0-0.1,0c-0.2-0.1-0.4-0.1-0.6-0.2c0,0-0.1,0-0.2-0.1c-0.2,0-0.3-0.1-0.5-0.2
			c-0.1,0-0.3-0.1-0.4-0.2c-0.1,0-0.2-0.1-0.3-0.1c-3.8-1.6-6.9-4.8-8.9-8.8c0,0,0-0.1,0-0.1c-0.1-0.2-0.2-0.4-0.3-0.7
			c0-0.1-0.1-0.2-0.1-0.3c-0.1-0.2-0.1-0.4-0.2-0.5c0-0.1-0.1-0.2-0.1-0.4c0-0.2-0.1-0.3-0.2-0.5c0-0.1-0.1-0.3-0.1-0.4
			c0-0.2-0.1-0.3-0.1-0.5c0-0.1-0.1-0.3-0.1-0.4c0-0.2-0.1-0.3-0.1-0.5c0-0.1-0.1-0.3-0.1-0.4c0-0.2-0.1-0.3-0.1-0.5
			c0-0.1-0.1-0.3-0.1-0.4c0-0.2,0-0.3-0.1-0.4c0-0.2,0-0.3,0-0.4c0-0.2,0-0.3-0.1-0.5c0-0.1,0-0.3,0-0.4c0-0.2,0-0.4,0-0.6v-0.4
			c0-0.3,0-0.6,0-0.9c0-0.3,0-0.6,0-0.9v-0.3c0-0.2,0-0.4,0-0.6c0-0.1,0-0.3,0-0.4c0-0.2,0-0.4,0.1-0.5c0-0.2,0-0.3,0-0.4
			c0-0.2,0.1-0.3,0.1-0.5c0-0.1,0-0.3,0.1-0.4c0-0.2,0-0.3,0.1-0.5c0-0.1,0.1-0.3,0.1-0.4c0-0.2,0.1-0.3,0.1-0.4
			c0-0.2,0.1-0.3,0.1-0.4s0.1-0.3,0.1-0.4c0-0.1,0.1-0.3,0.1-0.4c0-0.2,0.1-0.3,0.2-0.5c0.1-0.1,0.1-0.2,0.1-0.4
			c0.1-0.2,0.2-0.4,0.2-0.5c0-0.1,0.1-0.2,0.1-0.3c0.1-0.2,0.2-0.4,0.3-0.7c0,0,0-0.1,0-0.1c1.9-4,5.1-7.2,8.9-8.8
			c0.1,0,0.2-0.1,0.3-0.1c0.1,0,0.3-0.1,0.4-0.2c0.2-0.1,0.4-0.1,0.5-0.2c0.1,0,0.2,0,0.2-0.1c0.2-0.1,0.4-0.1,0.6-0.2
			c0,0,0.1,0,0.1,0c0.2,0,0.4-0.1,0.7-0.2h0.1c0.2,0,0.5-0.1,0.7-0.1h0.1l0.3-0.1c0.5,0,1.1-0.1,1.7-0.1c9.2,0,16.6,8.5,16.6,19.1
			S64.2,67.1,55,67.1z"/>
	</g>
	<path class="st1" d="M34.8,43.1h2.8c0,0.1,0,0.2,0,0.3c0,0.1,0,0.2-0.1,0.3c-0.1,0.4-0.2,0.9-0.2,1.4V45c0,0,0,0.1,0,0.2h-2.8
		C34.5,44.5,34.6,43.8,34.8,43.1z"/>
	<path class="st1" d="M47.8,29.2c-0.1,0-0.2,0.1-0.2,0.1c-0.2,0.1-0.5,0.2-0.7,0.4c-0.1,0.1-0.2,0.1-0.4,0.2
		c-0.2,0.1-0.4,0.2-0.6,0.4h-1.4C45.6,29.9,46.7,29.5,47.8,29.2z"/>
	<path class="st1" d="M47.8,66.8c-1.6-0.3-3.2-1-4.6-1.8H45c0.1,0.1,0.2,0.1,0.3,0.2c0.1,0.1,0.3,0.2,0.4,0.3
		c0.3,0.2,0.6,0.4,0.8,0.6c0.1,0.1,0.2,0.2,0.4,0.2c0.2,0.1,0.5,0.3,0.7,0.4C47.7,66.7,47.7,66.7,47.8,66.8z"/>
	<path class="st1" d="M43.3,63.5h-2.1c-0.8-0.6-1.5-1.3-2.2-2.1h2.4c0.1,0.1,0.2,0.2,0.2,0.3c0.2,0.3,0.4,0.5,0.7,0.8
		c0.1,0.2,0.2,0.3,0.4,0.4c0.1,0.2,0.3,0.3,0.4,0.4C43.2,63.4,43.3,63.5,43.3,63.5z"/>
	<path class="st1" d="M40.5,60h-2.6c-0.6-0.9-1.2-1.8-1.6-2.8H39c0.1,0.2,0.2,0.5,0.3,0.7c0,0.1,0.1,0.2,0.2,0.3
		c0.2,0.3,0.3,0.6,0.5,0.8c0,0.1,0.1,0.2,0.2,0.3C40.2,59.6,40.3,59.8,40.5,60z"/>
	<path class="st1" d="M38.4,55.8h-2.7c-0.3-0.7-0.5-1.4-0.7-2.1h2.8c0,0.1,0,0.2,0.1,0.2V54c0.1,0.4,0.3,0.9,0.4,1.3
		c0,0.1,0.1,0.2,0.1,0.3C38.3,55.6,38.4,55.7,38.4,55.8z"/>
	<path class="st1" d="M37.4,52.2h-2.8c-0.1-0.7-0.2-1.4-0.3-2.1h2.8c0,0.3,0.1,0.6,0.1,0.9v0C37.3,51.5,37.3,51.8,37.4,52.2z"/>
	<path class="st1" d="M37.1,46.6c0,0.4,0,0.9,0,1.4c0,0.2,0,0.5,0,0.7h-2.8c0-0.2,0-0.5,0-0.7c0-0.5,0-0.9,0-1.4L37.1,46.6
		C37.1,46.6,37.1,46.6,37.1,46.6z"/>
	<path class="st1" d="M38.7,39.5c-0.1,0.3-0.2,0.6-0.4,0.9c0,0.1,0,0.2-0.1,0.3c-0.1,0.3-0.2,0.6-0.3,0.9h-2.8
		c0.2-0.7,0.5-1.4,0.8-2.1H38.7z"/>
	<path class="st1" d="M44.1,31.8c-0.2,0.2-0.4,0.3-0.6,0.5c-0.1,0.1-0.3,0.3-0.4,0.4c-0.1,0.1-0.3,0.3-0.4,0.4
		c-0.1,0.1-0.3,0.3-0.4,0.4c-0.1,0.1-0.2,0.2-0.3,0.4h-2.3c0.8-0.8,1.6-1.5,2.5-2.1H44.1z"/>
	<path class="st1" d="M40.9,35.3c-0.1,0.1-0.2,0.2-0.2,0.4c-0.2,0.3-0.4,0.6-0.6,1c-0.1,0.1-0.1,0.2-0.2,0.3
		c-0.2,0.3-0.3,0.6-0.5,0.8c-0.1,0.1-0.1,0.2-0.2,0.3c0,0,0,0,0,0h-2.6c0.5-1,1.1-2,1.8-2.8H40.9z"/>
</g>
<g>
	<path class="st2" d="M46.6,39.5v17.2l9.8-8.6L46.6,39.5z M46.6,39.5"/>
	<path class="st2" d="M56.4,39.5v17.2l9.9-8.6L56.4,39.5z M56.4,39.5"/>
</g>
</svg>
