<?xml version="1.0" encoding="utf-8"?>
<!-- Generator: Adobe Illustrator 19.2.0, SVG Export Plug-In . SVG Version: 6.00 Build 0)  -->
<svg version="1.1" id="Layer_1" xmlns="http://www.w3.org/2000/svg" xmlns:xlink="http://www.w3.org/1999/xlink" x="0px" y="0px"
	 viewBox="0 0 85 85.1" style="enable-background:new 0 0 85 85.1;" xml:space="preserve">
<style type="text/css">
	.st0{fill:#C8C3C2;}
	.st1{fill:#DB702A;}
</style>
<path class="st0" d="M42.1,83.4c0-1,0.7-1.8,1.7-1.8l0,0c1,0,1.8,0.7,1.8,1.7l0,0c0,1-0.7,1.8-1.7,1.8l0,0c0,0,0,0,0,0l0,0
	c0,0,0,0-0.1,0l0,0C42.9,85.1,42.1,84.3,42.1,83.4z M39.1,84.9L39.1,84.9L39.1,84.9c-1-0.1-1.7-0.9-1.6-1.9l0,0
	c0.1-1,0.9-1.7,1.9-1.6l0,0c1,0.1,1.7,0.9,1.6,1.9l0,0c-0.1,0.9-0.8,1.6-1.8,1.6l0,0C39.1,84.9,39.1,84.9,39.1,84.9z M46.8,83.1
	c-0.1-1,0.5-1.8,1.5-2l0,0c1-0.1,1.8,0.5,2,1.5l0,0c0.1,1-0.5,1.8-1.5,2l0,0c-0.1,0-0.2,0-0.3,0l0,0C47.6,84.6,46.9,84,46.8,83.1z
	 M34.2,84.3L34.2,84.3L34.2,84.3c-1-0.2-1.6-1.1-1.4-2.1l0,0c0.2-0.9,1.1-1.6,2.1-1.4l0,0c1,0.2,1.6,1.1,1.4,2.1l0,0
	c-0.2,0.8-0.9,1.4-1.7,1.4l0,0C34.5,84.3,34.4,84.3,34.2,84.3z M51.4,82.4c-0.3-0.9,0.3-1.9,1.2-2.1l0,0c0.9-0.3,1.9,0.3,2.1,1.2
	l0,0c0.2,0.9-0.3,1.9-1.2,2.1l0,0c-0.2,0-0.3,0-0.5,0l0,0C52.3,83.7,51.6,83.2,51.4,82.4z M29.5,83c-0.9-0.3-1.4-1.3-1.1-2.2l0,0
	c0.3-0.9,1.3-1.4,2.2-1.1v0c0.9,0.3,1.4,1.3,1.1,2.2l0,0c-0.2,0.7-0.9,1.2-1.7,1.2l0,0C29.9,83.1,29.7,83.1,29.5,83z M55.8,81.1
	c-0.3-0.9,0.1-1.9,1-2.3l0,0c0.9-0.4,1.9,0.1,2.3,1l0,0c0.4,0.9-0.1,1.9-1,2.3l0,0l0,0l0,0c-0.2,0.1-0.4,0.1-0.6,0.1l0,0
	C56.8,82.3,56.1,81.8,55.8,81.1z M25,81.3C25,81.3,25,81.3,25,81.3L25,81.3c-0.9-0.4-1.3-1.4-0.9-2.3l0,0c0.4-0.9,1.4-1.3,2.3-0.9
	l0,0c0.9,0.4,1.3,1.4,0.9,2.3l0,0c-0.3,0.7-0.9,1-1.6,1l0,0C25.5,81.4,25.2,81.4,25,81.3z M60.2,79.4c-0.5-0.9-0.1-1.9,0.7-2.4l0,0
	c0.8-0.4,1.9-0.1,2.4,0.7l0,0c0.5,0.9,0.1,1.9-0.7,2.4l0,0c-0.3,0.1-0.5,0.2-0.8,0.2l0,0C61.1,80.3,60.5,80,60.2,79.4z M20.7,79
	c-0.8-0.5-1.1-1.6-0.6-2.4l0,0c0.5-0.8,1.6-1.1,2.4-0.6l0,0c0.8,0.5,1.1,1.6,0.6,2.4l0,0c-0.3,0.5-0.9,0.9-1.5,0.9l0,0
	C21.3,79.3,21,79.2,20.7,79z M64.2,77.1c-0.6-0.8-0.4-1.9,0.4-2.4l0,0c0.8-0.6,1.9-0.4,2.4,0.4l0,0c0.6,0.8,0.4,1.9-0.4,2.5l0,0
	c-0.3,0.2-0.7,0.3-1,0.3l0,0C65.1,77.9,64.6,77.6,64.2,77.1z M16.7,76.3c-0.8-0.6-0.9-1.7-0.3-2.5l0,0c0.6-0.8,1.7-0.9,2.5-0.3l0,0
	c0.8,0.6,0.9,1.7,0.3,2.5l0,0c-0.3,0.4-0.9,0.7-1.4,0.7l0,0C17.4,76.7,17,76.5,16.7,76.3z M68,74.4c-0.6-0.7-0.6-1.8,0.2-2.5l0,0
	c0.7-0.6,1.8-0.6,2.5,0.2l0,0c0.6,0.7,0.6,1.8-0.2,2.5l0,0c-0.3,0.3-0.7,0.4-1.1,0.4l0,0C68.9,75,68.4,74.8,68,74.4z M13,73.1
	c-0.7-0.7-0.7-1.8,0-2.5l0,0c0.7-0.7,1.8-0.7,2.5,0l0,0c0.7,0.7,0.7,1.8,0,2.5l0,0c-0.3,0.4-0.8,0.5-1.3,0.5l0,0
	C13.8,73.6,13.4,73.5,13,73.1z M71.5,71.3c-0.7-0.7-0.8-1.8-0.1-2.5l0,0c0.7-0.7,1.8-0.8,2.5-0.1l0,0c0.7,0.7,0.8,1.8,0.1,2.5l0,0
	c-0.4,0.4-0.8,0.6-1.3,0.6l0,0C72.2,71.8,71.8,71.6,71.5,71.3z M9.7,69.6C9.7,69.6,9.7,69.6,9.7,69.6L9.7,69.6
	c-0.6-0.8-0.5-1.9,0.2-2.5l0,0c0.7-0.6,1.8-0.5,2.5,0.2l0,0c0.6,0.7,0.5,1.8-0.2,2.5l0,0c-0.3,0.3-0.7,0.4-1.1,0.4l0,0
	C10.6,70.2,10.1,70,9.7,69.6z M74.6,67.8c-0.8-0.6-1-1.7-0.4-2.4l0,0c0.6-0.8,1.7-1,2.4-0.4l0,0c0.8,0.6,1,1.7,0.4,2.5l0,0
	c-0.3,0.5-0.9,0.7-1.4,0.7l0,0C75.3,68.2,74.9,68.1,74.6,67.8z M6.8,65.7c-0.5-0.8-0.3-1.9,0.5-2.4l0,0c0.8-0.5,1.9-0.3,2.4,0.5l0,0
	c0.5,0.8,0.3,1.9-0.5,2.4l0,0c-0.3,0.2-0.6,0.3-1,0.3l0,0C7.7,66.5,7.2,66.2,6.8,65.7z M77.3,64c-0.8-0.5-1.1-1.5-0.7-2.4l0,0
	c0.5-0.8,1.5-1.1,2.4-0.7l0,0c0.8,0.5,1.1,1.5,0.7,2.4l0,0c0,0,0,0,0,0l0,0c-0.3,0.6-0.9,0.9-1.5,0.9l0,0
	C77.8,64.3,77.5,64.2,77.3,64z M4.4,61.4c-0.4-0.9-0.1-1.9,0.8-2.3l0,0c0.9-0.4,1.9-0.1,2.3,0.8l0,0c0.4,0.9,0.1,1.9-0.8,2.4l0,0
	c-0.3,0.1-0.5,0.2-0.8,0.2l0,0C5.4,62.4,4.7,62,4.4,61.4z M79.5,59.9c-0.9-0.4-1.3-1.4-0.9-2.3l0,0c0.4-0.9,1.4-1.3,2.3-0.9l0,0
	c0.9,0.4,1.3,1.4,0.9,2.3l0,0c0,0,0,0,0,0l0,0c-0.3,0.7-0.9,1.1-1.6,1.1l0,0C79.9,60.1,79.7,60,79.5,59.9z M2.5,57
	c-0.3-0.9,0.1-1.9,1.1-2.2l0,0c0.9-0.3,1.9,0.1,2.2,1.1l0,0c0.3,0.9-0.1,1.9-1,2.2l0,0c-0.2,0.1-0.4,0.1-0.6,0.1l0,0
	C3.5,58.1,2.8,57.7,2.5,57z M81.2,55.6c-0.9-0.3-1.4-1.2-1.2-2.2l0,0c0.3-0.9,1.2-1.4,2.2-1.2l0,0c0.9,0.3,1.5,1.2,1.2,2.2l0,0
	c0,0,0,0,0,0l0,0c-0.2,0.8-0.9,1.3-1.7,1.3l0,0C81.6,55.7,81.4,55.6,81.2,55.6z M1.1,52.3c-0.2-0.9,0.4-1.9,1.3-2.1l0,0
	c0.9-0.2,1.9,0.4,2.1,1.3l0,0c0.2,0.9-0.4,1.9-1.3,2.1l0,0c-0.1,0-0.3,0-0.4,0l0,0C2.1,53.7,1.3,53.1,1.1,52.3z M82.5,51.1
	c-1-0.2-1.6-1.1-1.4-2l0,0c0.2-1,1.1-1.6,2-1.4l0,0c1,0.2,1.6,1.1,1.4,2l0,0c0,0,0,0,0,0l0,0c-0.1,0.9-0.9,1.5-1.7,1.5l0,0
	C82.7,51.1,82.6,51.1,82.5,51.1z M0.3,47.6L0.3,47.6L0.3,47.6c-0.1-1,0.6-1.8,1.5-2l0,0c1-0.1,1.8,0.6,1.9,1.5l0,0
	c0.1,1-0.6,1.8-1.5,1.9l0,0c-0.1,0-0.1,0-0.2,0l0,0C1.2,49.1,0.4,48.4,0.3,47.6z M83.2,46.5c-1-0.1-1.7-0.9-1.7-1.8l0,0
	c0-1,0.9-1.7,1.8-1.7l0,0c1,0,1.7,0.9,1.7,1.8l0,0l0,0l0,0C85,45.8,84.2,46.5,83.2,46.5L83.2,46.5C83.3,46.5,83.2,46.5,83.2,46.5z
	 M0,42.7C0,42.7,0,42.6,0,42.7L0,42.7c0-0.1,0-0.1,0-0.2l0,0c0-1,0.8-1.8,1.8-1.8l0,0c1,0,1.8,0.8,1.8,1.8l0,0c0,0,0,0,0,0.1l0,0
	c0,0,0,0,0,0.1l0,0c0,1-0.8,1.8-1.7,1.8l0,0h0l0,0C0.8,44.4,0,43.7,0,42.7z M81.5,40.2L81.5,40.2c0-1,0.7-1.8,1.6-1.8l0,0
	c1-0.1,1.8,0.7,1.9,1.6l0,0c0,1-0.7,1.8-1.7,1.8l0,0c0,0-0.1,0-0.1,0l0,0C82.4,41.9,81.6,41.2,81.5,40.2z M1.8,39.6
	c-1-0.1-1.7-1-1.5-1.9l0,0c0.1-1,1-1.7,1.9-1.5l0,0c1,0.1,1.7,1,1.5,1.9l0,0C3.7,39,2.9,39.6,2,39.6l0,0C2,39.6,1.9,39.6,1.8,39.6z
	 M81,35.8c-0.2-1,0.5-1.9,1.4-2l0,0c1-0.2,1.9,0.5,2,1.4l0,0c0.2,1-0.5,1.9-1.4,2l0,0c-0.1,0-0.2,0-0.3,0l0,0
	C81.9,37.2,81.2,36.6,81,35.8z M2.4,35c-0.9-0.2-1.5-1.2-1.3-2.1l0,0l0,0l0,0c0.2-0.9,1.2-1.5,2.1-1.3l0,0c1,0.2,1.5,1.2,1.3,2.1
	l0,0C4.3,34.5,3.6,35,2.8,35l0,0C2.7,35,2.5,35,2.4,35z M80,31.4L80,31.4c-0.3-0.9,0.3-1.9,1.2-2.2l0,0c0.9-0.3,1.9,0.3,2.2,1.2l0,0
	l0,0l0,0c0.3,0.9-0.3,1.9-1.2,2.2l0,0c-0.2,0-0.3,0.1-0.5,0.1l0,0C80.9,32.7,80.2,32.2,80,31.4z M3.5,30.5c-0.9-0.3-1.4-1.3-1.1-2.2
	l0,0c0.3-0.9,1.3-1.4,2.2-1.1l0,0c0.9,0.3,1.4,1.3,1,2.2l0,0c-0.3,0.7-0.9,1.2-1.7,1.2l0,0C3.9,30.6,3.7,30.5,3.5,30.5z M78.5,27.3
	c-0.4-0.9,0-1.9,0.9-2.3l0,0c0.9-0.4,1.9,0,2.3,0.9l0,0c0.4,0.9,0,1.9-0.9,2.3l0,0c-0.2,0.1-0.4,0.1-0.7,0.1l0,0
	C79.4,28.3,78.8,27.9,78.5,27.3z M5.2,26.1c-0.9-0.4-1.2-1.5-0.8-2.3l0,0c0.4-0.9,1.5-1.2,2.3-0.8l0,0c0.9,0.4,1.2,1.5,0.8,2.4l0,0
	c-0.3,0.6-0.9,1-1.6,1l0,0C5.7,26.3,5.4,26.2,5.2,26.1z M76.5,23.3c-0.5-0.8-0.2-1.9,0.7-2.4l0,0c0.8-0.5,1.9-0.2,2.4,0.7l0,0
	c0.5,0.8,0.2,1.9-0.7,2.4l0,0c-0.3,0.2-0.6,0.2-0.9,0.2l0,0C77.5,24.2,76.8,23.8,76.5,23.3z M7.3,21.9c-0.8-0.5-1-1.6-0.5-2.4l0,0
	c0.5-0.8,1.6-1,2.4-0.5l0,0c0.8,0.5,1.1,1.6,0.5,2.4l0,0c-0.3,0.5-0.9,0.8-1.5,0.8l0,0C7.9,22.2,7.6,22.1,7.3,21.9z M74.1,19.5
	L74.1,19.5c-0.6-0.8-0.4-1.9,0.4-2.5l0,0c0.8-0.6,1.9-0.4,2.5,0.4l0,0l0,0l0,0c0.6,0.8,0.4,1.9-0.4,2.5l0,0c-0.3,0.2-0.7,0.3-1,0.3
	l0,0C75,20.2,74.5,20,74.1,19.5z M9.8,18.1c-0.7-0.6-0.9-1.7-0.2-2.5l0,0c0.6-0.7,1.7-0.8,2.5-0.2l0,0c0.7,0.6,0.9,1.7,0.3,2.5l0,0
	c-0.3,0.4-0.9,0.7-1.4,0.7l0,0C10.6,18.5,10.2,18.3,9.8,18.1z M71.3,16.1c-0.7-0.7-0.6-1.8,0.1-2.5l0,0c0.7-0.7,1.8-0.6,2.5,0.1l0,0
	l0,0l0,0c0.7,0.7,0.6,1.8-0.1,2.5l0,0c-0.4,0.3-0.8,0.5-1.2,0.5l0,0C72.1,16.6,71.6,16.5,71.3,16.1z M12.9,14.5
	c-0.7-0.7-0.7-1.8,0-2.5l0,0c0.7-0.7,1.8-0.7,2.5,0l0,0c0.7,0.7,0.7,1.8,0,2.5l0,0C15,14.9,14.5,15,14.1,15l0,0
	C13.7,15,13.2,14.8,12.9,14.5z M68.1,13L68.1,13c-0.7-0.6-0.8-1.7-0.2-2.5l0,0c0.6-0.7,1.7-0.8,2.5-0.2l0,0c0.7,0.6,0.8,1.7,0.2,2.5
	l0,0c-0.3,0.4-0.8,0.6-1.3,0.6l0,0C68.8,13.4,68.4,13.3,68.1,13z M16.2,11.3c-0.6-0.8-0.5-1.9,0.3-2.5l0,0c0.8-0.6,1.9-0.4,2.5,0.3
	l0,0c0.6,0.8,0.4,1.9-0.3,2.5l0,0C18.4,11.9,18,12,17.6,12l0,0C17.1,12,16.6,11.7,16.2,11.3z M64.5,10.2c-0.8-0.5-1-1.6-0.4-2.4l0,0
	c0.5-0.8,1.6-1,2.4-0.4l0,0c0.8,0.5,1,1.6,0.5,2.4l0,0c-0.4,0.5-0.9,0.8-1.4,0.8l0,0C65.2,10.6,64.8,10.5,64.5,10.2z M20,8.5
	c-0.5-0.8-0.3-1.9,0.6-2.4l0,0c0.8-0.5,1.9-0.2,2.4,0.6l0,0c0.5,0.8,0.2,1.9-0.6,2.4l0,0c-0.3,0.2-0.6,0.3-0.9,0.3l0,0
	C20.9,9.3,20.3,9,20,8.5z M60.7,8c-0.9-0.4-1.2-1.5-0.7-2.4l0,0c0.4-0.9,1.5-1.2,2.4-0.7l0,0c0.8,0.4,1.2,1.5,0.7,2.4l0,0
	c-0.3,0.6-0.9,1-1.5,1l0,0C61.3,8.2,61,8.1,60.7,8z M24,6.1c-0.4-0.9,0-1.9,0.8-2.3l0,0c0.9-0.4,1.9,0,2.3,0.9l0,0
	c0.4,0.9,0,1.9-0.9,2.3l0,0c-0.2,0.1-0.5,0.2-0.7,0.2l0,0C24.9,7.2,24.3,6.8,24,6.1z M56.7,6.1c-0.9-0.3-1.4-1.4-1-2.3l0,0
	c0.3-0.9,1.4-1.4,2.3-1l0,0c0.9,0.3,1.4,1.4,1,2.3l0,0c-0.3,0.7-0.9,1.1-1.6,1.1l0,0C57.1,6.2,56.9,6.2,56.7,6.1z M28.2,4.3
	c-0.3-0.9,0.2-1.9,1.1-2.2l0,0c0.9-0.3,1.9,0.2,2.2,1.1l0,0c0.3,0.9-0.2,1.9-1.1,2.2l0,0c-0.2,0-0.4,0.1-0.5,0.1l0,0
	C29.2,5.5,28.5,5,28.2,4.3z M52.4,4.7c-0.9-0.3-1.5-1.2-1.2-2.1l0,0c0.2-0.9,1.2-1.5,2.1-1.2l0,0c0.9,0.2,1.5,1.2,1.3,2.1l0,0
	c-0.2,0.8-0.9,1.3-1.7,1.3l0,0C52.7,4.8,52.6,4.8,52.4,4.7z M32.7,2.9c-0.2-1,0.4-1.9,1.4-2.1l0,0c0.9-0.2,1.9,0.4,2.1,1.4l0,0
	c0.2,1-0.4,1.9-1.4,2.1l0,0c-0.1,0-0.2,0-0.3,0l0,0C33.6,4.3,32.9,3.7,32.7,2.9z M48.1,3.9c-1-0.1-1.6-1-1.5-2l0,0
	c0.1-1,1-1.6,2-1.5l0,0c1,0.1,1.6,1,1.5,2l0,0c-0.1,0.9-0.9,1.5-1.7,1.5l0,0C48.2,3.9,48.2,3.9,48.1,3.9z M37.3,2
	c-0.1-1,0.6-1.8,1.6-1.9l0,0c1-0.1,1.8,0.6,1.9,1.6l0,0c0.1,1-0.6,1.8-1.6,1.9l0,0c0,0-0.1,0-0.1,0l0,0C38.1,3.6,37.3,2.9,37.3,2z
	 M43.6,3.5c-1,0-1.7-0.8-1.7-1.8l0,0c0-1,0.8-1.7,1.8-1.7l0,0c1,0,1.7,0.8,1.7,1.8l0,0C45.4,2.7,44.6,3.5,43.6,3.5L43.6,3.5
	C43.7,3.5,43.6,3.5,43.6,3.5z"/>
<g>
	<g>
		<path class="st1" d="M50.7,41c-0.7,0-1.2,0-1.8-0.1c-0.5-0.1-1.1-0.1-1.6-0.2c-0.6-0.1-1.2-0.3-1.8-0.5c-0.5-0.2-1-0.4-1.4-0.7
			c-0.2-0.2-0.4-0.4-0.6-0.6c-0.2-0.3-0.2-0.7,0-1c0.2-0.4,0.6-0.7,1-0.9c0.6-0.3,1.3-0.5,2-0.7c0.5-0.1,1-0.2,1.5-0.3
			c0.5-0.1,1-0.1,1.5-0.1c0.5,0,1,0,1.6,0c0.4,0,0.9,0.1,1.3,0.1c0.2,0,0.5,0,0.7,0.1c1.2,0.2,2.3,0.4,3.4,1
			c0.3,0.2,0.6,0.3,0.8,0.6c0.1,0.1,0.2,0.2,0.3,0.4c0.2,0.3,0.2,0.7,0,1c-0.3,0.4-0.6,0.7-1,0.9c-0.6,0.3-1.3,0.5-2,0.7
			c-0.5,0.1-1,0.2-1.5,0.3c-0.5,0.1-0.9,0.1-1.4,0.1C51.3,40.9,50.9,41,50.7,41z"/>
		<path class="st1" d="M42.5,50.2c-0.6,0-1.1,0-1.7-0.1c-1.1-0.1-2.1-0.3-3.2-0.6c-0.6-0.2-1.2-0.4-1.7-0.8
			c-0.2-0.2-0.4-0.4-0.6-0.6c-0.2-0.3-0.2-0.7,0-1c0.3-0.4,0.6-0.7,1-0.9c0.6-0.3,1.3-0.6,2-0.7c0.5-0.1,1-0.2,1.5-0.3
			c0.5-0.1,1-0.1,1.5-0.1c0.5,0,1,0,1.5,0c0.5,0,0.9,0.1,1.4,0.1c0.4,0,0.8,0.1,1.1,0.1c1,0.2,2.1,0.4,3,0.9
			c0.3,0.2,0.5,0.3,0.8,0.6c0.5,0.6,0.5,1,0,1.6c-0.2,0.3-0.5,0.5-0.8,0.6c-0.6,0.3-1.3,0.5-2,0.7c-0.5,0.1-1,0.2-1.5,0.3
			c-0.5,0.1-0.9,0.1-1.4,0.1C43.1,50.1,42.8,50.1,42.5,50.2z"/>
		<path class="st1" d="M34.3,34.8c-0.6,0-1.2,0-1.7-0.1c-1.2-0.1-2.3-0.3-3.4-0.7c-0.5-0.2-1-0.4-1.4-0.7c-0.2-0.2-0.4-0.4-0.6-0.6
			c-0.2-0.3-0.2-0.7,0-1c0.3-0.4,0.6-0.7,1-0.9c0.6-0.3,1.3-0.5,2-0.7c0.5-0.1,1-0.2,1.5-0.3c0.5-0.1,1-0.1,1.5-0.1c0.5,0,1,0,1.5,0
			c0.5,0,0.9,0.1,1.4,0.1c0.4,0,0.8,0.1,1.1,0.1c0.8,0.1,1.5,0.3,2.2,0.6c0.4,0.2,0.8,0.4,1.2,0.6c0.2,0.2,0.4,0.4,0.6,0.6
			c0.2,0.3,0.2,0.7,0,1c-0.3,0.4-0.6,0.7-1.1,0.9c-0.6,0.3-1.3,0.5-2,0.7c-0.5,0.1-1,0.2-1.5,0.3c-0.5,0.1-1,0.1-1.5,0.1
			C34.9,34.8,34.6,34.8,34.3,34.8z"/>
		<path class="st1" d="M34.3,37.9c-0.6,0-1.1,0-1.6-0.1c-1.1-0.1-2.1-0.3-3.2-0.6c-0.6-0.2-1.2-0.4-1.7-0.8
			c-0.3-0.2-0.6-0.5-0.7-0.9c0-0.1,0-0.1,0-0.2c0-0.4,0-0.8,0-1.2c0,0,0-0.1,0-0.1c0,0,0,0.1,0,0.1c0.1,0.3,0.3,0.5,0.5,0.7
			c0.7,0.6,1.6,0.8,2.4,1.1c0.6,0.2,1.3,0.3,1.9,0.3c1.1,0.1,2.2,0.1,3.2,0.1c0.5,0,1.1-0.1,1.6-0.2c0.6-0.1,1.3-0.2,1.9-0.4
			c0.6-0.2,1.2-0.4,1.7-0.7c0.3-0.2,0.7-0.5,0.8-0.9c0,0,0,0,0-0.1c0,0,0,0,0,0.1c0,0.4,0,0.9,0,1.3c0,0.3-0.2,0.5-0.4,0.7
			c-0.2,0.3-0.5,0.5-0.8,0.6c-0.6,0.3-1.3,0.5-2,0.7c-0.5,0.1-1,0.2-1.5,0.3c-0.5,0.1-1,0.1-1.4,0.1C34.9,37.9,34.6,37.9,34.3,37.9z
			"/>
		<path class="st1" d="M42.4,56.3c-0.5,0-1.1,0-1.6-0.1c-1-0.1-1.9-0.2-2.8-0.5c-0.7-0.2-1.4-0.5-1.9-0.9c-0.3-0.2-0.6-0.5-0.7-0.9
			c0,0,0-0.1,0-0.1c0-0.4,0-0.9,0-1.3c0,0,0,0,0-0.1c0,0,0,0,0,0.1c0.2,0.4,0.5,0.7,0.8,0.9c0.7,0.4,1.4,0.7,2.2,0.9
			c0.5,0.1,1.1,0.2,1.6,0.3c0.3,0.1,0.7,0,1,0.1c0.8,0.1,1.7,0.1,2.5,0c0.4,0,0.8-0.1,1.2-0.1c0.5,0,0.9-0.1,1.3-0.2
			c0.8-0.2,1.6-0.4,2.4-0.8c0.3-0.1,0.5-0.3,0.7-0.5c0.2-0.2,0.4-0.4,0.4-0.6c0,0,0-0.1,0-0.1c0,0,0,0.1,0,0.1c0,0.4,0,0.8,0,1.2
			c0,0.3-0.2,0.5-0.4,0.7c-0.2,0.2-0.5,0.4-0.8,0.6c-0.5,0.3-1.1,0.5-1.7,0.7c-0.5,0.1-1,0.2-1.4,0.3c-0.2,0-0.5,0.1-0.8,0.1
			c-0.4,0-0.9,0.1-1.3,0.1C42.9,56.3,42.6,56.3,42.4,56.3C42.4,56.3,42.4,56.3,42.4,56.3z"/>
		<path class="st1" d="M42.5,53.2c-0.6,0-1.1,0-1.6-0.1c-1.2-0.1-2.4-0.3-3.5-0.7c-0.5-0.2-1-0.4-1.4-0.7c-0.3-0.2-0.6-0.5-0.7-0.9
			c0-0.1,0-0.1,0-0.2c0-0.4,0-0.8,0-1.1c0,0,0-0.1,0-0.1c0,0,0,0.1,0,0.1c0.2,0.3,0.4,0.6,0.8,0.8c0.8,0.5,1.6,0.8,2.6,1
			c0.4,0.1,0.8,0.2,1.3,0.2c0.2,0,0.4,0,0.6,0.1c1,0.1,1.9,0.1,2.9,0.1c0.4,0,0.7-0.1,1.1-0.1c0.2,0,0.4,0,0.6-0.1
			c1.1-0.1,2.2-0.4,3.2-0.9c0.3-0.1,0.5-0.3,0.8-0.5c0.2-0.2,0.4-0.4,0.5-0.6c0,0,0,0,0-0.1c0,0,0,0,0,0.1c0,0.4,0,0.8,0,1.2
			c0,0.3-0.2,0.5-0.4,0.7c-0.2,0.3-0.5,0.4-0.8,0.6c-0.6,0.3-1.3,0.5-2,0.7c-0.5,0.1-1,0.2-1.5,0.3c-0.5,0.1-1,0.1-1.4,0.1
			C43.1,53.2,42.7,53.2,42.5,53.2z"/>
		<path class="st1" d="M34.3,41c-0.6,0-1.2,0-1.7-0.1c-0.5-0.1-1.1-0.2-1.6-0.2c-0.6-0.1-1.2-0.3-1.8-0.5c-0.5-0.2-1-0.4-1.4-0.7
			c-0.3-0.2-0.6-0.5-0.7-0.9c0-0.1,0-0.1,0-0.2c0-0.4,0-0.8,0-1.2c0,0,0-0.1,0-0.1c0,0,0,0,0,0.1c0.2,0.4,0.5,0.7,0.8,0.9
			c0.7,0.4,1.4,0.7,2.2,0.9c0.5,0.1,1,0.2,1.6,0.3c0.3,0.1,0.7,0,1,0.1c0.8,0.1,1.6,0.1,2.4,0c0.4,0,0.8-0.1,1.3-0.1
			c0.3,0,0.7-0.1,1-0.1c0.7-0.1,1.4-0.3,2.1-0.6c0.5-0.2,0.9-0.4,1.3-0.7c0.2-0.2,0.4-0.4,0.5-0.7c0,0,0-0.1,0-0.1c0,0,0,0.1,0,0.1
			c0,0.4,0,0.8,0,1.2c0,0.3-0.2,0.5-0.4,0.8c-0.2,0.3-0.5,0.5-0.8,0.6c-0.5,0.3-1.1,0.5-1.7,0.6c-0.5,0.1-1,0.2-1.5,0.3
			c-0.5,0.1-1.1,0.1-1.6,0.2C35,40.9,34.6,41,34.3,41z"/>
		<path class="st1" d="M50.7,44c-0.6,0-1.1,0-1.6-0.1c-1.2-0.1-2.4-0.3-3.5-0.7c-0.5-0.2-1-0.4-1.4-0.7c-0.3-0.2-0.6-0.5-0.7-0.9
			c0,0,0-0.1,0-0.1c0-0.4,0-0.9,0-1.3c0,0,0,0,0-0.1c0,0,0,0,0,0.1c0.2,0.4,0.5,0.7,0.8,0.9c0.7,0.4,1.4,0.7,2.2,0.9
			c0.6,0.2,1.3,0.3,2,0.3c1.1,0.1,2.2,0.1,3.3,0.1c1.1-0.1,2.2-0.2,3.2-0.5c0.7-0.2,1.3-0.4,1.9-0.8c0.3-0.2,0.6-0.5,0.8-0.9
			c0,0,0-0.1,0-0.1c0,0,0,0.1,0,0.1c0,0.4,0,0.8,0,1.2c0,0.3-0.2,0.5-0.4,0.8c-0.2,0.3-0.5,0.5-0.8,0.6c-0.5,0.3-1.1,0.5-1.7,0.6
			c-0.5,0.1-1,0.2-1.5,0.3c-0.5,0.1-1.1,0.2-1.6,0.2C51.3,44,50.9,44,50.7,44z"/>
		<path class="st1" d="M34.3,44c-0.6,0-1.2,0-1.7-0.1c-1-0.1-2-0.2-2.9-0.5c-0.7-0.2-1.3-0.4-1.9-0.9c-0.3-0.2-0.6-0.5-0.7-0.9
			c0-0.1,0-0.1,0-0.2c0-0.4,0-0.8,0-1.1c0,0,0-0.1,0-0.1c0,0,0,0.1,0,0.1c0.2,0.4,0.5,0.6,0.8,0.9c0.7,0.4,1.4,0.7,2.2,0.9
			c0.6,0.2,1.3,0.2,1.9,0.3c1.1,0.1,2.2,0.1,3.3,0.1c0.5,0,1-0.1,1.5-0.2c0.6-0.1,1.1-0.2,1.7-0.3c0.7-0.2,1.4-0.4,2-0.8
			c0.3-0.2,0.6-0.5,0.8-0.9c0,0,0,0,0-0.1c0,0,0,0,0,0.1c0,0.4,0,0.8,0,1.2c0,0.3-0.2,0.5-0.4,0.7c-0.2,0.3-0.5,0.4-0.8,0.6
			c-0.6,0.3-1.3,0.5-2,0.7c-0.5,0.1-1,0.2-1.5,0.3c-0.5,0.1-1,0.1-1.4,0.1C34.9,44,34.6,44,34.3,44z"/>
		<path class="st1" d="M27.1,44c0-0.2,0-0.4,0-0.6c0,0,0,0,0-0.1c0,0,0,0,0,0.1c0.2,0.4,0.5,0.7,0.8,0.9c0.7,0.4,1.4,0.7,2.2,0.9
			c0.6,0.2,1.2,0.3,1.9,0.3c0.9,0.1,1.9,0.1,2.8,0.1c0.1,0,0.1,0,0.2,0c0,0,0.1,0,0.1,0c0,0,0,0.1-0.1,0.1c-0.2,0.2-0.4,0.4-0.5,0.7
			c-0.1,0.2-0.1,0.3-0.2,0.5c-0.1,0.2-0.1,0.2-0.2,0.2c-0.6,0-1.1,0-1.7-0.1c-0.2,0-0.4-0.1-0.6-0.1c-0.5,0-1-0.2-1.5-0.3
			c-0.7-0.2-1.3-0.4-1.9-0.7c-0.3-0.2-0.6-0.3-0.8-0.6c-0.3-0.3-0.5-0.6-0.4-1C27.1,44.2,27.1,44.1,27.1,44L27.1,44z"/>
		<path class="st1" d="M50.8,45.6c0.2,0,0.4,0,0.7,0c0.6,0,1.2-0.1,1.7-0.2c0.6-0.1,1.1-0.2,1.7-0.3c0.7-0.2,1.4-0.4,2-0.8
			c0.3-0.2,0.6-0.5,0.8-0.9c0,0,0,0,0-0.1c0,0,0,0.1,0,0.1c0,0.4,0,0.8,0,1.2c0,0.3-0.2,0.5-0.4,0.8c-0.2,0.3-0.5,0.5-0.8,0.6
			c-0.5,0.3-1.1,0.5-1.7,0.6c-0.6,0.1-1.2,0.3-1.8,0.3c-0.5,0.1-1,0.1-1.4,0.1c-0.3,0-0.6,0-0.9,0.1c-0.1,0-0.2,0-0.2-0.1
			c-0.1-0.5-0.4-0.9-0.7-1.3c0,0,0,0,0-0.1c0,0,0,0,0.1,0C50.2,45.6,50.5,45.6,50.8,45.6C50.8,45.6,50.8,45.6,50.8,45.6z"/>
		<path class="st1" d="M50.6,49.4c0-0.2,0-0.4,0-0.6c0-0.1,0-0.1,0.1-0.1c0.2,0,0.4,0,0.6,0c0.5,0,0.9-0.1,1.4-0.1
			c0.4-0.1,0.8-0.1,1.1-0.1c0.7-0.1,1.4-0.3,2-0.6c0.5-0.2,0.9-0.4,1.3-0.7c0.2-0.2,0.4-0.4,0.5-0.6c0,0,0-0.1,0-0.1
			c0,0,0,0.1,0,0.1c0,0.4,0,0.8,0,1.2c0,0.3-0.2,0.5-0.4,0.8c-0.2,0.3-0.5,0.5-0.8,0.6c-0.5,0.3-1.1,0.5-1.7,0.6
			c-0.5,0.1-1,0.2-1.5,0.3c-0.5,0.1-1.1,0.2-1.6,0.1c-0.3,0-0.6,0-0.9,0c-0.2,0-0.2,0-0.2-0.2C50.6,49.8,50.6,49.6,50.6,49.4z"/>
		<path class="st1" d="M34.2,52.4c0,0.1,0,0.2,0,0.3c0,0.2,0,0.3,0,0.5c-0.2,0-0.3,0-0.5,0c-0.4,0-0.9-0.1-1.3-0.1
			c-0.5,0-1-0.1-1.5-0.2c-1.1-0.2-2.1-0.5-3-1.1c-0.3-0.2-0.6-0.5-0.7-0.9c0-0.1,0-0.1,0-0.2c0-0.4,0-0.8,0-1.2c0,0,0-0.1,0-0.1
			c0,0,0,0,0,0.1c0.2,0.4,0.5,0.7,0.8,0.9c0.7,0.4,1.4,0.7,2.1,0.9c0.6,0.2,1.3,0.3,1.9,0.3c0.7,0.1,1.4,0.1,2.1,0.1
			c0.2,0,0.2,0,0.2,0.2C34.2,52.1,34.2,52.3,34.2,52.4z"/>
		<path class="st1" d="M50.6,52.5c0-0.2,0-0.4,0-0.6c0-0.1,0-0.2,0.1-0.1c0.1,0,0.1,0,0.2,0c0.5,0,1.1,0,1.6-0.1
			c0.9-0.1,1.7-0.2,2.6-0.5c0.6-0.2,1.1-0.4,1.6-0.7c0.4-0.2,0.7-0.5,0.9-0.9c0,0,0,0,0-0.1c0,0,0,0,0,0.1c0,0,0,0.1,0,0.1
			c0,0.3,0,0.6,0,0.9c0,0.4-0.1,0.7-0.4,1c-0.4,0.4-0.8,0.6-1.3,0.8c-0.6,0.3-1.3,0.4-1.9,0.6c-0.3,0.1-0.7,0.1-1,0.1
			c-0.5,0.1-1,0.1-1.5,0.1c-0.3,0-0.5,0-0.8,0c-0.3,0-0.2,0-0.2-0.3C50.6,52.8,50.6,52.6,50.6,52.5L50.6,52.5z"/>
		<path class="st1" d="M34.2,49.4c0,0.2,0,0.4,0,0.6c0,0.1,0,0.1-0.1,0.1c-0.2,0-0.5,0-0.7,0c-0.1,0-0.2,0-0.3,0
			c-0.8,0-1.6-0.1-2.4-0.3c-0.6-0.1-1.2-0.3-1.8-0.5c-0.5-0.2-0.9-0.4-1.3-0.8c-0.3-0.3-0.4-0.6-0.4-1c0-0.3,0-0.7,0-1
			c0,0,0-0.1,0-0.1c0,0,0,0.1,0,0.1c0.2,0.4,0.5,0.7,0.8,0.9c0.7,0.4,1.4,0.7,2.1,0.9c0.6,0.2,1.3,0.3,2,0.3c0.7,0.1,1.3,0.1,2,0.1
			c0.2,0,0.2,0,0.2,0.2C34.2,49,34.2,49.2,34.2,49.4z"/>
	</g>
	<path class="st0" d="M17.6,53.4c-0.5,0-1-0.3-1.2-0.8c-1.6-4.3-2-9-1.2-13.6c1.6-9.3,8.2-17.1,17.1-20.2l1.2-0.4L32,17.5
		c-0.6-0.3-0.8-1.1-0.5-1.7c0.2-0.4,0.6-0.6,1.1-0.6c0.2,0,0.4,0.1,0.6,0.2l4.4,2.5c0.3,0.2,0.5,0.4,0.6,0.8c0.1,0.3,0,0.7-0.1,1
		l-2.5,4.4c-0.2,0.4-0.6,0.6-1.1,0.6c-0.2,0-0.4-0.1-0.6-0.2c-0.3-0.2-0.5-0.4-0.6-0.8s0-0.7,0.1-1l1.1-2l-1.5,0.5
		c-8,2.9-13.9,9.9-15.4,18.2c-0.7,4.1-0.4,8.3,1.1,12.3c0.1,0.3,0.1,0.7,0,1c-0.1,0.3-0.4,0.5-0.7,0.7
		C17.9,53.4,17.8,53.4,17.6,53.4z"/>
	<path class="st0" d="M41.1,69.9c-1.5,0-3-0.1-4.5-0.4c-4.6-0.8-8.9-2.8-12.4-5.8l-0.9-0.8v1.9c0,0.7-0.6,1.3-1.3,1.3
		c-0.7,0-1.3-0.6-1.3-1.3l0-5c0-0.1,0-0.1,0-0.1c0-0.3,0.2-0.6,0.4-0.9c0.2-0.2,0.5-0.3,0.8-0.3c0,0,0.1,0,0.1,0l4.9,0
		c0.7,0,1.3,0.6,1.3,1.3c0,0.7-0.6,1.3-1.3,1.3h-2.2l1.2,1c3.2,2.6,6.9,4.3,11,5c1.4,0.2,2.7,0.4,4.1,0.4c7.1,0,13.7-3.1,18.2-8.5
		c0.2-0.3,0.6-0.4,1-0.4c0.3,0,0.6,0.1,0.8,0.3c0.5,0.4,0.6,1.2,0.2,1.8C56.2,66.5,48.9,69.9,41.1,69.9z"/>
	<path class="st0" d="M64.6,53.7c-0.1,0-0.2,0-0.3,0c-0.3-0.1-0.6-0.3-0.8-0.6L61,48.7c-0.3-0.6-0.1-1.4,0.5-1.7
		c0.2-0.1,0.4-0.2,0.6-0.2c0.4,0,0.9,0.2,1.1,0.6l1.1,1.8l0.3-1.5c1.1-6.2-0.3-12.5-3.9-17.7c-3.6-5.2-9.1-8.7-15.3-9.8
		c-0.7-0.1-1.1-0.8-1-1.5c0.1-0.6,0.6-1,1.2-1c0.1,0,0.1,0,0.2,0c6.9,1.2,12.9,5.1,17,10.8s5.6,12.7,4.4,19.6l-0.3,1.6l1.7-1
		c0.2-0.1,0.4-0.2,0.6-0.2c0.4,0,0.9,0.2,1.1,0.6c0.2,0.3,0.2,0.6,0.1,1c-0.1,0.3-0.3,0.6-0.6,0.8l-4.4,2.5
		C65.1,53.6,64.9,53.7,64.6,53.7z"/>
</g>
</svg>
