<?xml version="1.0" encoding="utf-8"?>
<!-- Generator: Adobe Illustrator 19.2.0, SVG Export Plug-In . SVG Version: 6.00 Build 0)  -->
<svg version="1.1" id="Layer_1" xmlns="http://www.w3.org/2000/svg" xmlns:xlink="http://www.w3.org/1999/xlink" x="0px" y="0px"
	 viewBox="0 0 85 85.1" style="enable-background:new 0 0 85 85.1;" xml:space="preserve">
<style type="text/css">
	.st0{fill:#C9C3C2;}
	.st1{fill:#DB702A;}
</style>
<path class="st0" d="M42.1,83.4c0-1,0.7-1.8,1.7-1.8l0,0c1,0,1.8,0.7,1.8,1.7l0,0c0,1-0.7,1.8-1.7,1.8l0,0c0,0,0,0,0,0l0,0
	C42.9,85.1,42.1,84.3,42.1,83.4z M39,85c-1-0.1-1.7-0.9-1.6-1.9l0,0c0.1-1,0.9-1.7,1.9-1.6l0,0c1,0.1,1.7,0.9,1.6,1.9l0,0
	c-0.1,0.9-0.8,1.6-1.8,1.6l0,0C39.1,85,39.1,85,39,85z M46.7,83.2c-0.1-1,0.5-1.8,1.5-2l0,0c1-0.1,1.8,0.5,2,1.5l0,0
	c0.1,0.9-0.5,1.8-1.5,2l0,0c0,0,0,0,0,0l0,0c-0.1,0-0.2,0-0.2,0l0,0C47.6,84.7,46.9,84,46.7,83.2z M34.2,84.3
	c-1-0.2-1.6-1.1-1.4-2.1l0,0c0.2-1,1.1-1.6,2.1-1.4l0,0c0.9,0.2,1.6,1.1,1.4,2.1l0,0c-0.2,0.8-0.9,1.4-1.7,1.4l0,0
	C34.5,84.3,34.3,84.3,34.2,84.3z M51.3,82.4c-0.3-0.9,0.3-1.9,1.2-2.1l0,0c0.9-0.3,1.9,0.3,2.1,1.2l0,0c0.3,0.9-0.3,1.9-1.2,2.1l0,0
	c-0.1,0-0.3,0-0.4,0l0,0C52.3,83.7,51.6,83.2,51.3,82.4z M29.5,83.1L29.5,83.1L29.5,83.1c-0.9-0.3-1.4-1.3-1.1-2.2l0,0
	c0.3-0.9,1.3-1.4,2.2-1.1l0,0c0.9,0.3,1.4,1.3,1.1,2.2l0,0c-0.3,0.7-0.9,1.2-1.7,1.2l0,0C29.9,83.1,29.7,83.1,29.5,83.1z M55.8,81.2
	c-0.4-0.9,0.1-1.9,1-2.3h0c0.9-0.4,1.9,0.1,2.3,1l0,0c0.3,0.9-0.1,1.9-1,2.3l0,0c-0.2,0.1-0.4,0.1-0.6,0.1l0,0
	C56.8,82.3,56.1,81.9,55.8,81.2z M25,81.3L25,81.3L25,81.3c-0.9-0.4-1.3-1.4-0.9-2.3l0,0c0.4-0.9,1.4-1.3,2.3-0.9l0,0
	c0.9,0.4,1.3,1.4,0.9,2.3l0,0c-0.3,0.7-0.9,1-1.6,1l0,0C25.5,81.5,25.2,81.4,25,81.3z M60.1,79.4c-0.5-0.9-0.1-1.9,0.7-2.4l0,0
	c0.8-0.5,1.9-0.1,2.4,0.7l0,0c0.4,0.9,0.1,1.9-0.7,2.4l0,0c-0.3,0.1-0.5,0.2-0.8,0.2l0,0C61.1,80.3,60.4,80,60.1,79.4z M20.7,79.1
	L20.7,79.1L20.7,79.1c-0.8-0.5-1.1-1.6-0.6-2.4l0,0c0.5-0.8,1.6-1.1,2.4-0.6v0c0.8,0.5,1.1,1.6,0.6,2.4l0,0
	c-0.3,0.6-0.9,0.9-1.5,0.9l0,0C21.3,79.3,21,79.2,20.7,79.1z M64.2,77.2c-0.5-0.8-0.4-1.9,0.5-2.5v0c0.8-0.6,1.9-0.4,2.4,0.4l0,0
	c0.5,0.8,0.3,1.9-0.4,2.4l0,0c-0.3,0.2-0.7,0.3-1,0.3l0,0C65.1,77.9,64.6,77.7,64.2,77.2z M16.7,76.3L16.7,76.3L16.7,76.3
	c-0.8-0.6-0.9-1.7-0.3-2.5l0,0c0.6-0.8,1.7-0.9,2.5-0.3l0,0c0.8,0.6,0.9,1.7,0.3,2.5l0,0c-0.4,0.4-0.9,0.7-1.4,0.7l0,0
	C17.3,76.7,17,76.6,16.7,76.3z M68,74.5c-0.6-0.7-0.6-1.8,0.2-2.5h0c0.7-0.7,1.8-0.6,2.5,0.2l0,0c0.6,0.7,0.6,1.8-0.2,2.5l0,0l0,0
	l0,0c-0.3,0.3-0.7,0.4-1.1,0.4l0,0C68.9,75.1,68.4,74.9,68,74.5z M13,73.2L13,73.2L13,73.2c-0.7-0.7-0.7-1.8,0-2.5l0,0
	c0.7-0.7,1.8-0.7,2.5,0l0,0c0.7,0.7,0.7,1.8,0,2.5l0,0c-0.4,0.3-0.8,0.5-1.3,0.5l0,0C13.8,73.6,13.3,73.5,13,73.2z M71.5,71.4
	c-0.7-0.7-0.8-1.8-0.1-2.5l0,0c0.7-0.7,1.8-0.8,2.5-0.1l0,0c0.7,0.7,0.8,1.8,0.1,2.5l0,0c-0.3,0.4-0.8,0.6-1.3,0.6l0,0
	C72.2,71.8,71.8,71.7,71.5,71.4z M9.7,69.6c-0.6-0.7-0.5-1.9,0.2-2.5l0,0c0.7-0.6,1.8-0.5,2.5,0.2l0,0c0.6,0.7,0.5,1.8-0.2,2.5l0,0
	c-0.3,0.3-0.7,0.4-1.1,0.4l0,0C10.5,70.2,10,70,9.7,69.6z M74.6,67.9c-0.8-0.6-1-1.7-0.4-2.5l0,0c0.6-0.8,1.7-1,2.4-0.4l0,0
	c0.8,0.6,1,1.7,0.4,2.5l0,0c-0.4,0.5-0.9,0.7-1.4,0.7l0,0C75.3,68.2,74.9,68.1,74.6,67.9z M6.8,65.7c-0.5-0.8-0.3-1.9,0.5-2.4l0,0
	c0.8-0.5,1.9-0.3,2.4,0.5l0,0c0.5,0.8,0.3,1.9-0.5,2.4l0,0c-0.3,0.2-0.6,0.3-1,0.3l0,0C7.7,66.5,7.1,66.2,6.8,65.7z M77.3,64
	c-0.8-0.5-1.1-1.5-0.7-2.4l0,0c0.5-0.8,1.5-1.1,2.4-0.7l0,0c0.8,0.5,1.1,1.5,0.7,2.4l0,0c-0.3,0.6-0.9,0.9-1.5,0.9l0,0
	C77.8,64.3,77.5,64.2,77.3,64z M4.4,61.5c-0.4-0.9-0.1-1.9,0.8-2.3l0,0c0.9-0.4,1.9-0.1,2.3,0.8l0,0c0.4,0.9,0.1,1.9-0.8,2.3l0,0
	c-0.3,0.1-0.5,0.2-0.8,0.2l0,0C5.3,62.4,4.7,62.1,4.4,61.5z M79.5,60c-0.9-0.4-1.3-1.4-0.9-2.3l0,0c0.4-0.9,1.4-1.3,2.3-0.9l0,0
	c0.9,0.4,1.3,1.4,0.9,2.3l0,0c-0.3,0.7-0.9,1.1-1.6,1.1l0,0C79.9,60.1,79.7,60.1,79.5,60z M2.5,57L2.5,57L2.5,57
	c-0.3-0.9,0.1-1.9,1.1-2.2l0,0c0.9-0.3,1.9,0.1,2.2,1.1l0,0c0.3,0.9-0.1,1.9-1.1,2.2l0,0c-0.2,0.1-0.4,0.1-0.6,0.1l0,0
	C3.4,58.2,2.8,57.7,2.5,57z M81.3,55.6c-0.9-0.3-1.5-1.3-1.2-2.2l0,0c0.3-0.9,1.2-1.5,2.2-1.2l0,0c0.9,0.3,1.5,1.2,1.2,2.2l0,0
	c-0.2,0.7-0.9,1.3-1.7,1.3l0,0C81.6,55.7,81.4,55.7,81.3,55.6z M1.1,52.3c-0.2-1,0.3-1.9,1.3-2.1l0,0c0.9-0.2,1.9,0.4,2.1,1.3l0,0
	c0.2,0.9-0.4,1.9-1.3,2.1l0,0c-0.1,0-0.3,0-0.4,0l0,0C2,53.7,1.3,53.1,1.1,52.3z M82.5,51.1c-1-0.1-1.6-1.1-1.4-2l0,0
	c0.2-1,1.1-1.6,2-1.4l0,0c1,0.1,1.6,1.1,1.4,2l0,0c-0.1,0.8-0.9,1.4-1.7,1.4l0,0C82.7,51.2,82.6,51.2,82.5,51.1z M0.3,47.6L0.3,47.6
	L0.3,47.6c-0.1-1,0.6-1.8,1.5-1.9l0,0c1-0.1,1.8,0.6,1.9,1.5l0,0c0.1,1-0.6,1.8-1.5,2l0,0c-0.1,0-0.1,0-0.2,0l0,0
	C1.1,49.1,0.4,48.4,0.3,47.6z M83.2,46.5c-1,0-1.7-0.9-1.7-1.8l0,0c0.1-1,0.9-1.7,1.8-1.7l0,0c1,0,1.7,0.9,1.7,1.8l0,0
	C85,45.8,84.2,46.5,83.2,46.5L83.2,46.5C83.3,46.5,83.2,46.5,83.2,46.5z M0,42.7C0,42.7,0,42.7,0,42.7L0,42.7c0-0.1,0-0.1,0-0.2l0,0
	c0-1,0.8-1.8,1.7-1.8l0,0c1,0,1.8,0.8,1.8,1.8l0,0c0,0,0,0,0,0.1l0,0c0,0,0,0,0,0.1l0,0c0,1-0.8,1.8-1.7,1.8l0,0
	C0.8,44.5,0,43.7,0,42.7z M81.5,40.2c-0.1-1,0.7-1.8,1.6-1.8l0,0c1-0.1,1.8,0.7,1.9,1.6l0,0c0,1-0.7,1.8-1.7,1.9l0,0
	c0,0-0.1,0-0.1,0l0,0C82.4,41.9,81.6,41.2,81.5,40.2z M1.8,39.6c-1-0.1-1.7-1-1.5-1.9l0,0l0,0l0,0c0.1-1,1-1.6,1.9-1.5l0,0
	c1,0.1,1.7,1,1.5,1.9l0,0C3.6,39,2.9,39.6,2,39.6l0,0C1.9,39.6,1.9,39.6,1.8,39.6z M81,35.8L81,35.8c-0.2-1,0.5-1.9,1.4-2l0,0
	c1-0.2,1.9,0.5,2,1.4l0,0c0.2,1-0.5,1.8-1.4,2l0,0c-0.1,0-0.2,0-0.3,0l0,0C81.9,37.3,81.2,36.7,81,35.8z M2.4,35
	c-1-0.2-1.5-1.1-1.3-2.1l0,0c0.2-0.9,1.2-1.5,2.1-1.3l0,0c1,0.2,1.5,1.2,1.3,2.1l0,0C4.3,34.5,3.6,35,2.8,35l0,0
	C2.7,35,2.5,35,2.4,35z M80,31.5c-0.3-0.9,0.3-1.9,1.2-2.2l0,0c0.9-0.3,1.9,0.3,2.2,1.2l0,0c0.3,0.9-0.3,1.9-1.2,2.2l0,0
	c-0.2,0.1-0.4,0.1-0.5,0.1l0,0C80.9,32.7,80.2,32.2,80,31.5z M3.5,30.5c-0.9-0.3-1.4-1.4-1.1-2.2l0,0l0,0l0,0
	c0.3-0.9,1.3-1.4,2.2-1.1l0,0c0.9,0.3,1.4,1.3,1.1,2.2l0,0c-0.3,0.7-0.9,1.2-1.7,1.2l0,0C3.9,30.6,3.7,30.5,3.5,30.5z M78.5,27.3
	L78.5,27.3c-0.4-0.9,0-1.9,0.9-2.3l0,0c0.9-0.4,1.9,0,2.3,0.9l0,0c0.4,0.9,0,1.9-0.9,2.3l0,0c-0.2,0.1-0.4,0.1-0.7,0.1l0,0
	C79.4,28.3,78.8,27.9,78.5,27.3z M5.1,26.1c-0.9-0.4-1.2-1.5-0.8-2.3l0,0l0,0l0,0c0.4-0.9,1.5-1.2,2.3-0.8l0,0
	c0.9,0.4,1.2,1.5,0.8,2.3l0,0c-0.3,0.6-0.9,1-1.6,1l0,0C5.7,26.3,5.4,26.2,5.1,26.1z M76.5,23.3L76.5,23.3c-0.5-0.8-0.2-1.9,0.7-2.4
	l0,0c0.8-0.5,1.9-0.2,2.4,0.7l0,0c0.5,0.8,0.2,1.9-0.7,2.4l0,0c-0.3,0.2-0.6,0.2-0.9,0.2l0,0C77.4,24.2,76.8,23.8,76.5,23.3z
	 M7.3,21.9c-0.8-0.5-1.1-1.6-0.5-2.4l0,0l0,0l0,0c0.5-0.8,1.6-1.1,2.4-0.5l0,0c0.8,0.5,1.1,1.6,0.5,2.4l0,0
	c-0.3,0.5-0.9,0.8-1.5,0.8l0,0C7.9,22.2,7.5,22.1,7.3,21.9z M74.1,19.5c-0.6-0.8-0.4-1.9,0.4-2.5l0,0c0.8-0.6,1.9-0.4,2.5,0.4l0,0
	l0,0l0,0c0.6,0.8,0.4,1.9-0.4,2.5l0,0c-0.3,0.2-0.7,0.3-1.1,0.3l0,0C75,20.3,74.5,20,74.1,19.5z M9.8,18.1c-0.7-0.6-0.9-1.7-0.2-2.5
	l0,0c0,0,0,0,0,0l0,0c0.6-0.7,1.7-0.8,2.5-0.2l0,0c0.7,0.6,0.9,1.7,0.3,2.5l0,0c-0.4,0.4-0.8,0.6-1.4,0.6l0,0
	C10.6,18.5,10.2,18.3,9.8,18.1z M71.3,16.1c-0.7-0.7-0.6-1.8,0.1-2.5l0,0c0.7-0.7,1.8-0.6,2.5,0.1l0,0c0.7,0.7,0.6,1.8-0.1,2.5l0,0
	c-0.3,0.3-0.8,0.5-1.2,0.5l0,0C72.1,16.6,71.6,16.5,71.3,16.1z M12.8,14.5c-0.7-0.7-0.7-1.8,0-2.5l0,0l0,0l0,0
	c0.7-0.7,1.8-0.7,2.5,0l0,0c0.7,0.7,0.7,1.8,0,2.5l0,0C15,14.9,14.5,15,14.1,15l0,0C13.6,15,13.2,14.9,12.8,14.5z M68.1,13L68.1,13
	c-0.7-0.6-0.8-1.7-0.2-2.5l0,0c0.6-0.7,1.8-0.8,2.5-0.2l0,0c0.7,0.6,0.8,1.7,0.2,2.5l0,0c-0.3,0.4-0.8,0.6-1.3,0.6l0,0
	C68.8,13.4,68.4,13.3,68.1,13z M16.2,11.3c-0.6-0.8-0.4-1.9,0.3-2.5l0,0c0.8-0.6,1.9-0.4,2.5,0.3l0,0c0.6,0.7,0.5,1.8-0.3,2.5l0,0
	C18.4,11.9,18,12,17.6,12l0,0C17.1,12,16.6,11.7,16.2,11.3z M64.5,10.3c-0.8-0.6-1-1.6-0.4-2.4l0,0c0.5-0.8,1.6-1,2.4-0.5l0,0
	c0.8,0.5,1,1.6,0.5,2.4l0,0c-0.4,0.5-0.9,0.8-1.4,0.8l0,0C65.2,10.6,64.8,10.5,64.5,10.3z M20,8.5c-0.5-0.8-0.3-1.9,0.6-2.4l0,0l0,0
	l0,0c0.8-0.5,1.9-0.3,2.4,0.6l0,0c0.5,0.8,0.2,1.9-0.6,2.4h0c-0.3,0.2-0.6,0.3-0.9,0.3l0,0C20.8,9.4,20.3,9.1,20,8.5z M60.7,8
	c-0.9-0.4-1.2-1.5-0.7-2.4l0,0c0.5-0.9,1.5-1.2,2.4-0.7l0,0c0.8,0.4,1.2,1.5,0.7,2.4l0,0c-0.3,0.6-0.9,0.9-1.5,0.9l0,0
	C61.3,8.2,61,8.1,60.7,8z M24,6.2c-0.4-0.9,0-1.9,0.9-2.3l0,0c0.9-0.4,1.9,0,2.3,0.9l0,0c0.4,0.9,0,1.9-0.9,2.3l0,0
	c-0.2,0.1-0.5,0.2-0.7,0.2l0,0C24.9,7.2,24.3,6.8,24,6.2z M56.7,6.1c-0.9-0.4-1.4-1.4-1-2.3l0,0C56,3,57,2.5,57.9,2.8l0,0
	c0.9,0.4,1.4,1.4,1,2.3l0,0c-0.3,0.7-0.9,1.1-1.6,1.1l0,0C57.1,6.2,56.9,6.2,56.7,6.1z M28.2,4.3c-0.3-0.9,0.2-1.9,1.1-2.2l0,0
	c0.9-0.3,1.9,0.2,2.2,1.1l0,0c0.3,0.9-0.2,1.9-1.1,2.2l0,0c-0.2,0.1-0.4,0.1-0.5,0.1l0,0C29.2,5.5,28.5,5,28.2,4.3z M52.4,4.7
	c-1-0.2-1.5-1.2-1.3-2.1l0,0c0.2-0.9,1.2-1.5,2.1-1.3l0,0c0.9,0.2,1.5,1.2,1.3,2.1l0,0c-0.2,0.8-0.9,1.3-1.7,1.3l0,0
	C52.7,4.8,52.6,4.8,52.4,4.7z M32.7,2.9c-0.2-1,0.4-1.9,1.4-2.1l0,0c0,0,0,0,0,0l0,0c1-0.2,1.9,0.4,2.1,1.4l0,0
	c0.2,1-0.4,1.9-1.4,2.1v0c-0.1,0-0.2,0-0.3,0l0,0C33.6,4.3,32.9,3.7,32.7,2.9z M48.1,3.9c-1-0.1-1.6-1-1.5-2l0,0c0.1-1,1-1.6,2-1.5
	l0,0c0,0,0,0,0,0l0,0c0.9,0.1,1.6,1,1.5,2l0,0c-0.1,0.9-0.9,1.5-1.7,1.5l0,0C48.2,3.9,48.1,3.9,48.1,3.9z M37.3,2
	c-0.1-1,0.6-1.8,1.6-1.9l0,0l0,0l0,0c1-0.1,1.8,0.6,1.9,1.6l0,0c0.1,1-0.7,1.8-1.6,1.9v0c0,0-0.1,0-0.1,0l0,0
	C38.1,3.6,37.3,3,37.3,2z M43.6,3.5c-1,0-1.7-0.8-1.7-1.8l0,0c0-1,0.8-1.7,1.8-1.7l0,0c1,0,1.7,0.8,1.7,1.8l0,0
	C45.4,2.8,44.6,3.5,43.6,3.5L43.6,3.5C43.6,3.5,43.6,3.5,43.6,3.5z"/>
<g>
	<path class="st0" d="M56.1,64.4H26.9c-2.9,0-5.2-2.3-5.2-5.2v-16c0-2.9,2.3-5.2,5.2-5.2h0.4c0.5-0.8,1.2-1.1,2-1.1h0.9
		c0.8,0,1.6,0.4,2,1.1H37l1.1-2.4c0.6-1.3,1.7-2.2,3.1-2.6c0,0,0-0.1,0-0.1h-0.5c-2.2,0-4-1.8-4-4V17.4c0-2.2,1.8-4,4-4h9.2
		c2.2,0,4,1.8,4,4v11.5c0,2.2-1.8,4-4,4h-0.6c0,0,0,0.1,0,0.1c1.4,0.3,2.5,1.3,3.1,2.6l1.1,2.4l2.7,0c2.9,0,5.2,2.3,5.2,5.2v16
		C61.3,62.1,58.9,64.4,56.1,64.4z M26.9,40.4c-1.6,0-2.8,1.3-2.8,2.8v16c0,1.6,1.3,2.8,2.8,2.8h29.2c1.6,0,2.8-1.3,2.8-2.8v-16
		c0-1.6-1.3-2.8-2.8-2.8h-2.7c-1,0-1.8-0.6-2.1-1.5l-1.1-2.4c-0.4-0.8-1.2-1.3-2.1-1.3h-0.6c-0.3,0-0.6-0.1-0.9-0.4
		c-0.2,0.2-0.5,0.4-0.9,0.4h-1.1c-0.3,0-0.6-0.1-0.9-0.4c-0.2,0.2-0.5,0.4-0.9,0.4h-0.6c-0.9,0-1.7,0.5-2.1,1.3l-1.1,2.4
		c-0.3,0.8-1.2,1.4-2.1,1.4h-4.6c-0.7,0-1.4-0.8-1.6-1.1c-0.2-0.3-0.4-0.5-0.8-0.5c-0.4,0-0.6,0.2-0.8,0.5
		C28.7,40,27.9,40.4,26.9,40.4z M44.6,32.3h1.1c0.3,0,0.6,0.1,0.9,0.4c0.1-0.1,0.2-0.2,0.3-0.2v-0.7c0-0.6,0.5-1.2,1.2-1.2h1.7
		c0.9,0,1.7-0.8,1.7-1.7V17.4c0-0.9-0.8-1.7-1.7-1.7h-9.2c-0.9,0-1.7,0.8-1.7,1.7v11.5c0,0.9,0.8,1.7,1.7,1.7h1.7
		c0.6,0,1.2,0.5,1.2,1.2v0.7c0.1,0.1,0.2,0.1,0.3,0.2C44,32.4,44.3,32.3,44.6,32.3z"/>
	<path class="st1" d="M44.9,44.4c0.9,0,1.7,0.2,2.5,0.5c2.4,1,4,3.4,4,6c0,3.6-2.9,6.5-6.5,6.5c-3.6,0-6.5-2.9-6.5-6.5
		C38.4,47.3,41.3,44.4,44.9,44.4 M44.9,42.1c-4.9,0-8.9,4-8.9,8.9c0,4.9,4,8.9,8.9,8.9c4.9,0,8.9-4,8.9-8.9c0-3.7-2.2-6.8-5.4-8.2
		C47.3,42.3,46.1,42.1,44.9,42.1L44.9,42.1z"/>
	<path class="st1" d="M44.9,43.8c4,0,7.2,3.2,7.2,7.2c0,4-3.2,7.2-7.2,7.2c-4,0-7.2-3.2-7.2-7.2C37.8,47,41,43.8,44.9,43.8
		 M44.9,42.6c-4.6,0-8.3,3.7-8.3,8.3c0,4.6,3.7,8.3,8.3,8.3c4.6,0,8.3-3.7,8.3-8.3C53.2,46.3,49.5,42.6,44.9,42.6L44.9,42.6z"/>
	<path class="st1" d="M34.6,43.2c-0.8,0-1.4,0.6-1.4,1.4c0,0.8,0.6,1.4,1.4,1.4c0.8,0,1.4-0.6,1.4-1.4C36,43.8,35.4,43.2,34.6,43.2
		L34.6,43.2z"/>
	<g>
		<path class="st1" d="M40.6,23.2c-1,0-1.7-0.8-1.7-1.7v-4c0-0.9,0.8-1.7,1.7-1.7h9.2c0.9,0,1.7,0.8,1.7,1.7v4
			c0,0.9-0.8,1.7-1.7,1.7H40.6z"/>
	</g>
</g>
</svg>
