<?xml version="1.0" encoding="utf-8"?>
<!-- Generator: Adobe Illustrator 19.2.0, SVG Export Plug-In . SVG Version: 6.00 Build 0)  -->
<svg version="1.1" id="Layer_1" xmlns="http://www.w3.org/2000/svg" xmlns:xlink="http://www.w3.org/1999/xlink" x="0px" y="0px"
	 viewBox="0 0 85 85" style="enable-background:new 0 0 85 85;" xml:space="preserve">
<style type="text/css">
	.st0{fill:#C8C3C2;}
	.st1{fill:#DB702A;}
</style>
<path class="st0" d="M42.1,83.4c0-1,0.7-1.8,1.7-1.8v0c1,0,1.8,0.7,1.8,1.7l0,0c0,1-0.7,1.8-1.7,1.8l0,0c0,0,0,0-0.1,0l0,0
	C42.9,85,42.1,84.3,42.1,83.4z M39.1,84.9c-1-0.1-1.7-0.9-1.6-1.9l0,0c0.1-1,0.9-1.7,1.9-1.6l0,0c1,0.1,1.7,0.9,1.6,1.9l0,0
	c-0.1,0.9-0.8,1.6-1.8,1.6l0,0C39.1,84.9,39.1,84.9,39.1,84.9z M46.8,83.2c-0.1-1,0.5-1.8,1.5-2l0,0c1-0.1,1.8,0.5,2,1.5l0,0
	c0.1,1-0.5,1.8-1.5,2l0,0c-0.1,0-0.2,0-0.3,0l0,0C47.6,84.6,46.9,84,46.8,83.2z M34.2,84.2L34.2,84.2L34.2,84.2
	c-1-0.2-1.6-1.1-1.4-2.1l0,0c0.2-0.9,1.1-1.6,2.1-1.4l0,0c1,0.2,1.6,1.1,1.4,2.1l0,0c-0.2,0.8-0.9,1.4-1.7,1.4l0,0
	C34.5,84.3,34.4,84.3,34.2,84.2z M51.4,82.4c-0.3-0.9,0.3-1.9,1.2-2.1v0c0.9-0.3,1.9,0.3,2.1,1.2l0,0c0.2,0.9-0.3,1.9-1.2,2.1l0,0
	c0,0,0,0,0,0l0,0c-0.2,0-0.3,0-0.5,0l0,0C52.3,83.7,51.6,83.2,51.4,82.4z M29.5,83L29.5,83L29.5,83c-0.9-0.3-1.4-1.3-1.1-2.2l0,0
	c0.3-0.9,1.3-1.4,2.2-1.1l0,0c0.9,0.3,1.4,1.3,1.1,2.2l0,0c-0.2,0.7-0.9,1.2-1.7,1.2l0,0C29.9,83.1,29.7,83.1,29.5,83z M55.8,81.1
	c-0.4-0.9,0.1-1.9,1-2.3l0,0c0.9-0.4,1.9,0.1,2.3,1l0,0c0.3,0.9-0.1,1.9-1,2.3l0,0l0,0l0,0c-0.2,0.1-0.4,0.1-0.6,0.1l0,0
	C56.8,82.3,56.1,81.8,55.8,81.1z M25,81.3c-0.9-0.4-1.3-1.4-0.9-2.3l0,0c0.4-0.9,1.4-1.3,2.3-0.9l0,0c0.9,0.4,1.3,1.4,0.9,2.3l0,0
	c-0.3,0.7-0.9,1-1.6,1l0,0C25.5,81.4,25.2,81.4,25,81.3z M60.2,79.4c-0.5-0.9-0.1-1.9,0.7-2.4l0,0c0.8-0.4,1.9-0.1,2.4,0.7l0,0
	c0.5,0.9,0.1,1.9-0.7,2.4l0,0c-0.3,0.1-0.5,0.2-0.8,0.2l0,0C61.1,80.3,60.5,80,60.2,79.4z M20.7,79L20.7,79L20.7,79
	c-0.8-0.5-1.1-1.6-0.6-2.4l0,0c0.5-0.8,1.6-1.1,2.4-0.6l0,0c0.8,0.5,1.1,1.6,0.6,2.4l0,0c-0.3,0.5-0.9,0.8-1.5,0.8l0,0
	C21.3,79.3,21,79.2,20.7,79z M64.2,77.1c-0.6-0.8-0.3-1.9,0.4-2.4l0,0c0.8-0.5,1.9-0.4,2.4,0.4l0,0c0.6,0.8,0.4,1.9-0.4,2.5l0,0
	c-0.3,0.2-0.7,0.3-1,0.3l0,0C65.1,77.9,64.6,77.6,64.2,77.1z M16.7,76.3L16.7,76.3L16.7,76.3c-0.8-0.6-0.9-1.7-0.3-2.5l0,0
	c0.6-0.8,1.7-0.9,2.5-0.3l0,0c0.8,0.6,0.9,1.7,0.3,2.5l0,0c-0.4,0.4-0.9,0.7-1.4,0.7l0,0C17.4,76.7,17,76.5,16.7,76.3z M68,74.4
	c-0.6-0.7-0.6-1.8,0.2-2.5l0,0c0.7-0.6,1.8-0.6,2.5,0.2l0,0c0.7,0.7,0.6,1.8-0.2,2.5l0,0c-0.3,0.3-0.7,0.4-1.1,0.4l0,0
	C68.9,75,68.4,74.8,68,74.4z M13,73.1L13,73.1L13,73.1c-0.7-0.7-0.7-1.8,0-2.5l0,0c0.7-0.7,1.8-0.7,2.5,0l0,0c0.7,0.7,0.7,1.8,0,2.5
	l0,0c-0.3,0.4-0.8,0.5-1.3,0.5l0,0C13.8,73.6,13.4,73.5,13,73.1z M71.5,71.3c-0.7-0.7-0.8-1.8-0.1-2.5l0,0c0.7-0.7,1.8-0.8,2.5-0.1
	l0,0c0.7,0.7,0.8,1.8,0.1,2.5l0,0c-0.4,0.4-0.8,0.6-1.3,0.6l0,0C72.2,71.8,71.8,71.6,71.5,71.3z M9.7,69.6c-0.6-0.7-0.5-1.8,0.2-2.5
	l0,0c0.7-0.6,1.9-0.5,2.5,0.2l0,0c0.6,0.7,0.5,1.8-0.2,2.5l0,0c-0.3,0.3-0.7,0.4-1.1,0.4l0,0C10.6,70.2,10.1,70,9.7,69.6z
	 M74.6,67.8c-0.8-0.6-1-1.7-0.4-2.4l0,0c0.6-0.8,1.7-1,2.4-0.4l0,0c0.8,0.6,1,1.7,0.4,2.5l0,0l0,0l0,0c-0.3,0.5-0.9,0.7-1.4,0.7l0,0
	C75.3,68.2,74.9,68.1,74.6,67.8z M6.8,65.7c-0.5-0.8-0.3-1.9,0.5-2.4l0,0c0.8-0.5,1.9-0.3,2.4,0.5l0,0c0.5,0.8,0.3,1.9-0.5,2.4l0,0
	c-0.3,0.2-0.6,0.3-1,0.3l0,0C7.7,66.5,7.2,66.2,6.8,65.7z M77.3,64c-0.8-0.5-1.1-1.5-0.7-2.4l0,0c0.5-0.8,1.5-1.1,2.4-0.7l0,0
	c0.8,0.5,1.1,1.5,0.7,2.4l0,0c0,0,0,0,0,0l0,0c-0.3,0.6-0.9,0.9-1.5,0.9l0,0C77.8,64.3,77.5,64.2,77.3,64z M4.4,61.4
	c-0.4-0.9-0.1-1.9,0.8-2.3l0,0c0.9-0.4,1.9-0.1,2.3,0.8l0,0c0.4,0.9,0.1,1.9-0.8,2.4l0,0c-0.3,0.1-0.5,0.2-0.8,0.2l0,0
	C5.4,62.4,4.7,62.1,4.4,61.4z M79.5,59.9c-0.9-0.4-1.3-1.4-0.9-2.3l0,0c0.4-0.9,1.4-1.3,2.3-0.9l0,0c0.9,0.4,1.3,1.4,0.9,2.3l0,0
	c-0.3,0.7-0.9,1.1-1.6,1.1l0,0C79.9,60.1,79.7,60,79.5,59.9z M2.5,57c-0.3-0.9,0.1-1.9,1-2.2l0,0c0.9-0.3,1.9,0.1,2.2,1.1l0,0
	c0.3,0.9-0.1,1.9-1.1,2.2l0,0c-0.2,0.1-0.4,0.1-0.6,0.1l0,0C3.5,58.1,2.8,57.7,2.5,57z M81.2,55.6c-0.9-0.3-1.4-1.2-1.2-2.2l0,0
	c0.3-0.9,1.2-1.5,2.2-1.2l0,0c0.9,0.3,1.5,1.2,1.2,2.2l0,0c0,0,0,0,0,0l0,0c-0.2,0.8-0.9,1.3-1.7,1.3l0,0
	C81.6,55.7,81.4,55.7,81.2,55.6z M1.1,52.3C1.1,52.3,1.1,52.3,1.1,52.3L1.1,52.3c-0.2-1,0.3-1.9,1.3-2.1l0,0
	c0.9-0.2,1.9,0.4,2.1,1.3l0,0c0.2,0.9-0.4,1.9-1.3,2.1l0,0c-0.1,0-0.3,0-0.4,0l0,0C2.1,53.7,1.3,53.1,1.1,52.3z M82.5,51.1
	c-1-0.2-1.6-1.1-1.4-2l0,0c0.2-1,1.1-1.6,2-1.4l0,0c1,0.2,1.6,1.1,1.4,2l0,0c-0.1,0.9-0.9,1.5-1.7,1.5l0,0
	C82.7,51.1,82.6,51.1,82.5,51.1z M0.3,47.6c-0.1-1,0.6-1.8,1.5-2l0,0c1-0.1,1.8,0.6,1.9,1.5l0,0c0.1,1-0.6,1.8-1.5,1.9l0,0
	c-0.1,0-0.1,0-0.2,0l0,0C1.2,49.1,0.4,48.4,0.3,47.6z M83.2,46.5c-1-0.1-1.7-0.9-1.7-1.8l0,0c0-1,0.9-1.7,1.8-1.7l0,0
	c1,0,1.7,0.9,1.7,1.8l0,0C85,45.8,84.2,46.5,83.2,46.5L83.2,46.5C83.3,46.5,83.2,46.5,83.2,46.5z M0,42.7C0,42.7,0,42.6,0,42.7
	L0,42.7c0-0.1,0-0.1,0-0.2l0,0c0,0,0,0,0,0l0,0c0-1,0.8-1.8,1.8-1.8l0,0c1,0,1.7,0.8,1.7,1.8h0c0,0,0,0,0,0.1l0,0c0,0,0,0,0,0.1l0,0
	c0,1-0.8,1.8-1.8,1.8l0,0C0.8,44.4,0,43.7,0,42.7z M81.5,40.2L81.5,40.2c0-1,0.7-1.8,1.6-1.9l0,0c1,0,1.8,0.7,1.9,1.7l0,0
	c0,1-0.7,1.8-1.7,1.8l0,0c0,0-0.1,0-0.1,0l0,0C82.4,41.9,81.6,41.2,81.5,40.2z M1.8,39.6c-1-0.1-1.7-1-1.5-1.9l0,0
	c0.1-1,1-1.7,1.9-1.5l0,0c1,0.1,1.7,1,1.5,1.9l0,0C3.7,39,2.9,39.6,2,39.6l0,0C2,39.6,1.9,39.6,1.8,39.6z M81,35.8
	c-0.2-1,0.5-1.9,1.4-2l0,0c1-0.2,1.9,0.5,2,1.4l0,0c0.2,1-0.5,1.9-1.4,2l0,0c-0.1,0-0.2,0-0.3,0l0,0C81.9,37.2,81.2,36.6,81,35.8z
	 M2.4,35c-0.9-0.2-1.5-1.2-1.3-2.1l0,0c0.2-0.9,1.2-1.5,2.1-1.3l0,0c1,0.2,1.5,1.2,1.3,2.1l0,0C4.3,34.5,3.6,35,2.8,35l0,0
	C2.7,35,2.5,35,2.4,35z M80,31.4L80,31.4c-0.3-0.9,0.3-1.9,1.2-2.2l0,0c0.9-0.3,1.9,0.3,2.2,1.2l0,0c0,0,0,0,0,0l0,0
	c0.3,0.9-0.3,1.9-1.2,2.2l0,0c-0.2,0-0.4,0.1-0.5,0.1l0,0C80.9,32.7,80.2,32.2,80,31.4z M3.5,30.5c-0.9-0.3-1.4-1.3-1.1-2.2l0,0
	c0.3-0.9,1.3-1.4,2.2-1.1l0,0c0.9,0.3,1.4,1.3,1.1,2.2l0,0c-0.3,0.7-0.9,1.1-1.7,1.1l0,0C3.9,30.6,3.7,30.5,3.5,30.5z M78.5,27.3
	c-0.4-0.9,0-1.9,0.9-2.3l0,0c0.9-0.4,1.9,0,2.3,0.9l0,0c0.4,0.9,0,1.9-0.9,2.3l0,0c-0.2,0.1-0.4,0.1-0.7,0.1l0,0
	C79.4,28.3,78.8,27.9,78.5,27.3z M5.2,26.1c-0.9-0.4-1.2-1.5-0.8-2.3l0,0l0,0l0,0c0.4-0.9,1.5-1.2,2.3-0.8l0,0
	c0.9,0.4,1.2,1.5,0.8,2.3l0,0c-0.3,0.6-0.9,1-1.6,1l0,0C5.7,26.3,5.4,26.2,5.2,26.1z M76.5,23.3c-0.5-0.8-0.2-1.9,0.7-2.4l0,0
	c0.8-0.5,1.9-0.2,2.4,0.7l0,0c0.5,0.8,0.2,1.9-0.7,2.4l0,0c-0.3,0.2-0.6,0.2-0.9,0.2l0,0C77.5,24.2,76.8,23.8,76.5,23.3z M7.3,21.9
	c-0.8-0.5-1.1-1.6-0.5-2.4l0,0c0.5-0.8,1.6-1,2.4-0.5l0,0c0.8,0.5,1,1.6,0.5,2.4l0,0c-0.3,0.5-0.9,0.8-1.5,0.8l0,0
	C7.9,22.2,7.6,22.1,7.3,21.9z M74.1,19.5L74.1,19.5c-0.6-0.8-0.4-1.9,0.4-2.4l0,0c0.8-0.6,1.9-0.4,2.5,0.4l0,0l0,0l0,0
	c0.6,0.8,0.4,1.9-0.4,2.5l0,0c-0.3,0.2-0.7,0.3-1,0.3l0,0C75,20.2,74.4,20,74.1,19.5z M9.9,18.1c-0.7-0.6-0.9-1.7-0.2-2.5l0,0
	c0.6-0.7,1.7-0.9,2.5-0.2l0,0c0.7,0.6,0.9,1.7,0.3,2.5l0,0c-0.3,0.4-0.9,0.7-1.4,0.7l0,0C10.6,18.5,10.2,18.3,9.9,18.1z M71.3,16.1
	c-0.7-0.7-0.6-1.8,0.1-2.5l0,0c0.7-0.7,1.8-0.6,2.5,0.1l0,0c0.7,0.7,0.6,1.8-0.1,2.5l0,0c-0.3,0.3-0.8,0.5-1.2,0.5l0,0
	C72.1,16.6,71.6,16.5,71.3,16.1z M12.9,14.5c-0.7-0.7-0.7-1.8,0-2.5l0,0c0.7-0.7,1.8-0.7,2.5,0l0,0c0.7,0.7,0.7,1.8,0,2.5l0,0
	C15,14.9,14.5,15,14.1,15l0,0C13.7,15,13.2,14.8,12.9,14.5z M68.1,13L68.1,13c-0.7-0.6-0.8-1.8-0.2-2.5l0,0c0.6-0.7,1.7-0.8,2.5-0.2
	l0,0c0.7,0.6,0.8,1.8,0.2,2.5l0,0c-0.3,0.4-0.8,0.6-1.3,0.6l0,0C68.8,13.4,68.4,13.3,68.1,13z M16.2,11.3c-0.6-0.8-0.4-1.9,0.3-2.5
	l0,0c0.8-0.6,1.9-0.5,2.5,0.3l0,0c0.6,0.8,0.4,1.9-0.3,2.5l0,0C18.4,11.9,18,12,17.6,12l0,0C17.1,12,16.6,11.7,16.2,11.3z
	 M64.5,10.2c-0.8-0.5-1-1.6-0.4-2.4l0,0c0.5-0.8,1.6-1,2.4-0.4l0,0c0.8,0.5,1,1.6,0.5,2.4l0,0c-0.4,0.5-0.9,0.8-1.4,0.8l0,0
	C65.2,10.6,64.8,10.5,64.5,10.2z M20,8.5c-0.5-0.8-0.2-1.9,0.6-2.4l0,0c0.8-0.5,1.9-0.2,2.4,0.6l0,0c0.5,0.8,0.2,1.9-0.6,2.4l0,0
	c-0.3,0.2-0.6,0.2-0.9,0.2l0,0C20.9,9.3,20.3,9.1,20,8.5z M60.7,8c-0.9-0.4-1.2-1.5-0.7-2.4l0,0c0.4-0.9,1.5-1.2,2.4-0.7l0,0
	c0.8,0.5,1.2,1.5,0.7,2.4l0,0c-0.3,0.6-0.9,0.9-1.5,0.9l0,0C61.3,8.2,61,8.1,60.7,8z M24,6.1c-0.4-0.9,0-1.9,0.8-2.3l0,0l0,0l0,0
	c0.9-0.4,1.9,0,2.3,0.9l0,0c0.4,0.9,0,1.9-0.9,2.3l0,0c-0.2,0.1-0.5,0.2-0.7,0.2l0,0C24.9,7.2,24.3,6.8,24,6.1z M56.7,6.1
	c-0.9-0.3-1.4-1.4-1-2.3l0,0c0.4-0.9,1.4-1.4,2.3-1l0,0c0.9,0.3,1.4,1.4,1,2.3l0,0c-0.3,0.7-0.9,1.1-1.6,1.1l0,0
	C57.1,6.2,56.9,6.2,56.7,6.1z M28.2,4.3c-0.3-0.9,0.2-1.9,1.1-2.2l0,0c0.9-0.3,1.9,0.2,2.2,1.1l0,0c0.3,0.9-0.2,1.9-1.1,2.2l0,0
	c-0.2,0-0.4,0.1-0.5,0.1l0,0C29.2,5.5,28.5,5,28.2,4.3z M52.5,4.7c-1-0.2-1.5-1.2-1.3-2.1l0,0c0.2-1,1.2-1.5,2.1-1.3l0,0
	c0.9,0.2,1.5,1.2,1.3,2.1l0,0c-0.2,0.8-0.9,1.3-1.7,1.3l0,0C52.7,4.8,52.6,4.8,52.5,4.7z M32.7,2.9c-0.2-1,0.4-1.9,1.4-2.1l0,0
	c0,0,0,0,0,0l0,0c1-0.2,1.9,0.4,2.1,1.4l0,0c0.2,0.9-0.4,1.9-1.4,2.1l0,0c-0.1,0-0.2,0-0.3,0l0,0C33.6,4.3,32.9,3.7,32.7,2.9z
	 M48.1,3.9c-1-0.1-1.6-1-1.5-2l0,0c0.1-1,1-1.6,2-1.5l0,0c1,0.1,1.6,1,1.5,2l0,0c-0.1,0.9-0.9,1.5-1.7,1.5l0,0
	C48.2,3.9,48.2,3.9,48.1,3.9z M37.3,2c-0.1-1,0.6-1.8,1.6-1.9l0,0c1-0.1,1.8,0.6,1.9,1.6l0,0c0.1,1-0.6,1.8-1.6,1.9l0,0
	c0,0-0.1,0-0.1,0l0,0C38.1,3.6,37.3,2.9,37.3,2z M41.9,1.7c0-1,0.8-1.8,1.8-1.7l0,0c1,0,1.7,0.8,1.7,1.8l0,0c0,1-0.8,1.7-1.8,1.7
	l0,0C42.7,3.5,41.9,2.7,41.9,1.7z"/>
<g>
	<g>
		<path class="st0" d="M56.6,45v-0.2c1.6-0.2,2.9,0,3.7,0.2c1,0.3,1.5,0.6,1.6,0.6c0.1,0.1,0.3,0.1,0.4,0.1c0.2,0,0.5-0.1,0.6-0.3
			c0.2-0.3,0.1-0.8-0.2-1c-0.1-0.1-2.7-1.8-7-0.9c-0.4,0.1-0.6,0.4-0.6,0.7V45c0,0.4,0.3,0.8,0.8,0.8C56.3,45.7,56.6,45.4,56.6,45z"
			/>
		<path class="st0" d="M67.4,57.4l-3.8-1.4c-0.3-0.1-0.6-0.4-0.6-0.8v-1.9c0.2-0.1,0.3-0.3,0.5-0.4c1.3-1.2,1.9-2.8,1.9-4.6v-1.4
			l0.2-0.4c0.4-0.8,0.6-1.6,0.6-2.5v-4.5c0-0.4-0.3-0.8-0.8-0.8h-8.4c-2.9,0-5.2,2.4-5.2,5.2c0,0.9,0.2,1.7,0.6,2.5l0.2,0.4V48
			c0,2.1,0.9,3.9,2.4,5.2v2c0,0.4-0.2,0.7-0.6,0.8l-3.8,1.4c-1.2,0.5-2.1,1.7-2.1,3v5.6c0,0.4,0.3,0.8,0.8,0.8
			c0.4,0,0.8-0.3,0.8-0.8v-5.6c0-0.7,0.4-1.3,1.1-1.6l3.8-1.4c0.2-0.1,0.4-0.2,0.6-0.3l2.7,2v6.9c0,0.4,0.3,0.8,0.8,0.8
			c0.4,0,0.8-0.3,0.8-0.8V59l2.7-2c0.2,0.1,0.4,0.2,0.6,0.3l3.8,1.4c0.6,0.2,1.1,0.9,1.1,1.6v5.6c0,0.4,0.3,0.8,0.8,0.8
			c0.4,0,0.8-0.3,0.8-0.8v-5.6C69.5,59,68.6,57.8,67.4,57.4z M54.2,48v-1.4c0-0.1,0-0.2-0.1-0.3l-0.3-0.6c-0.3-0.6-0.4-1.2-0.4-1.8
			c0-2.1,1.7-3.7,3.7-3.7h7.6v3.7c0,0.6-0.1,1.3-0.4,1.8L64,46.3c-0.1,0.1-0.1,0.2-0.1,0.3v1.6c0,1.3-0.5,2.6-1.5,3.5
			c-1,0.9-2.2,1.4-3.6,1.4C56.3,53,54.2,50.7,54.2,48z M58.9,54.6c0.1,0,0.1,0,0.2,0c0.9,0,1.7-0.2,2.5-0.5v1c0,0.2,0,0.5,0.1,0.7
			l-2.6,1.9l-2.6-1.9c0.1-0.2,0.1-0.4,0.1-0.7v-1.1C57.3,54.4,58.1,54.6,58.9,54.6z"/>
		<path class="st0" d="M53.4,61.1c-0.4,0-0.8,0.3-0.8,0.8v4c0,0.4,0.3,0.8,0.8,0.8c0.4,0,0.8-0.3,0.8-0.8v-4
			C54.2,61.5,53.8,61.1,53.4,61.1z"/>
		<path class="st0" d="M64.7,61.1c-0.4,0-0.8,0.3-0.8,0.8v4c0,0.4,0.3,0.8,0.8,0.8s0.8-0.3,0.8-0.8v-4
			C65.4,61.5,65.1,61.1,64.7,61.1z"/>
		<path class="st0" d="M49.5,41.9c0.4-0.3,0.6-0.7,0.5-1.2l-0.5-3H55c1.7,0,3.2-1.4,3.2-3.2V21.6c0-1.7-1.4-3.2-3.2-3.2H55v-0.1
			c0-1.7-1.4-3.2-3.2-3.2H29.3c-1.7,0-3.2,1.4-3.2,3.2v12.9c0,1.7,1.4,3.2,3.2,3.2h3.3v0.1c0,1.7,1.4,3.2,3.2,3.2h0.6l-0.3,1.2
			c-0.1,0.5,0.1,1,0.5,1.2c0.2,0.1,0.4,0.2,0.6,0.2c0.2,0,0.5-0.1,0.7-0.2l3.3-2.4h0.7l6.3,4.2c0.2,0.1,0.4,0.2,0.6,0.2
			C49.1,42.1,49.3,42,49.5,41.9z M35.7,36.2c-0.9,0-1.7-0.7-1.7-1.7v-0.1h3.1l-0.4,1.7H35.7L35.7,36.2z M37.7,38.3l1.1-4.4
			c0.1-0.2,0-0.5-0.1-0.6c-0.1-0.2-0.4-0.3-0.6-0.3h-8.9c-0.9,0-1.7-0.7-1.7-1.7V18.4c0-0.9,0.7-1.7,1.7-1.7h22.5
			c0.9,0,1.7,0.7,1.7,1.7v12.9c0,0.9-0.7,1.7-1.7,1.7h-6.4c-0.2,0-0.3,0.1-0.4,0.1L37.7,38.3z M47.8,37.1l0.5,3.1l-5.5-3.7l2.8-2
			h6.2c1.7,0,3.2-1.4,3.2-3.2V20H55c0.9,0,1.7,0.7,1.7,1.7v12.9c0,0.9-0.7,1.7-1.7,1.7h-6.4c-0.2,0-0.4,0.1-0.6,0.3
			C47.9,36.6,47.8,36.8,47.8,37.1z"/>
		<path class="st1" d="M32.5,21.6h2.4c0.4,0,0.8-0.3,0.8-0.8s-0.3-0.8-0.8-0.8h-2.4c-0.4,0-0.8,0.3-0.8,0.8S32.1,21.6,32.5,21.6z"/>
		<path class="st1" d="M38.1,21.6h10.5c0.4,0,0.8-0.3,0.8-0.8s-0.3-0.8-0.8-0.8H38.1c-0.4,0-0.8,0.3-0.8,0.8S37.7,21.6,38.1,21.6z"
			/>
		<path class="st1" d="M32.5,25.6h16.1c0.4,0,0.8-0.3,0.8-0.8s-0.3-0.8-0.8-0.8H32.5c-0.4,0-0.8,0.3-0.8,0.8S32.1,25.6,32.5,25.6z"
			/>
		<path class="st1" d="M43,28.1H32.5c-0.4,0-0.8,0.3-0.8,0.8s0.3,0.8,0.8,0.8H43c0.4,0,0.8-0.3,0.8-0.8S43.4,28.1,43,28.1z"/>
		<path class="st1" d="M48.6,28.1h-2.4c-0.4,0-0.8,0.3-0.8,0.8s0.3,0.8,0.8,0.8h2.4c0.4,0,0.8-0.3,0.8-0.8S49,28.1,48.6,28.1z"/>
	</g>
	<path class="st1" d="M28.5,45v-0.2c-1.6-0.2-2.9,0-3.7,0.2c-1,0.3-1.5,0.6-1.6,0.6c-0.1,0.1-0.3,0.1-0.4,0.1
		c-0.2,0-0.5-0.1-0.6-0.3c-0.2-0.3-0.1-0.8,0.2-1c0.1-0.1,2.7-1.8,7-0.9c0.4,0.1,0.6,0.4,0.6,0.7V45c0,0.4-0.3,0.8-0.8,0.8
		S28.5,45.4,28.5,45z"/>
	<path class="st1" d="M15.6,60.3v5.6c0,0.4,0.3,0.8,0.8,0.8s0.8-0.3,0.8-0.8v-5.6c0-0.7,0.4-1.3,1.1-1.6l3.8-1.4
		c0.2-0.1,0.4-0.2,0.6-0.3l2.7,2v6.9c0,0.4,0.3,0.8,0.8,0.8s0.8-0.3,0.8-0.8V59l2.7-2c0.2,0.1,0.4,0.2,0.6,0.3l3.8,1.4
		c0.6,0.2,1.1,0.9,1.1,1.6v5.6c0,0.4,0.3,0.8,0.8,0.8c0.4,0,0.8-0.3,0.8-0.8v-5.6c0-1.3-0.8-2.5-2.1-3l-3.8-1.4
		c-0.3-0.1-0.6-0.4-0.6-0.8v-2c1.5-1.2,2.4-3.1,2.4-5.2v-1.2l0.2-0.4c0.4-0.8,0.6-1.6,0.6-2.5c0-2.9-2.4-5.2-5.2-5.2h-8.4
		c-0.4,0-0.8,0.3-0.8,0.8v4.5c0,0.9,0.2,1.7,0.6,2.5l0.2,0.4v1.4c0,1.7,0.7,3.4,1.9,4.6c0.2,0.1,0.3,0.3,0.5,0.4v1.9
		c0,0.4-0.2,0.7-0.6,0.8l-3.8,1.4C16.5,57.8,15.6,59,15.6,60.3z M26.2,53.1c-1.3,0-2.6-0.4-3.6-1.4c-1-0.9-1.5-2.2-1.5-3.5v-1.6
		c0-0.1,0-0.2-0.1-0.3l-0.3-0.6c-0.3-0.6-0.4-1.2-0.4-1.8v-3.7H28c2.1,0,3.7,1.7,3.7,3.7c0,0.6-0.1,1.3-0.4,1.8L31,46.3
		c-0.1,0.1-0.1,0.2-0.1,0.3V48C30.9,50.7,28.8,53,26.2,53.1z M28.5,54.1v1.1c0,0.2,0,0.5,0.1,0.7l-2.6,1.9l-2.6-1.9
		c0.1-0.2,0.1-0.4,0.1-0.7v-1c0.8,0.3,1.6,0.5,2.5,0.5c0.1,0,0.1,0,0.2,0C27.1,54.6,27.8,54.4,28.5,54.1z"/>
</g>
<path class="st1" d="M31.3,61.1c0.4,0,0.8,0.3,0.8,0.8v4c0,0.4-0.3,0.8-0.8,0.8s-0.8-0.3-0.8-0.8v-4C30.6,61.5,30.9,61.1,31.3,61.1z
	"/>
<path class="st1" d="M20.1,61.1c0.4,0,0.8,0.3,0.8,0.8v4c0,0.4-0.3,0.8-0.8,0.8s-0.8-0.3-0.8-0.8v-4C19.3,61.5,19.7,61.1,20.1,61.1z
	"/>
</svg>
